<svg width="324" height="197" viewBox="0 0 324 197" fill="none" xmlns="http://www.w3.org/2000/svg">
<g filter="url(#filter0_d_2696_16246)">
<rect x="30" y="20" width="264" height="137" fill="white"/>
</g>
<path d="M206.41 85.8521C206.41 85.6721 206.3 85.4922 206.24 85.3222L206 84.8021C205.85 84.2821 205.59 83.7221 205.35 83.1321C205.057 82.5715 204.723 82.0334 204.35 81.5221C203.862 80.8003 203.237 80.1818 202.51 79.7021C201.697 79.2194 200.836 78.8239 199.94 78.5221C199.109 78.2515 198.26 78.0377 197.4 77.8821C195.817 77.6117 194.216 77.458 192.61 77.4221C191.07 77.4221 189.61 77.4221 188.26 77.4221C186.91 77.4221 185.54 77.4221 184.26 77.5521C179.17 77.7621 174.13 77.7821 169.26 77.9021C166.66 77.9555 164.12 78.0588 161.64 78.2122L161.21 77.9121C160.601 77.9726 160.004 78.1243 159.44 78.3622L158.25 78.4622C157.241 78.285 156.204 78.3888 155.25 78.7621C154.34 78.6121 154.93 78.5121 154.4 78.3721C153.02 78.4721 151.52 78.5021 149.99 78.4821C149.159 78.3069 148.309 78.233 147.46 78.2621V78.3821C143.516 78.2296 139.598 77.6665 135.77 76.7021C133.25 77.6321 130.08 76.9021 127.17 77.3121C125.45 77.4621 123.56 77.7321 121.77 77.9521C120.87 78.0621 120.03 78.1421 119.11 78.2421C118.19 78.3421 117.36 78.5221 116.57 78.7021C115.63 78.9399 114.746 79.3614 113.97 79.9421C113.245 80.4856 112.61 81.1404 112.09 81.8821C110.702 84.0166 109.87 86.4642 109.67 89.0022C109.67 89.1122 109.62 89.2221 109.6 89.3321C109.58 89.4421 109.6 89.6822 109.6 89.8622C109.593 91.1718 109.82 92.4722 110.27 93.7021C110.501 94.287 110.84 94.8231 111.27 95.2822L111.67 95.7021C112.67 97.2021 113.96 98.8221 113.96 99.5121C116.7 101.622 120.46 101.612 123.96 101.512L139.74 101.062C140.217 101.102 140.687 101.199 141.14 101.352L141.23 101.022L147.4 100.852C151.72 101.292 157.79 101.102 162.95 101.112C164.06 101.112 164.78 100.482 165.95 100.472L167.53 100.802C168.646 100.74 169.764 100.74 170.88 100.802C173.626 101.212 176.407 101.346 179.18 101.202C182.32 101.122 185.53 101.032 188.06 101.092C189.816 101.117 191.571 100.973 193.3 100.662C195.246 100.314 197.152 99.7714 198.99 99.0421C199.455 98.8896 199.906 98.6989 200.34 98.4721C200.57 98.3621 200.81 98.1921 201.06 98.0421C201.311 97.8915 201.551 97.7245 201.78 97.5421C202.789 96.7711 203.667 95.8425 204.38 94.7921C205.16 93.6751 205.77 92.4484 206.19 91.1521C206.62 89.8057 206.813 88.3947 206.76 86.9821C206.675 86.5964 206.558 86.2185 206.41 85.8521Z" fill="#FD9254"/>
<path d="M161.8 102.462H161.08C161.37 102.462 161.61 102.472 161.8 102.462Z" fill="#FD9254"/>
<path d="M161.46 101.822C161.46 102.002 163.46 102.452 161.8 102.462C162.72 102.462 163.55 102.462 162.8 102.812C164.59 102.812 162.93 102.332 164.11 102.072C163.1 102.372 162.33 101.912 161.46 101.822Z" fill="#FD9254"/>
<path d="M168.27 102.152C167.38 102.152 166.58 101.792 165.83 102.152C166.637 102.293 167.463 102.293 168.27 102.152Z" fill="#FD9254"/>
<path d="M166.18 103.342L166.66 103.232L165.42 102.872L166.18 103.342Z" fill="#FD9254"/>
<path d="M171.14 102.852C171.48 102.912 171.74 102.992 171.8 103.112L168.65 103.252L171.49 103.452C173.21 103.122 172.37 102.982 171.14 102.852Z" fill="#FD9254"/>
<path d="M167.49 102.602C168.356 102.71 169.228 102.757 170.1 102.742C169.525 102.741 168.957 102.622 168.43 102.392L167.49 102.602Z" fill="#FD9254"/>
<path d="M171.14 102.852C170.809 102.793 170.475 102.756 170.14 102.742L171.14 102.852Z" fill="#FD9254"/>
<path d="M174.12 103.602H174.57L174.69 103.112C173.77 103.222 174.14 103.512 174.12 103.602Z" fill="#FD9254"/>
<path d="M177.59 103.932C178.9 104.012 177.96 104.222 177.91 104.412C178.961 104.533 180.024 104.486 181.06 104.272C179.92 104.026 178.756 103.912 177.59 103.932Z" fill="#FD9254"/>
<path d="M181.78 104.932H179.1C179.67 105.492 180.67 104.992 181.78 104.932Z" fill="#FD9254"/>
<path d="M184.67 104.211L186.16 104.621C186.4 104.561 186.16 104.421 186.7 104.311C186.029 104.207 185.348 104.173 184.67 104.211Z" fill="#FD9254"/>
<path d="M112.61 73.1519C112.88 72.8319 113.15 72.4518 113.42 72.0718C114.097 71.0872 115.105 70.3777 116.26 70.0718C116.63 70.0041 117.013 70.0792 117.33 70.2819C117.803 70.5499 118.361 70.6285 118.89 70.5018C119.53 70.3918 119.96 70.5018 120.13 70.8718C120.09 71.103 120.069 71.3372 120.07 71.5718C120.115 71.7763 120.114 71.9881 120.067 72.1921C120.02 72.3961 119.929 72.5872 119.8 72.7518C119.7 72.7518 119.8 72.9118 119.8 73.0218C119.75 74.2519 120.07 73.1818 119.53 74.4118C119.26 75.0018 119.21 75.5418 118.99 76.0218C116.42 82.5218 119.1 79.3018 121.25 76.4518C121.485 75.8608 121.851 75.3309 122.32 74.9018C123.07 73.8218 123.99 72.9018 124.74 71.7318C125.949 70.1255 127.396 68.7126 129.03 67.5418C129.62 67.1718 130.16 66.5419 130.69 66.6919C131.223 66.7336 131.729 66.9398 132.14 67.2819C132.518 67.5877 132.828 67.9692 133.05 68.4019C133.16 68.4619 133.21 68.5119 133.27 68.5119C134.02 68.6719 134.02 69.4218 134.02 70.1218C133.953 70.2596 133.899 70.4037 133.86 70.5518C133.125 71.9556 132.583 73.4526 132.25 75.0018C132.14 75.7518 132.03 76.5618 131.98 77.2618C131.93 77.9618 131.82 78.7618 131.66 79.5618C131.649 80.3173 131.404 81.0509 130.96 81.6618C130.96 81.6618 130.96 81.7618 130.96 81.8718C131.34 82.1918 130.8 82.5718 130.64 82.9418C130.64 83.1118 130.48 83.3218 130.64 83.4818C130.73 83.7948 130.743 84.125 130.677 84.444C130.611 84.7629 130.468 85.0608 130.26 85.3118C130.251 85.4183 130.251 85.5254 130.26 85.6318C130.1 86.1118 129.99 86.5418 129.88 86.9718C129.93 86.9718 129.93 86.9718 130.15 86.8118C129.99 87.5618 129.08 88.2018 129.34 88.9018C129.72 88.9018 129.67 89.2818 129.56 89.7618C129.364 90.8575 129.077 91.9346 128.7 92.9818C128.7 92.9818 128.7 93.0919 128.7 93.1419C128.97 93.6819 128.33 94.4319 128.49 95.1419C128.49 95.5619 128.22 96.1419 128.49 96.6419C128.423 97.0561 128.215 97.4344 127.9 97.7119C127.79 97.9319 127.52 98.0919 127.31 98.3018C126.99 99.0518 126.93 99.1119 126.24 99.1618C126.021 99.1811 125.803 99.2178 125.59 99.2719C125.22 99.2719 124.95 99.2719 124.79 99.0518C124.676 98.9328 124.524 98.8583 124.36 98.8419C123.66 98.6819 123.44 98.0319 123.77 97.3419C124.219 95.5381 124.553 93.7078 124.77 91.8619C124.917 91.405 125.04 90.9411 125.14 90.4718C125.36 89.8218 125.52 89.0719 125.84 88.3219C125.84 88.5419 125.73 88.8019 125.73 89.0719C125.89 88.9619 125.89 88.9619 125.95 88.9619C126.087 88.5775 126.194 88.183 126.27 87.7819C126.57 86.845 126.752 85.874 126.81 84.8919C126.782 84.8621 126.766 84.8228 126.766 84.7819C126.766 84.7409 126.782 84.7016 126.81 84.6719C127.34 84.1318 126.86 83.6019 127.29 83.0618C127.45 82.9018 127.4 82.6918 127.45 82.5818C127.38 81.9523 127.552 81.3197 127.93 80.8118V80.5019C127.55 81.3019 127.23 82.1118 126.93 82.9118H126.67C127.47 78.1918 127.67 77.6018 124.04 82.7018C123.99 82.6418 123.93 82.5918 123.93 82.5418C123.878 82.5227 123.822 82.5227 123.77 82.5418C123.739 82.7085 123.686 82.8701 123.61 83.0218C123.401 83.6329 122.959 84.1363 122.38 84.4219C122.308 84.4417 122.244 84.4829 122.195 84.54C122.147 84.5971 122.117 84.6675 122.11 84.7418C121.898 84.9131 121.73 85.1325 121.62 85.3818C121.03 87.0518 117.55 91.9818 116.53 93.6518C116.012 94.3686 115.384 94.9996 114.67 95.5218C114.67 95.2018 114.62 94.9918 114.78 94.7718H114.67C114.44 95.1456 114.19 95.5062 113.92 95.8519C113.92 95.7919 113.87 95.7918 113.81 95.7418C113.684 96.0375 113.484 96.2963 113.231 96.4939C112.977 96.6915 112.678 96.8216 112.36 96.8718C111.475 97.2382 110.491 97.2945 109.57 97.0319C108.983 96.9462 108.419 96.7457 107.91 96.4418C107.53 96.1718 107.48 96.2218 107.86 95.5818C108.35 94.729 108.888 93.9044 109.47 93.1119C110.035 92.476 110.341 91.6521 110.33 90.8018C111.51 84.8518 114.83 77.2818 110.43 84.1518C109.911 85.086 109.301 85.9669 108.61 86.7819C106.89 90.4819 102.61 95.9519 102.01 99.9319C101.941 100.341 101.813 100.739 101.63 101.112C101.31 101.592 101.04 101.642 100.77 101.432C100.5 101.222 100.56 101.372 100.51 101.322C100.24 100.682 99.7 100.572 99 100.462C98.6397 100.365 98.3006 100.203 98 99.9818C98 99.9818 98 99.6618 98.06 99.5518C98.9364 97.8804 99.5695 96.0924 99.94 94.2418C100.038 93.5671 100.179 92.8992 100.36 92.2418C100.53 91.4319 101.87 88.2419 102.08 87.4619L102.73 84.8919C103.15 83.2219 103.53 81.5619 104.01 79.8919C104.117 79.5395 104.191 79.1779 104.23 78.8118C104.365 77.5172 104.702 76.2517 105.23 75.0618C105.39 74.6818 105.45 74.2518 105.66 73.8218C105.783 73.4213 105.926 73.0275 106.09 72.6418C106.25 72.2718 106.47 72.1018 106.74 72.2118C107 72.4818 107.38 72.7018 107.65 72.9618C107.92 73.2218 107.76 73.5018 107.81 73.8218C107.637 74.9117 107.387 75.9878 107.06 77.0418C105.82 83.0418 110.44 76.1818 111.06 75.2218C111.49 74.4918 112.13 73.8519 112.61 73.1519ZM109.61 94.5618C109.67 94.4518 109.72 94.3418 109.88 94.0818V93.8118C109.798 93.9546 109.689 94.0802 109.56 94.1819C109.574 94.3116 109.553 94.4427 109.5 94.5618H109.61ZM116.96 84.0918C117.256 83.6617 117.527 83.2142 117.77 82.7519C118.094 81.917 118.628 81.1798 119.32 80.6119C119.505 80.3788 119.619 80.0978 119.65 79.8018C118.419 81.1938 117.414 82.7694 116.67 84.4718C116.811 84.373 116.927 84.243 117.01 84.0918H116.96ZM122.22 76.8519C122.237 76.6861 122.316 76.5328 122.44 76.4219C123.11 75.5719 123.699 74.6613 124.2 73.7018C123.136 74.8539 122.219 76.1337 121.47 77.5118C121.641 77.4615 121.8 77.3771 121.938 77.2637C122.075 77.1503 122.188 77.0102 122.27 76.8519H122.22Z" fill="#2C3847"/>
<path d="M133.67 85.2818C133.106 84.233 132.766 83.0788 132.67 81.8918C132.549 80.9761 132.759 80.0474 133.26 79.2718C133.296 79.2011 133.349 79.1398 133.413 79.093C133.477 79.0461 133.552 79.0149 133.63 79.0018C134.133 78.5938 134.672 78.2323 135.24 77.9218C135.76 77.6203 136.374 77.5273 136.96 77.6618C137.39 77.6618 138.57 78.7318 138.84 78.9418C139.149 79.2403 139.484 79.5113 139.84 79.7518C140.326 80.1899 140.695 80.7437 140.91 81.3618C141.04 81.7669 141.2 82.1613 141.39 82.5418C141.534 83.0507 141.644 83.5685 141.72 84.0918C141.74 84.5253 141.794 84.9566 141.88 85.3818C141.88 85.4418 141.88 85.4418 141.88 85.5418C141.72 84.6918 141.88 85.9218 141.88 86.0818C141.936 86.6906 141.936 87.3031 141.88 87.9118C141.72 88.2318 142.04 88.6018 142.47 88.6018C145.1 88.4418 146.12 88.8218 148.69 88.3918C148.96 88.2818 149.23 88.1218 149.55 87.9618C149.66 87.9118 149.82 87.8018 149.93 87.7418C149.967 87.8182 149.987 87.9019 149.987 87.9868C149.987 88.0717 149.967 88.1555 149.93 88.2318C149.77 88.5018 150.3 88.6018 150.09 88.8218C148.48 90.5318 143.54 90.4818 141.61 90.4818H141.45C141.29 90.4818 141.13 90.4818 141.13 90.6418C141.13 90.8018 141.07 90.8018 141.02 90.9118C140.784 91.8384 140.448 92.7369 140.02 93.5918C139.766 94.1737 139.429 94.716 139.02 95.2018C138.829 95.5493 138.575 95.8579 138.27 96.1118C138.16 96.1718 138.05 96.2818 137.89 96.3818C137.746 96.4484 137.632 96.566 137.57 96.7118C137.179 97.1846 136.657 97.5323 136.07 97.7118C135.876 97.7453 135.692 97.8203 135.53 97.9318C134.809 98.1077 134.058 98.1248 133.33 97.9818C132.861 97.8886 132.422 97.6848 132.048 97.3874C131.674 97.0899 131.376 96.7075 131.18 96.2718C131.02 95.8418 130.86 95.2718 130.7 94.8218C130.578 93.8431 130.561 92.8541 130.65 91.8718C130.77 90.8252 131.079 89.8089 131.56 88.8718C132.055 87.7189 132.73 86.6521 133.56 85.7118C133.72 85.7118 133.72 85.5518 133.77 85.3918C133.762 85.3677 133.748 85.3455 133.731 85.3266C133.714 85.3077 133.693 85.2925 133.67 85.2818ZM140.05 83.1318C139.961 82.5517 139.837 81.9774 139.68 81.4118C139.557 80.9195 139.297 80.4722 138.93 80.1218C138.734 79.8714 138.497 79.6552 138.23 79.4818C137.92 79.2168 137.585 78.9823 137.23 78.7818C136.59 78.2518 135.41 79.3718 135.03 79.7818C133.58 81.7818 135.03 84.6118 136.32 86.0618C137.88 89.1218 140.72 88.0618 140.08 84.4518C140.201 84.0173 140.183 83.5559 140.03 83.1318H140.05ZM135.28 93.5918C135.23 93.8756 135.21 94.1639 135.22 94.4518C135.12 94.5618 135.22 94.6118 135.28 94.7218C135.33 94.863 135.408 94.9926 135.509 95.1027C135.61 95.2127 135.733 95.3009 135.87 95.3618C135.92 95.3618 135.92 95.3618 135.97 95.3618C136.02 95.3618 136.14 95.2518 136.19 95.2018C137.079 94.1649 137.78 92.9804 138.26 91.7018C138.478 91.292 138.658 90.8636 138.8 90.4218C137.56 89.8818 136.97 90.3618 136.28 91.2818C135.808 91.9867 135.463 92.7684 135.26 93.5918H135.28Z" fill="#2C3847"/>
<path d="M164.56 88.4419C164.23 88.8719 163.91 89.3519 163.56 89.7819C163.175 90.306 162.84 90.8651 162.56 91.4519C162.56 91.4519 162.56 91.6119 162.51 91.6119C162.13 92.1419 161.81 92.6819 161.44 93.1119C160.85 93.7519 160.31 94.3419 159.72 94.9319C159.161 95.4467 158.547 95.8993 157.89 96.2819C157.027 96.7892 156.112 97.2016 155.16 97.5119C154.247 97.4569 153.332 97.4569 152.42 97.5119C151.67 97.6719 150.06 96.9719 149.36 96.7119C148.618 96.4008 147.916 96.0012 147.27 95.5219C146.754 95.0957 146.335 94.5653 146.038 93.9656C145.742 93.3659 145.575 92.7104 145.55 92.0419C145.45 91.1313 145.45 90.2125 145.55 89.3019C145.607 88.7557 145.717 88.2164 145.88 87.6919C146.04 87.3119 146.14 86.9419 146.3 86.5619C146.723 85.4633 147.245 84.4056 147.86 83.4019C148.02 83.1819 148.13 82.9719 148.29 82.7519C148.67 82.131 149.142 81.5713 149.69 81.0919C150.322 80.5218 150.983 79.9844 151.67 79.4819C151.992 79.2374 152.385 79.1041 152.79 79.1019C152.957 79.0928 153.122 79.0591 153.28 79.0019C153.654 78.7906 154.082 78.6965 154.51 78.7319C155.149 78.6936 155.78 78.8852 156.29 79.2719C156.34 79.2719 156.39 79.3219 156.45 79.3219C156.508 79.327 156.565 79.309 156.61 79.2719C156.77 79.1619 156.88 79.1019 157.04 79.2119C157.126 79.2814 157.191 79.3732 157.228 79.4773C157.265 79.5814 157.273 79.6938 157.25 79.8019C157.205 79.9149 157.187 80.0364 157.195 80.1576C157.204 80.2788 157.24 80.3964 157.3 80.5019C157.36 80.5019 157.3 80.6619 157.36 80.7119L157.04 81.2019C157.079 81.541 157.149 81.8758 157.25 82.2019C157.377 82.6925 157.451 83.1954 157.47 83.7019C157.495 83.968 157.495 84.2358 157.47 84.5019C157.251 85.4412 156.947 86.3584 156.56 87.2419C156.511 87.4016 156.421 87.5452 156.298 87.6578C156.175 87.7704 156.023 87.8478 155.86 87.8819C155.75 87.8819 155.64 87.9419 155.54 87.9419C155.42 87.945 155.304 87.9061 155.21 87.8319C154.913 87.5795 154.575 87.38 154.21 87.2419C154.21 87.1819 154.1 87.1819 154.05 87.1319C153.96 87.0773 153.89 86.9954 153.851 86.8982C153.811 86.801 153.804 86.6936 153.83 86.5919C153.89 86.3319 153.94 86.0619 153.99 85.8419C154.271 84.789 154.604 83.751 154.99 82.7319C154.989 82.6224 155.01 82.5137 155.05 82.4119C154.983 82.4731 154.909 82.5268 154.83 82.5719C154.464 83.2213 154.031 83.8312 153.54 84.3919C153.106 85.0017 152.731 85.6513 152.42 86.3319C151.99 87.2419 151.56 88.1019 151.13 89.0119C150.707 89.8519 150.372 90.7332 150.13 91.6419C150.052 91.9234 149.998 92.2112 149.97 92.5019C149.919 92.8828 149.975 93.2704 150.13 93.6219C150.3 93.9419 150.46 94.3219 150.62 94.7019C150.742 94.9286 150.886 95.1429 151.05 95.3419C151.31 95.6619 152.66 95.1319 153.05 95.0719C154.76 94.7084 156.37 93.9783 157.77 92.9319C158.817 92.1283 159.819 91.2669 160.77 90.3519C161.04 90.0319 161.31 89.7119 161.57 89.3519C162.06 88.7119 163.57 87.6419 164.04 86.9419C164.31 86.5619 165.17 86.0819 165.44 85.7119C165.71 85.3419 165.44 86.4619 165.71 86.3019C165.432 87.067 165.045 87.7878 164.56 88.4419Z" fill="#2C3847"/>
<path d="M172.67 96.0619C172.93 96.5869 173.235 97.0887 173.58 97.5619C173.65 97.7501 173.776 97.9128 173.94 98.0287C174.104 98.1447 174.299 98.2085 174.5 98.2119C175.072 98.3483 175.673 98.2921 176.21 98.0519C176.75 97.8919 178.68 96.3319 179.27 96.0519C179.49 95.9419 181.69 93.5819 181.95 93.4219C182.788 92.4454 183.525 91.3866 184.15 90.2619C184.69 89.4019 185.15 88.4319 185.66 87.5719C185.76 87.3619 185.87 87.1419 185.98 86.8819C186.09 86.6219 186.09 86.4519 186.14 86.2319C186.41 86.9819 187.14 86.3919 186.89 86.9319C186.796 87.154 186.742 87.3909 186.73 87.6319C186.475 88.3349 186.139 89.006 185.73 89.6319C185.504 90.379 185.199 91.0998 184.82 91.7819V91.8919C184.5 92.5319 184.01 93.2319 183.69 93.8919C183.32 94.3219 180.79 97.1119 180.36 97.4919C180.093 97.7271 179.784 97.9102 179.45 98.0319C178.65 98.4619 176.55 100.172 175.75 100.392C175.206 100.53 174.65 100.62 174.09 100.662C173.666 100.69 173.241 100.628 172.843 100.48C172.444 100.332 172.082 100.101 171.78 99.8019C171.51 99.4819 171.19 99.1019 170.92 98.7219C170.33 97.7219 169.58 96.5819 169.04 95.4019C168.56 94.8119 168.4 94.3219 167.91 95.0219C167.81 95.1819 167.81 95.5019 167.7 95.6719C167.5 95.9939 167.319 96.3278 167.16 96.6719C167.045 97.0249 166.884 97.3612 166.68 97.6719C166.611 97.7737 166.513 97.8533 166.4 97.9012C166.286 97.9491 166.161 97.9632 166.04 97.9419C165.893 97.9243 165.745 97.9394 165.605 97.9861C165.465 98.0327 165.337 98.1099 165.23 98.2119C164.11 98.6919 163.68 98.6919 162.87 97.9919C162.402 97.6363 162.017 97.1845 161.739 96.6669C161.461 96.1493 161.298 95.5781 161.26 94.9919C161.215 94.8915 161.198 94.7811 161.21 94.6719C161.299 93.8328 161.279 92.9857 161.15 92.1519C161.09 91.0785 161.11 90.0022 161.21 88.9319C161.289 88.4684 161.342 88.0011 161.37 87.5319C161.492 86.0378 161.781 84.562 162.23 83.1319C162.5 82.2719 162.76 81.3619 163.09 80.5619C163.604 79.0299 164.195 77.5247 164.86 76.0519C165.23 75.4119 165.45 74.7119 165.86 74.1219C166.804 72.1646 167.863 70.2647 169.03 68.4319C169.749 67.3318 170.576 66.3067 171.5 65.3719C171.87 65.0519 172.25 64.6719 172.68 64.3719C173.077 64.112 173.546 63.9827 174.02 64.0019C174.02 64.0019 174.18 64.1619 174.29 64.2119C174.662 64.7815 175.158 65.26 175.74 65.6119C176.72 66.3643 177.553 67.2895 178.2 68.3419C178.557 68.8628 178.745 69.4805 178.74 70.1119V70.6019C178.704 70.7245 178.635 70.8346 178.539 70.9195C178.444 71.0044 178.326 71.0607 178.2 71.0819C178.09 70.9883 177.965 70.914 177.83 70.8619C177.72 70.7019 177.51 70.6019 177.4 70.4419C176.86 70.0119 176.4 70.0619 175.84 70.6519C175.36 71.0819 174.84 71.6519 174.34 72.1519C174.27 72.3511 174.161 72.5346 174.02 72.6919C173.48 73.5519 172.89 74.3019 172.35 75.0519C172.324 75.1883 172.269 75.3177 172.19 75.4319C171.981 76.0114 171.713 76.5677 171.39 77.0919C171.01 77.8419 170.58 78.5919 170.21 79.4519C169.99 79.8319 169.83 80.1519 169.62 80.5819C169.19 81.5819 168.62 82.6719 168.22 83.7419C167.619 85.0352 167.118 86.3724 166.72 87.7419C166.72 88.0719 166.56 88.2819 166.51 88.5519C166.386 89.2276 166.223 89.8954 166.02 90.5519C165.81 92.2719 166.29 92.2119 166.67 91.6219C167.47 90.3919 168.06 88.9419 168.97 87.7019C169.88 86.3971 170.904 85.1756 172.03 84.0519C172.5 83.6347 173.057 83.3284 173.661 83.1553C174.265 82.9822 174.901 82.9469 175.52 83.0519C175.663 83.0603 175.801 83.1101 175.916 83.1953C176.032 83.2805 176.12 83.3975 176.17 83.5319C176.217 83.6671 176.288 83.7925 176.38 83.9019C176.793 84.4846 177.001 85.1882 176.97 85.9019C176.981 87.2315 176.782 88.5545 176.38 89.8219C176.33 90.0319 176.33 90.1419 176.27 90.3519C176.035 91.0445 175.698 91.6983 175.27 92.2919C174.95 92.5519 174.74 92.8819 174.47 93.0919C174.154 93.5308 173.726 93.8764 173.23 94.0919C172.992 94.1564 172.761 94.2435 172.54 94.3519C172.37 94.3519 172.37 94.5719 172.21 94.6219C172.252 95.1306 172.409 95.623 172.67 96.0619ZM161.35 91.0619V92.2019C161.475 91.8375 161.489 91.4441 161.39 91.0719L161.35 91.0619ZM171.15 87.7019C170.993 88.1922 170.778 88.6621 170.51 89.1019C170.3 89.6419 169.97 90.0119 169.81 90.4919C169.22 91.3519 170.89 90.8219 171.21 90.4919C172.525 89.3958 173.526 87.9707 174.11 86.3619C174.96 83.5719 173.95 83.8419 172.6 85.5619C172.005 86.1929 171.516 86.9154 171.15 87.7019Z" fill="#2C3847"/>
<path d="M189.08 92.6319C188.214 92.9492 187.309 93.1476 186.39 93.2219C185.671 93.1752 184.965 93.0096 184.3 92.7319C182.96 91.9319 182.91 91.5519 182.64 89.7319C182.506 88.9717 182.6 88.189 182.91 87.4819C183.18 86.2519 186.07 81.7919 186.56 80.6619C186.836 80.0253 187.17 79.416 187.56 78.8419C187.72 78.4619 187.99 78.3619 188.26 78.2019C188.53 78.0419 189.01 78.0419 189.26 77.7719C190.06 77.3419 189.47 76.9619 190.01 76.9119C190.241 76.9001 190.471 76.9482 190.678 77.0516C190.884 77.155 191.061 77.3101 191.19 77.5019C191.41 77.5519 191.41 77.8219 191.62 78.0419C191.83 78.2619 191.73 78.3619 191.73 78.5719C191.41 79.9119 190.22 82.4419 189.9 83.7219C189.67 84.4382 189.509 85.1749 189.42 85.9219C189.334 86.4618 189.172 86.987 188.94 87.4819C188.83 87.9119 188.56 88.7119 188.83 88.9319C189.1 89.1519 189.15 90.1119 189.47 90.0019C190.76 89.3019 192.47 89.2519 193.18 88.3919C193.61 87.8019 193.87 88.0719 194.3 87.5319C194.572 87.2381 194.792 86.8999 194.95 86.5319C195.27 85.8319 195.32 86.0419 195.59 85.4519C195.941 84.7704 196.356 84.1242 196.83 83.5219C196.987 83.0749 197.22 82.6586 197.52 82.2919C198.06 82.1319 198.01 82.1819 198.22 82.2319C199.03 82.1819 198.33 82.2319 198.81 82.5019C198.92 82.7219 198.81 82.9319 198.97 83.0419C198.6 84.0419 198.54 85.1319 198.06 86.3119C197.9 86.6919 198.06 86.3119 197.68 86.8019C197.669 87.2376 197.541 87.6623 197.31 88.0319C197.09 88.5119 197.15 89.1019 196.83 89.5319C196.4 91.3619 196.18 92.3219 196.18 92.5319C196.02 93.2219 197.9 93.7119 199.78 93.1219C201.578 92.0548 203.102 90.5823 204.23 88.8219C204.61 88.1819 204.93 87.5419 205.52 86.6819C206.11 85.8219 206.52 87.3219 206.27 87.6819C206.141 87.8834 206.034 88.0979 205.95 88.3219C205.52 88.6419 205.03 90.3219 204.66 90.6819C204.55 90.7919 204.61 90.9519 204.34 91.0619C203.394 92.2541 202.332 93.3495 201.17 94.3319C200.819 94.4518 200.483 94.6129 200.17 94.8119C199.886 95.1094 199.546 95.3474 199.17 95.5119C198.943 95.5843 198.74 95.7154 198.58 95.8919C198.46 95.8469 198.33 95.838 198.206 95.8665C198.081 95.8949 197.968 95.9594 197.88 96.0519C196.88 96.6419 192.51 96.8519 192.19 95.0519C191.809 93.61 191.809 92.0938 192.19 90.6519V90.4319C191.226 91.2628 190.184 91.9995 189.08 92.6319Z" fill="#2C3847"/>
<path d="M218.75 88.6019C218.81 89.9419 219.23 89.4619 221.22 89.1419C222.201 88.9824 223.105 88.5128 223.8 87.8019C224.28 87.3119 224.87 87.9119 225.14 88.1719C224.936 88.6739 224.664 89.1451 224.33 89.5719C222.794 90.5232 221.036 91.0575 219.23 91.1219C217.89 91.4519 217.79 92.1219 217.3 93.2219L217.09 93.6519C216.895 94.2232 216.623 94.765 216.28 95.2619C216.186 95.3807 216.079 95.4881 215.96 95.5819L215.42 96.2219C215.197 96.6424 214.887 97.0106 214.51 97.3019L214.14 97.7219L213.6 98.2119C213.444 98.2617 213.276 98.2617 213.12 98.2119C212.954 98.0834 212.772 97.9759 212.58 97.8919C212.556 97.7294 212.556 97.5643 212.58 97.4019C212.47 96.9219 212.31 96.4919 211.83 96.4019C211.625 96.2682 211.443 96.1028 211.29 95.9119C211.128 95.662 210.904 95.4586 210.64 95.3219C210.388 95.0841 210.233 94.7622 210.204 94.4174C210.174 94.0725 210.273 93.7289 210.48 93.4519C210.639 93.0423 210.922 92.6927 211.29 92.4519C211.614 92.1882 211.974 91.9726 212.36 91.8119C212.983 91.5088 213.628 91.2547 214.29 91.0519C214.715 90.781 215.022 90.3595 215.15 89.8719C215.595 88.27 215.929 86.6395 216.15 84.9919V83.2419C216.159 83.1285 216.139 83.0147 216.09 82.9119C216.04 82.6519 215.77 82.5419 215.61 82.7519C215.556 82.7773 215.509 82.815 215.473 82.8619C215.436 82.9088 215.411 82.9636 215.4 83.0219C215.013 83.6009 214.678 84.2133 214.4 84.8519C213.59 86.4019 212.84 88.0719 212.04 89.5719C211.445 90.6529 210.908 91.7644 210.43 92.9019C209.62 94.8319 207.8 96.7619 207.1 98.9019C207.007 99.2862 206.801 99.6342 206.51 99.9019C206.24 100.012 206.13 100.432 206.13 100.762C206.134 101.141 206.08 101.519 205.97 101.882C205.892 102.078 205.784 102.26 205.65 102.422C205.422 102.704 205.224 103.009 205.06 103.332C204.486 104.643 204.125 106.037 203.99 107.462C203.966 108.113 203.893 108.762 203.77 109.402C203.763 109.611 203.7 109.814 203.588 109.99C203.475 110.166 203.317 110.308 203.13 110.402C202.826 110.586 202.598 110.873 202.49 111.212C202.43 111.212 202.27 111.482 202.22 111.482C202.17 111.482 202 111.852 201.89 112.012C201.03 112.182 200.5 111.532 200.17 110.512C199.874 109.463 199.713 108.381 199.69 107.292C199.597 104.746 199.724 102.196 200.07 99.6719C200.17 98.6719 200.39 97.5819 200.55 96.6119C200.768 94.9636 201.102 93.3329 201.55 91.7319C202.137 89.3719 202.78 87.0652 203.48 84.8119C203.64 84.2719 203.86 83.8119 204.02 83.1519C204.66 81.5419 205.2 79.8219 205.84 78.1519C206.153 77.2894 206.514 76.4447 206.92 75.6219C207.029 75.5214 207.172 75.4656 207.32 75.4656C207.468 75.4656 207.611 75.5214 207.72 75.6219L209.01 76.4319C209.874 77.5034 210.38 78.818 210.46 80.1919C210.563 81.0711 210.509 81.9616 210.3 82.8219C209.98 84.1019 209.6 85.5019 209.12 86.8219C208.8 87.6819 208.47 88.7519 208.12 89.7219C207.26 92.7219 208.98 92.3519 209.36 91.4419C209.52 91.0119 210.36 89.9319 210.48 89.4419L212.25 85.7919C212.485 85.1669 212.823 84.5856 213.25 84.0719C213.63 83.6419 214 83.0719 214.43 82.6819C214.739 82.3491 215.158 82.1395 215.61 82.0919H216.52C217.01 81.9819 217.44 82.4119 217.87 82.7819C218.02 82.9049 218.145 83.0567 218.236 83.2284C218.327 83.4001 218.383 83.5883 218.4 83.7819C218.479 84.2083 218.533 84.639 218.56 85.0719L218.78 86.6319L218.75 88.6019ZM212.47 92.8419C212.278 92.9674 212.126 93.1452 212.032 93.3543C211.938 93.5635 211.906 93.7951 211.94 94.0219C211.99 94.2919 212.15 94.5119 212.31 94.5119C212.47 94.5119 212.58 94.4019 212.69 94.2919C212.968 94.1333 213.207 93.9146 213.39 93.6519C213.98 92.8419 214.19 91.9819 214.03 92.3119C213.44 92.5719 212.96 92.4719 212.47 92.8419Z" fill="#2C3847"/>
<defs>
<filter id="filter0_d_2696_16246" x="0" y="0" width="324" height="197" filterUnits="userSpaceOnUse" color-interpolation-filters="sRGB">
<feFlood flood-opacity="0" result="BackgroundImageFix"/>
<feColorMatrix in="SourceAlpha" type="matrix" values="0 0 0 0 0 0 0 0 0 0 0 0 0 0 0 0 0 0 127 0" result="hardAlpha"/>
<feOffset dy="10"/>
<feGaussianBlur stdDeviation="15"/>
<feColorMatrix type="matrix" values="0 0 0 0 0.19 0 0 0 0 0.260533 0 0 0 0 0.343333 0 0 0 0.06 0"/>
<feBlend mode="normal" in2="BackgroundImageFix" result="effect1_dropShadow_2696_16246"/>
<feBlend mode="normal" in="SourceGraphic" in2="effect1_dropShadow_2696_16246" result="shape"/>
</filter>
</defs>
</svg>
