<svg width="324" height="197" viewBox="0 0 324 197" fill="none" xmlns="http://www.w3.org/2000/svg">
<g filter="url(#filter0_d_2696_16325)">
<rect x="30" y="20" width="264" height="137" fill="white"/>
</g>
<path d="M176.42 74.0707C176.444 72.6549 176.189 71.2483 175.67 69.9308C175.168 68.6749 174.44 67.5223 173.52 66.5308C173.589 66.1548 173.575 65.7683 173.478 65.3985C173.381 65.0287 173.204 64.6847 172.96 64.3907C172.023 63.1772 170.858 62.1582 169.53 61.3907C168.344 60.6321 166.911 60.3599 165.53 60.6307C165.148 60.372 164.726 60.1793 164.28 60.0608C163.925 59.9797 163.555 59.9797 163.2 60.0608C162.8 60.1408 162.4 60.2408 162 60.3408L161.15 60.5007H161.01C160.34 60.5007 159.65 60.5007 159.01 60.5007C158.675 60.5083 158.342 60.535 158.01 60.5807C157.605 60.6414 157.204 60.7282 156.81 60.8408H156.89L156.37 60.9008C155.501 61.0152 154.651 61.2403 153.84 61.5707C152.07 62.4707 150.15 63.5707 149.29 64.8807C148.79 65.7507 148.29 66.4807 147.88 67.2007L147.83 67.2708C147.717 67.3674 147.613 67.4746 147.52 67.5908C147.411 67.7282 147.32 67.8795 147.25 68.0407C147.329 67.8832 147.426 67.7355 147.54 67.6007L147.63 67.6707C147.54 67.8407 147.46 68.0207 147.38 68.2007C146.902 69.0554 146.378 69.8834 145.81 70.6808C146.11 71.2308 146.3 70.3507 146.55 69.6107C146.43 70.0007 146.34 70.4407 146.24 70.8907C146.14 71.3407 146.08 71.8008 146.01 72.2408C146.005 72.2906 146.005 72.3409 146.01 72.3907C146.01 72.0007 145.87 71.7208 146.16 71.3408C146.06 71.0908 145.94 71.1508 145.78 71.4008C145.65 72.2708 145.33 73.9208 145.68 74.0208C145.628 74.1882 145.558 74.3492 145.47 74.5007L145.76 74.9308C145.755 74.9973 145.755 75.0641 145.76 75.1307C145.76 75.0807 145.83 75.0208 145.87 74.9608C145.884 76.0293 146.155 77.0788 146.66 78.0208L146.94 78.1508C146.87 78.4908 146.72 78.0407 146.53 77.9807C146.74 78.7407 147.01 79.2807 147.34 79.3907C147.22 78.9807 147.09 78.5807 146.99 78.1707C147.076 78.1888 147.164 78.1888 147.25 78.1707C147.56 78.5107 147.84 78.7707 147.83 78.9207C147.95 79.4407 148.04 79.9207 148.12 80.3807C148.18 80.7607 148.25 81.1207 148.31 81.4707H148.21C147.99 80.9807 147.61 80.3108 147.53 80.0308C147.553 80.3664 147.596 80.7004 147.66 81.0308L147.98 81.2108C148.04 81.3508 148.04 81.4307 147.98 81.4807L147.89 81.5407C147.884 81.5805 147.884 81.6209 147.89 81.6607H148L148.28 81.9807C148.28 81.9807 148.28 81.9807 148.34 81.9807C148.314 82.6088 148.513 83.2255 148.9 83.7207C149.126 84.1847 149.404 84.6209 149.73 85.0208C149.992 85.2079 150.293 85.3343 150.61 85.3907L150.69 85.4507C150.88 85.5115 151.082 85.5286 151.28 85.5007C151.368 85.5277 151.462 85.5277 151.55 85.5007C151.381 84.9655 151.124 84.462 150.79 84.0107L150.91 84.1208V84.0308H150.83C150.553 83.6153 150.318 83.1731 150.13 82.7108C150.13 82.3508 150.13 82.1507 150.19 81.8207C150.19 81.2907 150.92 81.8207 151.19 81.9507C151.14 81.3849 150.998 80.8309 150.77 80.3108C151.204 80.8959 151.697 81.4354 152.24 81.9207L152.04 82.0908C152.57 82.4608 152.43 82.8407 153.04 83.1907C153.09 82.8207 152.79 82.5807 152.57 82.2607C154.155 83.5384 156.068 84.3426 158.09 84.5807L161.24 84.9507C161.751 85.007 162.266 85.0237 162.78 85.0007C162.268 85.2664 161.723 85.4648 161.16 85.5908C161.184 86.1818 161.367 86.7553 161.69 87.2507C162.005 87.6079 162.401 87.8849 162.844 88.0587C163.288 88.2326 163.766 88.2984 164.24 88.2507C164.671 88.2391 165.1 88.1821 165.52 88.0807C166.216 88.1226 166.914 88.0823 167.6 87.9608C167.77 87.8208 167.95 87.6708 168.15 87.5308C168.35 87.3908 168.55 87.2108 168.77 87.0508C169.2 86.7508 169.65 86.3908 170.09 86.0508L170.58 85.6508L170.88 85.5608C171.04 85.3208 171.32 85.0307 171.57 84.7307C171.84 84.4607 172.09 84.2007 172.3 83.9707C173.786 82.736 174.932 81.1424 175.63 79.3408C175.79 78.9008 175.92 78.4608 176.06 78.0208C176.2 77.5808 176.25 77.1107 176.33 76.6707C176.398 76.2201 176.441 75.7661 176.46 75.3108C176.43 74.7208 176.42 74.4907 176.42 74.0707ZM148.21 81.6407C148.215 81.6906 148.215 81.7409 148.21 81.7907C148.213 81.7408 148.213 81.6907 148.21 81.6407Z" fill="#FD8D55"/>
<path d="M160.49 88.6607C160.25 88.6607 159.87 88.5708 159.99 88.4008L159.62 88.5707L160.72 88.7307C160.53 88.5307 160.19 88.3707 160.24 88.1007L159.77 88.0107C160.061 88.1629 160.309 88.3866 160.49 88.6607Z" fill="#FD8D55"/>
<path d="M160.68 88.2203C160.89 88.0303 160.6 87.9103 160.22 87.8203C159.8 87.9403 160.81 87.8203 160.48 88.1203C160.61 88.1403 160.61 88.1503 160.68 88.2203Z" fill="#FD8D55"/>
<path d="M160.48 88.1211C160.397 88.1285 160.313 88.1285 160.23 88.1211L160.45 88.1711L160.48 88.1211Z" fill="#FD8D55"/>
<path d="M157.86 87.9512C157.86 88.0212 157.86 88.0812 158.03 88.1612C158.2 88.2412 157.96 88.0312 157.86 87.9512Z" fill="#FD8D55"/>
<path d="M157.49 87.2412C157.78 87.4012 157.93 87.5212 157.83 87.6912L157.59 87.6212C157.52 87.7212 157.71 87.8412 157.86 87.9512C157.81 87.7212 158.31 87.5712 157.49 87.2412Z" fill="#FD8D55"/>
<path d="M158.98 86.9912H158.8L159.87 87.5412C159.83 87.1512 159.35 87.3912 158.98 86.9912Z" fill="#FD8D55"/>
<path d="M146.71 80.5706V80.4706L146.61 80.3906L146.71 80.5706Z" fill="#FD8D55"/>
<path d="M146.33 79.1904C146.354 79.526 146.398 79.8598 146.46 80.1904L146.61 80.3904C146.42 79.7404 146.73 79.8504 146.33 79.1904Z" fill="#FD8D55"/>
<path d="M146.75 80.4706C147.002 80.7555 147.177 81.0995 147.26 81.4706C147.382 81.9184 147.616 82.3279 147.94 82.6606C147.622 81.8669 147.251 81.0952 146.83 80.3506L146.75 80.4706Z" fill="#FD8D55"/>
<path d="M114 116.501V94.3907H119.4V116.541L114 116.501Z" fill="#2C3847"/>
<path d="M124.96 114.261C123.381 112.442 122.512 110.114 122.512 107.706C122.512 105.297 123.381 102.97 124.96 101.151C125.793 100.334 126.784 99.6965 127.873 99.2769C128.962 98.8574 130.124 98.6647 131.29 98.7108C133.232 98.6522 135.143 99.2087 136.75 100.301C138.284 101.393 139.354 103.02 139.75 104.861H133.88C133.677 104.376 133.33 103.965 132.887 103.683C132.444 103.401 131.925 103.26 131.4 103.281C130.905 103.246 130.41 103.339 129.962 103.551C129.513 103.763 129.127 104.086 128.84 104.491C128.295 105.471 128.01 106.574 128.01 107.696C128.01 108.817 128.295 109.92 128.84 110.901C129.11 111.296 129.478 111.614 129.907 111.826C130.336 112.038 130.812 112.136 131.29 112.111C131.838 112.141 132.383 112.024 132.87 111.771C133.305 111.451 133.65 111.024 133.87 110.531H139.71C139.283 112.348 138.219 113.952 136.71 115.051C135.133 116.183 133.23 116.769 131.29 116.721C130.123 116.765 128.959 116.57 127.87 116.147C126.781 115.724 125.791 115.082 124.96 114.261Z" fill="#2C3847"/>
<path d="M143.83 114.231C142.942 113.389 142.245 112.368 141.784 111.235C141.324 110.101 141.111 108.883 141.16 107.661C141.109 106.449 141.32 105.241 141.777 104.118C142.234 102.994 142.927 101.983 143.81 101.151C145.629 99.572 147.956 98.7027 150.365 98.7027C152.773 98.7027 155.101 99.572 156.92 101.151C157.798 101.985 158.487 102.998 158.94 104.121C159.394 105.244 159.602 106.451 159.55 107.661C159.601 108.879 159.394 110.094 158.942 111.226C158.491 112.358 157.805 113.382 156.93 114.231C156.06 115.056 155.035 115.701 153.914 116.128C152.793 116.556 151.599 116.757 150.4 116.721C147.968 116.787 145.607 115.893 143.83 114.231ZM152.99 110.981C153.761 110.069 154.144 108.892 154.06 107.701C154.103 107.11 154.028 106.517 153.839 105.955C153.65 105.394 153.351 104.875 152.96 104.431C152.624 104.073 152.218 103.789 151.767 103.596C151.316 103.404 150.83 103.306 150.34 103.311C149.852 103.305 149.369 103.401 148.921 103.594C148.473 103.787 148.071 104.072 147.74 104.431C147.024 105.372 146.636 106.523 146.636 107.706C146.636 108.889 147.024 110.039 147.74 110.981C148.078 111.338 148.486 111.623 148.938 111.818C149.39 112.012 149.878 112.112 150.37 112.111C150.862 112.12 151.35 112.024 151.802 111.829C152.254 111.634 152.659 111.345 152.99 110.981Z" fill="#2C3847"/>
<path d="M168.1 98.8908V101.481C168.648 100.573 169.435 99.8347 170.375 99.346C171.316 98.8572 172.373 98.6374 173.43 98.7108C174.344 98.6746 175.255 98.8344 176.101 99.1793C176.948 99.5243 177.712 100.046 178.34 100.711C179.652 102.229 180.326 104.197 180.22 106.201V116.491H174.85V106.931C174.881 106.453 174.817 105.974 174.663 105.521C174.508 105.068 174.266 104.65 173.95 104.291C173.261 103.678 172.372 103.339 171.45 103.339C170.528 103.339 169.638 103.678 168.95 104.291C168.634 104.65 168.392 105.068 168.237 105.521C168.083 105.974 168.019 106.453 168.05 106.931V116.491H162.71V98.8908H168.1Z" fill="#2C3847"/>
<path d="M189.4 96.9107C188.877 97.4538 188.181 97.7979 187.431 97.884C186.682 97.9702 185.926 97.793 185.293 97.3829C184.66 96.9727 184.189 96.3552 183.962 95.6361C183.734 94.917 183.764 94.141 184.045 93.4414C184.327 92.7417 184.843 92.1618 185.506 91.801C186.168 91.4403 186.935 91.3212 187.676 91.4642C188.417 91.6072 189.084 92.0033 189.565 92.5846C190.046 93.166 190.309 93.8964 190.31 94.6507C190.325 95.0701 190.252 95.488 190.095 95.8772C189.938 96.2665 189.701 96.6186 189.4 96.9107ZM184.47 116.501V98.8907H189.87V116.501H184.47Z" fill="#2C3847"/>
<path d="M195.44 114.261C193.861 112.442 192.992 110.114 192.992 107.706C192.992 105.297 193.861 102.97 195.44 101.151C196.271 100.334 197.261 99.6969 198.348 99.2772C199.435 98.8576 200.596 98.6648 201.76 98.7107C203.702 98.6487 205.614 99.2055 207.22 100.301C208.754 101.393 209.824 103.02 210.22 104.861H204.39C204.188 104.375 203.842 103.964 203.398 103.681C202.955 103.398 202.435 103.259 201.91 103.281C201.417 103.247 200.923 103.34 200.477 103.552C200.03 103.764 199.645 104.087 199.36 104.491C198.809 105.469 198.519 106.573 198.519 107.696C198.519 108.819 198.809 109.922 199.36 110.901C199.627 111.296 199.993 111.616 200.42 111.828C200.848 112.04 201.323 112.137 201.8 112.111C202.348 112.141 202.893 112.024 203.38 111.771C203.819 111.455 204.164 111.027 204.38 110.531H210.21C209.781 112.347 208.717 113.95 207.21 115.051C205.628 116.179 203.723 116.765 201.78 116.721C200.611 116.769 199.444 116.575 198.354 116.152C197.263 115.728 196.271 115.085 195.44 114.261Z" fill="#2C3847"/>
<defs>
<filter id="filter0_d_2696_16325" x="0" y="0" width="324" height="197" filterUnits="userSpaceOnUse" color-interpolation-filters="sRGB">
<feFlood flood-opacity="0" result="BackgroundImageFix"/>
<feColorMatrix in="SourceAlpha" type="matrix" values="0 0 0 0 0 0 0 0 0 0 0 0 0 0 0 0 0 0 127 0" result="hardAlpha"/>
<feOffset dy="10"/>
<feGaussianBlur stdDeviation="15"/>
<feColorMatrix type="matrix" values="0 0 0 0 0.19 0 0 0 0 0.260533 0 0 0 0 0.343333 0 0 0 0.06 0"/>
<feBlend mode="normal" in2="BackgroundImageFix" result="effect1_dropShadow_2696_16325"/>
<feBlend mode="normal" in="SourceGraphic" in2="effect1_dropShadow_2696_16325" result="shape"/>
</filter>
</defs>
</svg>
