<svg width="324" height="197" viewBox="0 0 324 197" fill="none" xmlns="http://www.w3.org/2000/svg">
<g filter="url(#filter0_d_2696_16315)">
<rect x="30" y="20" width="264" height="137" fill="white"/>
</g>
<path d="M106.289 80.2497L106.529 80.1797H106.329L106.179 80.2597L106.289 80.2497Z" fill="#FD8D55"/>
<path d="M103.199 80.9602C102.906 80.8587 102.597 80.8145 102.289 80.8302L102.129 80.9003L102.659 81.0603C103.029 81.1703 103.229 81.0902 103.199 80.9602Z" fill="#FD8D55"/>
<path d="M102.129 80.9001L101.909 80.8301L102.059 80.9201H102.129V80.9001Z" fill="#FD8D55"/>
<path d="M174.529 79.1905C179.659 79.3905 184.809 79.5205 189.959 79.6205C190.129 79.6205 190.269 79.6204 190.279 79.5204C190.289 79.4204 190.159 79.4205 189.999 79.4205C184.849 79.3105 179.719 79.1805 174.599 78.9805C174.419 78.9805 174.279 78.9804 174.259 79.0804C174.239 79.1804 174.369 79.1805 174.529 79.1905Z" fill="#FD8D55"/>
<path d="M212.949 84.9205C212.829 84.9205 212.829 85.0205 212.949 85.0605C213.086 85.1005 213.231 85.1005 213.369 85.0605C213.479 85.0605 213.469 84.9505 213.369 84.9205C213.232 84.8755 213.085 84.8755 212.949 84.9205Z" fill="#FD8D55"/>
<path d="M216.149 87.4003C212.439 87.2403 208.709 87.0903 204.969 86.9703L205.749 86.8203L206.529 86.7703C208.939 86.7703 211.339 86.7203 213.749 86.6603C214.659 86.6603 215.399 86.4303 215.449 86.1203C215.499 85.8103 214.789 85.5603 213.929 85.5403L214.349 85.4803C214.489 85.4803 214.589 85.4103 214.549 85.3603C214.436 85.2969 214.307 85.269 214.179 85.2803L212.669 85.5003C208.089 85.3903 203.499 85.4303 198.909 85.5003C203.849 85.1269 208.849 84.8903 213.909 84.7903C213.809 84.7903 213.799 84.8903 213.909 84.9303C214.046 84.9703 214.191 84.9703 214.329 84.9303C214.449 84.9303 214.429 84.8203 214.329 84.7903C217.029 84.7403 219.749 84.7403 222.469 84.7903C222.629 84.7903 222.759 84.7903 222.759 84.6903C222.759 84.5903 222.609 84.5803 222.429 84.5803C213.429 84.4403 204.479 84.8403 195.749 85.5803H194.309C194.078 85.2939 193.769 85.0817 193.419 84.9703C196.512 84.8636 199.595 84.7403 202.669 84.6003L210.389 84.6603C210.759 84.6603 211.069 84.5603 211.079 84.4203C211.089 84.2803 210.779 84.2003 210.389 84.1903H208.499C209.019 84.0303 209.359 83.8003 209.399 83.5403C209.439 83.2803 209.169 83.0603 208.729 82.8903C211.519 82.6503 214.269 82.3903 216.969 82.0403C217.129 82.0403 217.209 81.9703 217.149 81.9103C217.036 81.8476 216.905 81.8263 216.779 81.8503C212.859 82.0003 208.999 82.2203 205.119 82.3903C202.059 82.0903 199.059 81.7603 195.759 81.6403C191.13 81.5502 186.5 81.7104 181.889 82.1203C180.269 82.0403 178.649 81.9703 177.039 81.9403C177.269 81.8203 177.399 81.6803 177.399 81.5203C177.406 81.484 177.406 81.4465 177.399 81.4103L181.679 81.4603C195.089 81.6003 207.679 80.5503 220.499 79.6803C221.319 79.6803 221.909 79.3903 221.809 79.1103C221.709 78.8303 220.959 78.6203 220.139 78.6603C213.989 78.6603 208.329 79.1403 202.139 79.6603C197.709 80.0003 193.819 80.2503 189.369 80.4903C184.159 80.7603 179.369 80.7003 174.209 80.7003C173.707 80.6454 173.203 80.6253 172.699 80.6403L171.159 80.6903C167.159 80.6903 163.239 80.4703 159.339 80.2803C164.009 80.1003 168.669 79.9003 173.259 79.5203C173.589 79.5203 173.809 79.4003 173.769 79.2903C173.729 79.1803 173.419 79.1003 173.089 79.1203C166.689 79.3503 160.259 79.4503 153.849 79.5603C152.099 78.5603 148.389 78.0203 145.079 77.9903C143.907 77.9811 142.737 78.0647 141.579 78.2403L143.169 78.3603C141.742 78.4102 140.322 78.591 138.929 78.9003H138.569C135.489 78.3603 131.889 78.4703 128.569 78.2303C128.639 78.3603 128.729 78.4803 128.799 78.6003C128.179 78.5103 127.799 78.2903 127.149 78.2203L127.709 78.4903C126.891 78.2862 126.051 78.1854 125.209 78.1903C122.821 77.542 120.37 77.1531 117.899 77.0303C117.443 76.8502 116.958 76.7553 116.469 76.7503C116.222 76.7257 115.977 76.6788 115.739 76.6103C113.853 75.9686 111.906 75.5229 109.929 75.2803L111.209 75.6303C110.549 75.5078 109.88 75.4409 109.209 75.4303L109.449 75.6403C107.23 75.123 104.908 75.2655 102.769 76.0503C101.259 76.8003 101.769 77.8203 103.969 78.3403L104.289 78.4203C103.355 78.4522 102.446 78.7243 101.649 79.2103C101.359 79.4403 101.649 79.7403 101.649 80.0103C101.559 80.4103 102.439 80.7603 103.649 80.7803C103.945 80.8011 104.242 80.8011 104.539 80.7803C105.889 80.9203 107.269 81.0403 108.539 81.2203C108.829 81.2605 109.124 81.1929 109.369 81.0303C109.479 80.9403 109.369 80.8303 109.099 80.7903C108.159 80.6103 107.249 80.4103 106.339 80.2103L106.109 80.2803L106.229 80.1903L105.979 80.1303L106.179 80.0803H106.379C106.509 80.0245 106.642 79.9777 106.779 79.9403C108.409 80.0803 110.029 80.2303 111.549 80.5003C111.639 80.5003 111.489 80.6903 111.659 80.7603L111.909 80.8503L111.039 80.7503L109.119 81.1603H109.019L108.579 81.2603H108.469H107.949C107.782 81.2363 107.612 81.2605 107.459 81.3303C107.384 81.2827 107.308 81.2393 107.229 81.2003L105.229 81.0303C105.219 81.0663 105.219 81.1042 105.229 81.1403C104.966 81.1593 104.702 81.1593 104.439 81.1403C104.059 81.1403 104.059 81.1403 103.099 81.0703L103.559 81.2503L103.159 81.1203L103.259 81.3303L103.079 81.1103L102.899 81.2703L102.099 80.7903L101.509 80.8903C101.445 80.9167 101.385 80.9502 101.329 80.9903C101.329 81.0503 101.329 81.0503 101.009 81.2503C100.997 81.2962 100.997 81.3443 101.009 81.3903C101.109 81.4603 101.109 81.4603 101.129 81.6503C101.214 81.702 101.305 81.7455 101.399 81.7803L102.169 81.9403L102.029 82.0403C101.919 82.3803 101.919 82.3803 102.639 83.1903C102.955 83.3551 103.291 83.4794 103.639 83.5603L105.249 83.7203L105.769 83.7903C105.931 83.874 106.088 83.9675 106.239 84.0703C106.083 84.0756 105.929 84.0991 105.779 84.1403C105.389 84.2503 105.329 84.4503 105.659 84.5803C105.229 85.1103 105.489 85.5803 106.029 86.0503C105.953 86.1214 105.893 86.2085 105.855 86.3054C105.817 86.4023 105.801 86.5064 105.809 86.6103C105.263 86.9524 104.843 87.4607 104.609 88.0603L104.529 88.5003C104.898 89.0065 105.438 89.3617 106.049 89.5003L106.289 89.6103L106.059 89.9703C107.059 90.9703 109.059 91.7503 110.329 92.6903L111.269 93.1803C112.206 93.6487 113.224 93.9338 114.269 94.0203L115.599 94.1603H116.449C115.029 94.6203 114.249 95.3003 114.509 96.0103C114.949 97.1903 118.119 98.0103 121.569 97.8603C130.789 97.8603 139.689 97.7403 149.109 97.2503C156.109 96.8903 162.419 96.4103 169.249 96.4103C175.799 95.9003 182.099 95.2403 188.479 94.4603C193.839 93.8003 197.939 92.4603 202.679 91.4603C202.819 91.4603 202.829 91.3703 202.759 91.3203C202.621 91.2803 202.476 91.2803 202.339 91.3203C194.809 92.1903 187.229 92.9503 179.169 93.1303C178.239 93.1303 177.329 93.1303 176.429 93.1303C176.322 93.1189 176.215 93.1189 176.109 93.1303L173.649 92.9703H174.509C175.069 92.9703 175.509 92.8303 175.599 92.6303C175.689 92.4303 175.519 92.4703 175.389 92.4003C177.479 92.1903 179.539 91.9203 181.579 91.6303C182.137 91.6153 182.693 91.5483 183.239 91.4303C185.599 91.5803 187.969 91.6803 190.349 91.8203L190.939 91.8803C191.589 91.9487 192.246 91.8381 192.839 91.5603C192.938 91.5207 193.02 91.446 193.069 91.3503C198.489 90.9403 203.979 90.6303 209.069 89.8603C209.329 89.8603 209.469 89.7303 209.429 89.6403C209.541 89.6597 209.656 89.6597 209.769 89.6403C210.426 89.4796 211.095 89.3659 211.769 89.3003C211.919 89.3003 212.009 89.2103 211.939 89.1703C211.817 89.1012 211.675 89.0797 211.539 89.1103C210.809 89.2003 210.089 89.3103 209.429 89.4603C209.359 89.4603 209.309 89.4603 209.299 89.5303C209.101 89.4704 208.893 89.4534 208.689 89.4803C203.409 89.7403 198.289 90.3203 192.959 90.4803C195.569 90.1203 198.239 89.8703 201.039 89.6103C204.429 89.2803 207.549 88.8203 210.959 88.6103C211.139 88.6103 211.259 88.6103 211.239 88.5003C211.219 88.3903 211.069 88.4003 210.899 88.4103C203.899 88.6903 197.769 90.0303 190.539 90.0303H189.689L196.289 88.6103C202.939 88.4103 209.559 88.1103 216.099 87.6803C216.419 87.6803 216.669 87.5803 216.669 87.4703C216.669 87.3603 216.469 87.3903 216.149 87.4003ZM104.899 82.4603C104.992 82.4952 105.083 82.5387 105.169 82.5903L104.899 82.4603ZM120.999 82.2203C119.679 82.1403 118.329 82.0803 116.949 82.0503C116.448 82.0397 115.947 82.0597 115.449 82.1103C114.856 81.7807 114.233 81.5095 113.589 81.3003C114.829 81.4703 116.239 81.5403 117.589 81.6603C118.939 81.7803 120.439 81.9203 121.859 82.0303H121.359C121.149 82.0903 120.829 82.0303 120.999 82.2203ZM123.949 79.2203L124.719 79.5403H124.609L123.609 79.4003L123.799 79.4903L119.909 79.2403C117.958 78.9386 115.991 78.7483 114.019 78.6703C114.609 78.5503 115.159 78.4203 115.679 78.2703C118.259 78.5903 120.729 79.0003 123.429 79.1203L123.949 79.2203ZM110.949 84.6103L110.579 84.3603L110.949 84.6103ZM106.529 89.4803L106.469 89.4303L107.259 88.3103L106.529 89.4803Z" fill="#FD8D55"/>
<path d="M121.439 96.29C121.439 96.18 121.239 96.02 121.179 95.91C121.119 95.8 121.399 95.68 121.449 95.57C121.519 95.23 121.529 94.86 121.599 94.52C121.599 94.37 121.599 94.26 121.649 94.11C121.884 93.6725 121.982 93.174 121.929 92.68C121.929 92.61 122.069 92.42 122.089 92.27C122.109 92.12 122.219 92.08 122.189 92.01C122.159 91.94 122.189 91.67 122.409 91.41C122.512 91.2313 122.599 91.0439 122.669 90.85C122.989 90.03 123.189 89.2 123.509 88.42C123.329 86.98 126.999 82.11 124.219 82.82C124.037 82.9284 123.837 83.003 123.629 83.04C120.709 84.27 120.959 84.09 119.899 86.71C119.814 87.075 119.71 87.4355 119.589 87.79C119.554 87.9556 119.511 88.1192 119.459 88.28C119.003 89.5809 118.428 90.8363 117.739 92.03C117.659 92.03 117.649 92.1 117.609 92.18C116.789 93.07 116.899 93.03 115.959 92.98C115.809 92.98 115.659 92.9 115.539 92.98C115.109 93.05 114.909 92.82 114.899 92.56C114.904 92.1642 114.961 91.7709 115.069 91.39C115.609 89.67 116.309 87.87 117.069 86.12C117.829 84.37 116.149 85.5 116.199 84.07C116.139 83.8371 116.139 83.5929 116.199 83.36C116.359 82.91 116.409 82.5 116.569 82.08C116.729 81.66 116.709 81.56 116.569 81.44C116.889 80.92 117.169 80.44 117.499 79.88C118.009 80.11 118.609 79.88 119.379 79.76C119.659 79.6583 119.914 79.495 120.123 79.2822C120.333 79.0694 120.492 78.8123 120.589 78.53C121.186 77.1416 121.895 75.8039 122.709 74.53C123.279 73.53 124.049 72.48 124.709 71.43C124.77 71.3194 124.866 71.2316 124.981 71.1794C125.096 71.1271 125.225 71.1133 125.349 71.14L126.169 71.27C126.539 71.39 126.549 71.61 126.399 71.95C126.099 72.55 125.739 73.07 125.529 73.59C125.319 74.11 124.939 74.71 124.649 75.27C122.049 78.77 124.429 78.58 127.399 77.57C127.499 77.38 127.619 77.31 127.669 77.16C128.139 76.08 128.509 75.44 129.099 74.32C129.271 74.0025 129.409 73.6672 129.509 73.32C129.654 72.8286 129.899 72.3725 130.229 71.98C130.431 71.6763 130.573 71.3369 130.649 70.98C130.742 70.6525 130.88 70.3395 131.059 70.05C131.509 69.38 132.059 68.71 132.469 68H134.029C134.756 68.0016 135.47 68.1948 136.099 68.56C136.365 68.6861 136.572 68.9115 136.675 69.188C136.778 69.4646 136.768 69.7703 136.649 70.04C136.474 70.5019 136.246 70.9416 135.969 71.35C135.106 72.7211 134.347 74.1551 133.699 75.64C132.899 77.28 134.899 76.75 135.919 76.54C136.109 76.54 136.339 76.47 136.389 76.7C135.659 76.8 134.839 76.97 134.179 77.11C133.831 77.172 133.495 77.2831 133.179 77.44C132.777 77.6491 132.475 78.0087 132.339 78.44C132.529 78.44 132.829 78.44 133.059 78.49C133.208 78.4844 133.355 78.4469 133.489 78.38C133.941 78.3036 134.402 78.2868 134.859 78.33C135.154 78.3637 135.453 78.3399 135.739 78.26C136.049 78.26 136.319 78.26 136.659 78.26C136.562 78.0913 136.482 77.9138 136.419 77.73C136.45 77.481 136.528 77.2401 136.649 77.02H136.909L136.999 76.95C136.876 76.8064 136.765 76.6525 136.669 76.49C136.917 76.5607 137.141 76.6976 137.317 76.8861C137.493 77.0747 137.615 77.3076 137.669 77.56V77.49C137.626 77.5294 137.575 77.5588 137.52 77.5761C137.465 77.5934 137.406 77.5982 137.349 77.59C137.019 78.19 137.479 78.2 137.969 78.21C137.389 78.61 137.079 78.34 136.659 78.37C136.909 78.53 137.049 78.64 137.259 78.8C136.979 78.87 136.679 78.8 136.479 79.24C136.669 79.24 136.899 79.24 137.199 79.32C136.919 79.39 136.719 79.5 136.559 79.54C136.457 79.5514 136.359 79.5829 136.27 79.6327C136.18 79.6825 136.102 79.7496 136.039 79.83C136.201 79.8605 136.361 79.9006 136.519 79.95C135.558 80.1875 134.61 80.4745 133.679 80.81C133.049 80.99 132.349 81.17 131.679 81.38C131.438 81.4404 131.214 81.5557 131.025 81.7171C130.835 81.8784 130.686 82.0814 130.589 82.31C130.255 82.9431 129.999 83.6148 129.829 84.31C129.681 84.8092 129.497 85.2972 129.279 85.77C128.919 86.59 128.789 87.42 128.479 88.2C128.169 88.98 127.999 89.7 127.689 90.45C127.689 90.53 127.559 90.6 127.469 90.71C127.379 90.82 127.369 90.9 127.409 90.93C127.46 91.5331 127.324 92.1372 127.019 92.66C127.019 92.77 126.959 92.89 126.949 92.96C126.904 93.5005 126.714 94.0189 126.399 94.46C126.339 94.68 125.969 94.9 125.709 95.16C125.539 95.1586 125.371 95.1822 125.209 95.23C125.106 95.2139 125.001 95.2139 124.899 95.23C124.359 95.68 123.799 95.55 123.249 96C123.049 96.11 123.159 95.81 122.999 95.92C122.839 96.03 122.779 96.14 122.739 96.14C122.699 96.14 122.519 96.06 122.379 96.02L122.039 96.32C121.589 96.67 121.559 96.63 121.439 96.29ZM118.969 80.1C118.499 80.21 118.369 80.36 118.129 80.85C118.319 80.85 118.539 80.93 118.769 80.93C118.999 80.93 119.009 81.08 119.069 81.27C118.709 81.42 118.369 81.41 118.019 81.78C118.428 81.7319 118.832 81.6516 119.229 81.54C119.519 81.02 119.759 80.54 120.059 79.93C119.702 80.0226 119.337 80.0795 118.969 80.1ZM123.569 79.1C123.339 79.1 123.139 79.21 123.119 79.43C123.229 79.43 123.299 79.43 123.339 79.43C123.979 79.17 124.509 78.92 125.099 78.7C125.352 78.6852 125.606 78.6852 125.859 78.7C125.859 78.7 125.949 78.59 125.959 78.55C125.649 78.55 125.369 78.7 125.099 78.73L123.569 79.1ZM123.979 79.86C123.734 79.8988 123.495 79.9694 123.269 80.07C123.392 80.1182 123.527 80.1257 123.655 80.0916C123.783 80.0574 123.896 79.9832 123.979 79.88V79.86ZM126.469 79.75C126.02 79.7321 125.572 79.8 125.149 79.95C124.876 80.0652 124.584 80.1263 124.289 80.13C124.017 80.1238 123.752 80.2122 123.539 80.38C124.585 80.3463 125.624 80.1988 126.639 79.94L126.469 79.75ZM126.359 80.35C126.196 80.2655 126.011 80.2363 125.83 80.267C125.65 80.2977 125.484 80.3865 125.359 80.52C125.819 80.47 126.029 80.62 126.369 80.37L126.359 80.35Z" fill="#2C3847"/>
<path d="M138.129 81.34C138.219 81.2309 138.332 81.1423 138.459 81.08C138.889 81.01 139.909 80.35 140.269 80.58C140.457 80.7564 140.654 80.9233 140.859 81.08C140.931 81.2065 140.968 81.3495 140.968 81.495C140.968 81.6405 140.931 81.7835 140.859 81.91C140.579 82.39 140.259 82.84 139.859 83.43C139.759 83.66 139.659 83.85 139.609 84C139.419 84.33 139.209 84.78 138.979 85.12C138.749 85.46 139.629 84.12 139.509 84.52C139.481 84.6298 139.43 84.7323 139.359 84.82C139.093 85.1964 138.925 85.6327 138.869 86.09C138.869 86.47 138.459 88.38 138.459 88.72C138.483 88.9289 138.566 89.1266 138.699 89.29C138.87 89.4084 139.05 89.5121 139.239 89.6C139.409 89.75 139.609 89.68 139.839 89.6C143.119 88.53 142.029 88.09 144.069 86.21C144.515 85.7577 144.892 85.2422 145.189 84.68C145.189 84.68 145.189 84.68 145.329 84.46C145.479 84.83 144.999 85.35 145.519 85.46C144.519 86.87 143.759 88.93 142.379 89.66C141.949 90.14 139.109 92.36 137.509 91.66C136.959 91.84 136.509 91.31 135.979 91.08C135.584 90.8786 135.241 90.5875 134.979 90.23C134.822 89.7461 134.751 89.2384 134.769 88.73C134.734 88.5047 134.734 88.2753 134.769 88.05C134.939 87.6 134.959 86.73 135.139 86.43C135.221 86.2401 135.285 86.0425 135.329 85.84C135.409 85.84 135.329 85.61 135.619 85.58C135.619 85.58 135.719 85.43 135.759 85.39C135.979 85.13 136.039 84.9 136.259 84.65C136.259 84.65 135.369 85.42 135.909 84.65C136.449 83.88 137.079 83.08 137.369 82.56C137.388 82.4951 137.418 82.4342 137.459 82.38C137.599 82.15 137.729 82 137.689 81.74C137.681 81.5488 137.741 81.361 137.859 81.21C137.884 81.2579 137.923 81.2965 137.972 81.32C138.021 81.3434 138.076 81.3504 138.129 81.34ZM142.079 77.29C141.983 77.3872 141.908 77.5029 141.859 77.63C141.848 77.6999 141.812 77.7637 141.759 77.81C141.629 77.93 141.499 78.08 141.329 78.26C141.155 78.4091 140.944 78.5092 140.719 78.55C140.649 78.55 140.529 78.55 140.439 78.66C140.362 78.7161 140.269 78.7463 140.174 78.7463C140.078 78.7463 139.986 78.7161 139.909 78.66C139.823 78.596 139.715 78.5674 139.609 78.58C139.473 78.5997 139.335 78.5997 139.199 78.58L139.329 78.43C139.366 78.2971 139.42 78.1694 139.489 78.05C139.58 77.8803 139.687 77.7197 139.809 77.57C139.809 77.49 139.939 77.42 139.939 77.38C139.939 77.16 140.179 76.97 140.319 76.75L140.589 76.42C140.648 76.3424 140.733 76.2891 140.829 76.27C140.909 76.27 140.989 76.27 141.019 76.27C141.049 76.27 141.089 76.35 141.169 76.27C141.249 76.19 141.289 76.2 141.319 76.27C141.472 76.3411 141.633 76.3948 141.799 76.43C142.057 76.5523 142.26 76.7662 142.369 77.03C142.219 77.11 142.169 77.22 142.079 77.29Z" fill="#2C3847"/>
<path d="M156.849 86.03C156.779 86.97 157.119 86.64 158.549 86.43C159.269 86.3274 159.941 86.0103 160.479 85.52C160.859 85.19 161.229 85.61 161.399 85.8C161.211 86.1584 160.983 86.4939 160.719 86.8C159.575 87.4302 158.295 87.7734 156.989 87.8C155.989 88.01 155.879 88.5 155.449 89.24L155.269 89.54C155.085 89.9421 154.85 90.3186 154.569 90.66C154.498 90.7468 154.414 90.8211 154.319 90.88L153.889 91.33C153.693 91.6193 153.445 91.8701 153.159 92.07L152.859 92.37L152.439 92.7C152.329 92.7397 152.209 92.7397 152.099 92.7C151.986 92.6128 151.865 92.5358 151.739 92.47C151.724 92.3605 151.724 92.2494 151.739 92.14C151.739 91.8 151.619 91.49 151.289 91.45C151.156 91.3576 151.041 91.2424 150.949 91.11C150.857 90.9321 150.714 90.7858 150.539 90.69C150.378 90.5075 150.29 90.2729 150.29 90.03C150.29 89.7871 150.378 89.5525 150.539 89.37C150.688 89.0897 150.913 88.8574 151.189 88.7C151.44 88.5206 151.712 88.3728 151.999 88.26C152.459 88.0593 152.934 87.8922 153.419 87.76C153.739 87.5727 153.989 87.2843 154.129 86.94C154.554 85.8262 154.912 84.6874 155.199 83.53L155.339 82.25C155.359 82.178 155.359 82.1019 155.339 82.03C155.339 81.84 155.139 81.76 155.009 81.91C154.968 81.9272 154.932 81.9532 154.902 81.986C154.873 82.0189 154.851 82.0578 154.839 82.1C154.511 82.4923 154.219 82.9141 153.969 83.36C153.279 84.44 152.609 85.6 151.919 86.64C151.419 87.43 150.919 88.13 150.519 88.96C149.799 90.3 148.349 91.63 147.699 93.09C147.593 93.3532 147.421 93.5842 147.199 93.76C146.999 93.83 146.889 94.13 146.869 94.36C146.841 94.6296 146.77 94.8931 146.659 95.14C146.586 95.2779 146.495 95.4057 146.389 95.52C146.208 95.716 146.044 95.9267 145.899 96.15C145.407 97.0533 145.05 98.0236 144.839 99.03C144.773 99.4879 144.67 99.9395 144.529 100.38C144.506 100.533 144.446 100.678 144.354 100.802C144.261 100.926 144.139 101.025 143.999 101.09C143.767 101.207 143.583 101.402 143.479 101.64C143.479 101.64 143.299 101.83 143.259 101.83C143.219 101.83 143.079 102.09 142.989 102.2C142.369 102.3 141.989 101.85 141.889 101.13C141.764 100.383 141.734 99.6241 141.799 98.87C141.942 97.0725 142.233 95.2898 142.669 93.54C142.829 92.83 143.059 92.08 143.259 91.4C143.554 90.2535 143.925 89.1278 144.369 88.03C144.982 86.3766 145.622 84.7666 146.289 83.2C146.449 82.83 146.639 82.49 146.799 82.04C147.379 80.92 147.899 79.72 148.489 78.57C148.791 77.966 149.124 77.3785 149.489 76.81C149.566 76.7383 149.668 76.6985 149.774 76.6985C149.879 76.6985 149.981 76.7383 150.059 76.81L150.899 77.39C151.427 78.165 151.684 79.0934 151.629 80.03C151.63 80.6581 151.518 81.2814 151.299 81.87C150.969 82.77 150.599 83.74 150.149 84.68C149.849 85.27 149.539 86.02 149.239 86.68C148.389 88.78 149.639 88.54 149.969 87.9C150.119 87.6 150.779 86.9 150.969 86.48L152.439 84.03C152.645 83.591 152.922 83.189 153.259 82.84C153.559 82.54 153.859 82.17 154.199 81.84C154.443 81.6185 154.751 81.4787 155.079 81.44H155.729C156.079 81.37 156.349 81.68 156.619 81.94C156.719 82.0298 156.799 82.1411 156.851 82.2658C156.903 82.3904 156.926 82.5251 156.919 82.66C156.938 82.963 156.938 83.267 156.919 83.57V84.66L156.849 86.03ZM152.069 88.93C151.922 89.01 151.799 89.1287 151.715 89.2732C151.63 89.4177 151.586 89.5826 151.589 89.75C151.589 89.94 151.709 90.09 151.819 90.09C151.929 90.09 152.019 90.02 152.099 89.95C152.313 89.8431 152.501 89.6893 152.649 89.5C153.129 88.95 153.349 88.35 153.209 88.57C152.769 88.78 152.439 88.7 152.069 88.96V88.93Z" fill="#2C3847"/>
<path d="M161.109 97.49C160.959 97.49 160.959 97.49 160.589 97.71C160.589 97.71 160.589 97.63 160.589 97.6C160.589 97.57 160.519 97.6 160.489 97.48C160.409 97.56 160.289 97.55 160.239 97.67C160.041 97.7883 159.824 97.8728 159.599 97.92C159.519 97.92 159.519 97.92 159.339 97.92C159.339 97.84 159.339 97.81 159.439 97.73C159.329 97.73 159.239 97.8 159.129 97.8C159.108 97.8342 159.078 97.8623 159.043 97.8816C159.008 97.9009 158.969 97.9107 158.929 97.91C158.599 98.09 158.459 98.02 158.339 97.72C158.326 97.5028 158.257 97.2927 158.139 97.11C157.978 96.7665 157.902 96.3891 157.919 96.01C157.95 95.8058 158.011 95.6072 158.099 95.42C158.288 94.9285 158.558 94.4721 158.899 94.07C159.565 93.2566 160.312 92.5128 161.129 91.85C162.719 90.55 162.539 90.18 162.209 89.04C162.069 88.2783 161.819 87.5407 161.469 86.85C161.469 86.7 161.349 86.58 161.329 86.43C160.929 85.1613 160.72 83.8402 160.709 82.51C160.789 82.43 160.759 82.36 160.849 82.21C160.85 81.9574 160.946 81.7144 161.119 81.53C161.119 81.42 161.309 81.2 161.219 81.01C161.349 80.82 161.419 80.56 161.549 80.37C161.656 80.2028 161.753 80.0291 161.839 79.85C161.917 79.7307 162.007 79.6201 162.109 79.52L162.529 78.85C162.709 78.55 162.969 78.33 163.149 78.07C163.149 77.99 163.229 77.99 163.309 77.96C163.416 77.8973 163.506 77.8077 163.569 77.7C163.699 77.55 163.789 77.47 163.849 77.55C164.094 77.6533 164.313 77.8105 164.489 78.01C164.511 78.0024 164.536 78.0024 164.559 78.01C164.999 78.5899 165.263 79.2842 165.319 80.01C165.319 80.13 165.319 80.24 165.319 80.31C165.306 80.5443 165.252 80.7745 165.159 80.99C165.063 81.3387 164.925 81.6745 164.749 81.99C164.659 82.14 164.609 82.25 164.449 82.29C164.308 82.388 164.189 82.514 164.099 82.66C164.099 82.77 163.889 82.88 163.909 83.07C163.903 83.113 163.882 83.1523 163.849 83.18C163.715 83.3732 163.591 83.5735 163.479 83.78C163.289 84.203 163.223 84.6711 163.289 85.13C163.368 85.3152 163.479 85.4846 163.619 85.63C164.059 86.05 164.319 87.48 164.689 87.9C164.859 88.05 164.819 88.47 164.949 88.62C165.199 89.45 166.529 88.46 167.549 88.21C168.169 87.8 168.779 87.4 169.399 86.96C169.849 86.66 170.309 86.33 170.729 85.96C171.014 85.7345 171.282 85.4871 171.529 85.22C171.749 85.03 171.959 84.81 172.179 84.59C172.224 84.7107 172.261 84.8343 172.289 84.96C172.326 85.0746 172.334 85.1964 172.313 85.3149C172.292 85.4334 172.243 85.545 172.169 85.64C172.107 85.7336 172.057 85.8344 172.019 85.94C171.916 86.1967 171.774 86.4362 171.599 86.65C171.389 86.87 171.239 87.17 171.019 87.39C170.799 87.61 170.649 87.69 170.479 87.84L169.599 88.5L169.429 88.65C168.989 88.87 168.569 89.24 168.119 89.53C167.972 89.6494 167.819 89.7596 167.659 89.86C166.839 90.42 165.659 90.4 165.579 91.41C165.688 91.9225 165.602 92.4572 165.339 92.91C165.339 93.03 165.279 93.1 165.339 93.21C165.399 93.32 165.339 93.36 165.339 93.36C165.159 93.59 165.189 94 165.089 94.23C165.033 94.3053 164.962 94.3669 164.879 94.41C164.879 94.41 164.799 94.41 164.759 94.48C164.559 94.7011 164.379 94.9386 164.219 95.19C163.702 95.8234 163.126 96.406 162.499 96.93C162.392 97.0626 162.275 97.1863 162.149 97.3C161.933 97.5086 161.668 97.6599 161.379 97.74C161.379 97.74 161.299 97.74 161.299 97.82C161.094 98.0351 160.823 98.1758 160.529 98.22C160.449 98.22 160.439 98.3 160.359 98.33C160.589 98.03 160.849 97.79 161.109 97.49ZM159.979 94.35C159.704 94.4485 159.479 94.6491 159.349 94.91C159.24 95.1007 159.089 95.2647 158.909 95.39C158.733 95.5172 158.586 95.6809 158.479 95.87C158.432 96.0738 158.372 96.2742 158.299 96.47C158.243 96.5394 158.212 96.6259 158.212 96.715C158.212 96.8042 158.243 96.8906 158.299 96.96C158.429 97.15 158.559 97.3 158.689 97.49C158.745 97.545 158.82 97.5758 158.899 97.5758C158.977 97.5758 159.053 97.545 159.109 97.49C159.279 97.38 159.409 97.27 159.609 97.12C159.809 96.97 159.949 96.79 160.119 96.64C160.521 96.3836 160.862 96.0423 161.119 95.64C161.193 95.5615 161.256 95.4742 161.309 95.38C161.529 95.0669 161.717 94.7318 161.869 94.38C162.032 94.0248 162.175 93.6609 162.299 93.29C162.299 93.29 162.299 93.22 162.299 93.18C162.439 91.98 160.869 93.69 160.369 94.18C160.252 94.264 160.119 94.322 159.979 94.35Z" fill="#2C3847"/>
<path d="M183.579 85.18C183.579 85.41 183.439 85.41 183.459 85.6C183.303 86.081 183.095 86.5437 182.839 86.98C182.549 87.58 182.219 88.17 181.919 88.77C181.619 89.37 181.089 90.04 180.679 90.67C180.499 90.93 178.459 93.16 178.249 93.31C177.719 93.64 176.769 94.6 176.249 94.9C175.677 95.1623 175.081 95.3667 174.469 95.51C173.975 95.5662 173.476 95.5459 172.989 95.45C172.517 95.2632 172.087 94.985 171.723 94.6315C171.359 94.278 171.069 93.8561 170.869 93.3899C170.686 93.0761 170.545 92.74 170.449 92.3899C170.354 91.7815 170.32 91.1651 170.349 90.5499C170.709 87.3899 171.139 86.95 172.349 83.92C172.449 83.66 172.519 83.43 172.619 83.17C172.702 82.9122 172.806 82.6614 172.929 82.42C173.099 82.01 173.259 81.6 173.409 81.22C173.699 80.4 174.839 78.99 173.949 78.79C173.689 78.74 173.459 78.79 173.249 78.59C173.039 78.39 172.829 78.32 172.619 78.16C172.565 78.1202 172.52 78.0692 172.487 78.0106C172.454 77.9519 172.434 77.8869 172.429 77.82C172.493 77.7896 172.56 77.7661 172.629 77.75L174.219 77.43C174.589 77.3652 174.963 77.3218 175.339 77.2999C175.425 77.2876 175.507 77.2549 175.579 77.2045C175.65 77.1541 175.708 77.0874 175.749 77.01C175.932 76.7212 176.096 76.4205 176.239 76.1099C176.699 75.3999 177.049 74.65 177.539 73.98C177.954 73.4073 178.434 72.8839 178.969 72.42C179.061 72.3156 179.161 72.2186 179.269 72.13C179.338 72.0705 179.42 72.0271 179.508 72.0029C179.596 71.9787 179.689 71.9742 179.779 71.99C180.021 72.0239 180.267 72.0239 180.509 71.99C180.509 71.99 180.509 71.99 180.589 71.99C181.129 71.89 181.299 72.12 181.399 72.53C181.544 72.9157 181.589 73.3321 181.529 73.74C181.513 73.9397 181.513 74.1402 181.529 74.34C181.546 74.5189 181.526 74.6995 181.469 74.87C181.409 75.05 181.349 75.24 181.289 75.47L180.959 76.3599C180.956 76.4636 180.932 76.5656 180.889 76.66C181 76.728 181.129 76.7595 181.259 76.75L182.679 76.65H184.679C184.917 76.6814 185.154 76.7248 185.389 76.78C185.299 76.89 185.259 76.96 185.219 77C185.13 77.072 185.033 77.1325 184.929 77.18L184.049 77.5499C183.606 77.6526 183.153 77.7096 182.699 77.72C182.426 77.7187 182.153 77.7523 181.889 77.82C181.723 77.8756 181.552 77.9125 181.379 77.93L180.489 78.03C180.416 78.0513 180.349 78.0883 180.292 78.1384C180.235 78.1885 180.189 78.2505 180.159 78.32C180.159 78.32 180.159 78.4 180.069 78.44C179.469 79.71 178.719 80.9 178.069 82.13C177.979 82.28 177.879 82.43 177.829 82.54C177.6 82.8939 177.406 83.269 177.249 83.66C177.085 84.014 176.884 84.3493 176.649 84.66C176.459 84.92 176.459 85.26 176.239 85.52C175.499 87.1729 175.02 88.9304 174.819 90.73C174.802 91.3121 174.863 91.8938 174.999 92.46C175.075 92.6251 175.173 92.7797 175.289 92.92C175.289 92.92 175.359 92.92 175.439 92.92C175.909 92.9738 176.385 92.9155 176.829 92.75C177.069 92.61 178.309 91.75 178.559 91.54C179.498 90.7402 180.353 89.8455 181.109 88.87C181.529 88.23 181.809 87.41 182.219 86.81C182.409 86.44 182.889 85.62 183.119 85.21C183.369 85.22 183.629 85.03 183.579 85.18ZM178.369 79.54C178.859 78.6 179.059 77.85 177.709 78.62C177.159 79.86 176.909 80.72 176.429 81.88C175.239 84.98 176.719 82.67 177.429 81.29C177.707 80.6883 178.02 80.1039 178.369 79.54ZM180.039 75.23L180.209 74.71C180.279 74.41 180.389 74.11 180.459 73.81C180.523 73.4808 180.55 73.1453 180.539 72.81C180.539 72.66 180.409 72.62 180.329 72.7C180.165 72.7822 180.029 72.9109 179.939 73.07C179.742 73.3859 179.578 73.7209 179.449 74.07C179.449 74.18 179.309 74.29 179.259 74.41C179.209 74.53 179.079 74.6999 178.979 74.8899C178.859 75.2599 178.739 75.68 178.579 76.09C178.309 77.09 179.369 77.09 179.679 76.44C179.749 76.03 179.869 75.64 179.989 75.23H180.039Z" fill="#2C3847"/>
<path d="M187.019 85.35C187.019 85.42 186.929 85.5 186.849 85.53C186.769 85.56 186.729 85.61 186.719 85.72C186.709 85.83 186.619 85.91 186.499 85.94C186.379 85.97 186.419 86.02 186.349 86.24C186.429 86.24 186.469 86.24 186.499 86.24H186.229C186.266 86.1437 186.289 86.0428 186.299 85.94H186.229L186.019 86.72C186.099 86.72 186.129 86.8 186.169 86.8C186.189 87.0496 186.189 87.3004 186.169 87.55C186.146 87.7798 186.174 88.0117 186.249 88.23C186.339 88.38 186.549 89.23 186.649 89.37C187.119 89.9 187.649 90.59 188.299 90.63C188.802 90.6103 189.303 90.5569 189.799 90.47C190.794 90.1789 191.734 89.7226 192.579 89.12C193.279 88.64 193.949 88.12 194.649 87.57L194.779 87.46L195.549 86.71C196.013 86.3157 196.444 85.8843 196.839 85.42C196.948 85.2168 197.125 85.0578 197.339 84.97C197.244 85.2999 197.106 85.6159 196.929 85.91C196.873 86.0217 196.798 86.1231 196.709 86.21C196.459 86.4435 196.238 86.7053 196.049 86.99C195.919 87.13 195.749 87.28 195.619 87.43L195.439 87.65L195.759 87.55C195.699 87.77 195.499 87.81 195.439 87.99C195.379 88.17 195.439 88.07 195.539 88.11C195.414 88.2735 195.269 88.4212 195.109 88.55C194.856 88.7414 194.619 88.952 194.399 89.18C194.019 89.5453 193.611 89.8797 193.179 90.18C192.997 90.3322 192.803 90.4693 192.599 90.59C192.439 90.7 192.279 90.77 192.109 90.88C191.861 90.9874 191.62 91.111 191.389 91.25C190.993 91.4732 190.564 91.6319 190.119 91.72L189.759 91.82C189.307 91.9603 188.841 92.0442 188.369 92.07C187.279 92.0094 186.201 91.8146 185.159 91.49C183.889 90.94 183.699 90.3 183.159 89.77C182.941 89.5478 182.785 89.2718 182.709 88.97C182.6 88.4507 182.573 87.9176 182.629 87.39C182.781 86.2102 183.179 85.0755 183.799 84.06C183.86 83.9799 183.904 83.8878 183.928 83.7897C183.953 83.6916 183.956 83.5895 183.939 83.49C183.752 83.5685 183.602 83.7151 183.519 83.9C183.359 84.2496 183.168 84.5843 182.949 84.9C183.011 84.6047 183.133 84.3255 183.309 84.08C183.678 83.41 184.106 82.7741 184.589 82.18C185.067 81.5607 185.602 80.9881 186.189 80.47C186.758 79.9351 187.385 79.4656 188.059 79.07C188.195 79.0176 188.329 78.9575 188.459 78.89C188.659 78.81 188.849 78.78 188.949 78.97C189.049 79.16 189.199 79.05 189.269 79.13C189.339 79.21 189.399 79.35 189.469 79.43C189.819 79.62 191.229 80.02 191.539 80.25C191.648 80.3519 191.725 80.4843 191.759 80.63C191.873 80.9734 192.046 81.2947 192.269 81.58C192.325 81.6858 192.363 81.801 192.379 81.92C192.426 82.3756 192.375 82.8361 192.229 83.27C192.072 83.7972 191.821 84.2918 191.489 84.73C191.299 84.9768 191.129 85.2375 190.979 85.51C190.855 85.777 190.701 86.0287 190.519 86.26C190.349 86.533 190.08 86.73 189.769 86.81C189.541 86.9148 189.287 86.9496 189.039 86.91C188.929 86.91 188.809 86.91 188.749 86.76C188.439 86.76 188.289 86.45 188.069 86.34C188.035 86.2825 188.017 86.2168 188.019 86.15C188.109 86 188.019 85.92 188.019 85.81C187.906 85.4866 187.776 85.1694 187.629 84.86C187.629 84.75 187.499 84.71 187.369 84.86C187.239 85.01 187.049 85.12 187.019 85.35ZM183.019 88.68C183.019 88.79 183.079 88.87 183.099 88.98C183.119 89.09 183.199 89.17 183.099 89.32C183.099 89.32 183.029 89.32 183.039 89.24C182.904 88.7995 182.84 88.3405 182.849 87.88C182.849 87.88 182.849 87.81 182.849 87.77C182.885 87.2069 182.999 86.6515 183.189 86.12C183.243 86.0133 183.28 85.8985 183.299 85.78C183.303 85.6934 183.303 85.6066 183.299 85.52C183.185 85.6816 183.091 85.8562 183.019 86.04C182.959 86.23 182.899 86.38 182.839 86.57C182.548 87.4363 182.548 88.3737 182.839 89.24C182.917 89.3852 183.003 89.5255 183.099 89.66C183.169 89.7292 183.255 89.7806 183.349 89.81C183.349 89.81 183.349 89.81 183.469 89.81C183.369 89.6415 183.285 89.464 183.219 89.28C183.129 89.06 183.159 88.83 183.059 88.64C183.047 88.652 183.037 88.6654 183.029 88.68H183.019ZM183.299 86.27C183.075 86.8178 182.983 87.4102 183.029 88C183.029 88 183.029 88 183.089 88.08L183.339 86.91C183.412 86.6655 183.412 86.4046 183.339 86.16C183.339 86.16 183.309 86.23 183.309 86.27H183.299ZM188.419 83.36C188.306 83.4892 188.202 83.6262 188.109 83.77C187.929 84.03 187.939 84.22 188.109 84.33C188.23 84.3976 188.335 84.4895 188.419 84.6C188.619 84.87 188.929 84.83 189.239 84.8C189.522 84.685 189.759 84.477 189.909 84.21C190.249 83.57 190.419 83.46 190.719 82.83C191.489 81.41 190.229 81.73 189.609 82.17C189.175 82.5176 188.78 82.9098 188.429 83.34L188.419 83.36Z" fill="#2C3847"/>
<path d="M201.369 86.77C202.028 85.5165 202.753 84.2982 203.539 83.12C203.81 82.8005 204.063 82.4667 204.299 82.12C204.563 81.8318 204.8 81.5205 205.009 81.19C205.083 81.0755 205.18 80.9774 205.293 80.9018C205.407 80.8261 205.534 80.7745 205.669 80.75C205.939 80.75 206.169 80.75 206.399 80.75C206.859 80.75 207.079 81.09 207.259 81.59V81.74C207.259 82.23 207.329 82.74 207.349 83.28C207.34 83.7824 207.297 84.2836 207.219 84.78C207.198 85.1154 207.158 85.4492 207.099 85.78C207.279 85.89 207.229 86.04 207.269 86.01C207.309 85.98 207.609 86.01 207.689 86.01C207.769 86.01 207.819 85.89 207.859 85.82C208.046 85.7059 208.217 85.5681 208.369 85.41C208.499 85.23 208.619 85.23 208.749 85.41C208.74 85.4705 208.718 85.5284 208.685 85.58C208.653 85.6317 208.609 85.6759 208.559 85.71C208.505 85.7645 208.458 85.8249 208.419 85.89C208.4 85.9495 208.367 86.0039 208.324 86.049C208.28 86.0941 208.227 86.1286 208.169 86.15L208.039 86.26C208.039 86.26 207.919 86.34 207.909 86.38C207.899 86.42 207.829 86.38 207.789 86.45C207.732 86.5089 207.663 86.5553 207.588 86.5863C207.512 86.6173 207.43 86.6322 207.349 86.63C207.219 86.6531 207.096 86.7043 206.989 86.78C206.869 86.85 206.759 86.85 206.689 86.78C206.443 86.6596 206.189 86.5561 205.929 86.47C205.7 86.3873 205.499 86.244 205.345 86.0555C205.192 85.8671 205.093 85.6405 205.059 85.4C204.928 84.6867 204.972 83.9522 205.189 83.26C205.299 82.92 205.329 82.62 205.409 82.32C205.489 82.02 205.529 81.87 205.599 81.65C205.678 81.5253 205.706 81.3751 205.679 81.23C205.679 81.23 205.569 81.23 205.559 81.23C205.497 81.2853 205.44 81.3455 205.389 81.41C205.199 81.71 204.979 82.01 204.749 82.35C204.605 82.5513 204.503 82.779 204.449 83.02C204.449 83.17 204.339 83.28 204.289 83.39C203.869 84.0035 203.505 84.6527 203.199 85.33C202.949 85.86 202.629 86.33 202.339 86.82C201.909 87.61 201.409 88.32 201.049 89.14C200.949 89.4 200.759 89.7 200.609 90C200.168 90.7719 199.666 91.5075 199.109 92.2C199.109 92.27 198.979 92.31 198.899 92.38C198.71 92.6248 198.446 92.7999 198.147 92.8777C197.849 92.9556 197.532 92.9318 197.249 92.81C197.169 92.88 197.099 92.81 197.029 92.73C196.439 92.57 196.199 92 196.129 91.25C196.108 90.5814 196.145 89.9123 196.239 89.25C196.389 88.25 196.539 87.25 196.729 86.32C196.859 85.6379 197.05 84.9686 197.299 84.32C197.492 83.3845 197.812 82.4796 198.249 81.63C198.35 81.3844 198.463 81.1441 198.589 80.91C198.939 80.24 199.229 79.65 199.589 79.05C199.799 78.56 199.959 78.49 200.329 78.57C200.648 78.5889 200.963 78.646 201.269 78.74C201.54 78.787 201.789 78.9203 201.979 79.12C202.222 79.5845 202.521 80.0177 202.869 80.41C203.009 80.6839 203.082 80.9873 203.082 81.295C203.082 81.6028 203.009 81.9061 202.869 82.18C202.589 82.93 202.579 82.37 202.299 83.18C201.629 84.75 200.569 85.98 199.989 87.4C199.189 89.15 201.139 87.41 201.369 86.77Z" fill="#2C3847"/>
<path d="M129.559 105.24C130.024 105.221 130.479 105.382 130.829 105.69C130.987 105.841 131.112 106.023 131.198 106.224C131.284 106.425 131.328 106.641 131.328 106.86C131.328 107.079 131.284 107.295 131.198 107.496C131.112 107.697 130.987 107.879 130.829 108.03C130.479 108.338 130.024 108.499 129.559 108.48H128.419V105.24H129.559ZM129.209 107.88H129.559C129.69 107.888 129.822 107.866 129.944 107.818C130.067 107.77 130.178 107.695 130.269 107.6C130.438 107.39 130.53 107.129 130.53 106.86C130.53 106.591 130.438 106.33 130.269 106.12C130.178 106.025 130.067 105.95 129.944 105.902C129.822 105.854 129.69 105.832 129.559 105.84H129.209V107.88Z" fill="#2C3847"/>
<path d="M135.899 105.23V105.83H134.729V106.53H135.729V107.13H134.729V107.88H135.899V108.48H133.899V105.23H135.899Z" fill="#2C3847"/>
<path d="M139.779 105.82C139.735 105.817 139.692 105.822 139.651 105.836C139.61 105.85 139.571 105.871 139.539 105.9C139.508 105.927 139.484 105.961 139.468 105.999C139.453 106.038 139.446 106.079 139.449 106.12C139.445 106.207 139.474 106.292 139.529 106.36C139.594 106.424 139.672 106.472 139.759 106.5L140.079 106.59C140.195 106.617 140.308 106.654 140.419 106.7C140.528 106.738 140.632 106.788 140.729 106.85C140.825 106.917 140.904 107.006 140.959 107.11C141.021 107.234 141.052 107.371 141.049 107.51C141.05 107.646 141.019 107.781 140.96 107.904C140.902 108.027 140.815 108.135 140.709 108.22C140.461 108.421 140.148 108.525 139.829 108.51C139.515 108.523 139.205 108.432 138.949 108.25C138.839 108.159 138.753 108.044 138.696 107.914C138.638 107.784 138.612 107.642 138.619 107.5H139.459C139.459 107.76 139.589 107.89 139.849 107.89C139.897 107.893 139.946 107.887 139.993 107.872C140.039 107.856 140.082 107.832 140.119 107.8C140.181 107.739 140.217 107.657 140.219 107.57C140.22 107.528 140.212 107.485 140.197 107.446C140.181 107.406 140.158 107.37 140.129 107.34C140.061 107.283 139.983 107.239 139.899 107.21C139.798 107.169 139.694 107.136 139.589 107.11C139.469 107.082 139.352 107.046 139.239 107C139.131 106.96 139.027 106.91 138.929 106.85C138.832 106.783 138.753 106.694 138.699 106.59C138.645 106.464 138.618 106.327 138.619 106.19C138.614 106.052 138.641 105.916 138.698 105.791C138.755 105.666 138.841 105.556 138.949 105.47C139.196 105.283 139.499 105.188 139.809 105.2C140.109 105.183 140.407 105.264 140.659 105.43C140.769 105.52 140.857 105.635 140.916 105.765C140.975 105.895 141.003 106.037 140.999 106.18H140.139C140.134 106.08 140.095 105.985 140.029 105.91C139.959 105.85 139.87 105.818 139.779 105.82Z" fill="#2C3847"/>
<path d="M143.779 108.48V105.24H144.569V108.48H143.779Z" fill="#2C3847"/>
<path d="M147.659 108.03C147.352 107.71 147.181 107.284 147.181 106.84C147.181 106.397 147.352 105.97 147.659 105.65C147.815 105.499 148 105.381 148.202 105.302C148.405 105.223 148.621 105.185 148.839 105.19C149.193 105.175 149.544 105.273 149.839 105.47C150.115 105.663 150.322 105.94 150.429 106.26H149.489C149.435 106.151 149.35 106.06 149.245 105.998C149.141 105.936 149.02 105.905 148.899 105.91C148.78 105.902 148.661 105.92 148.55 105.963C148.44 106.006 148.34 106.073 148.259 106.16C148.103 106.352 148.018 106.592 148.018 106.84C148.018 107.088 148.103 107.328 148.259 107.52C148.337 107.605 148.434 107.671 148.541 107.714C148.648 107.757 148.763 107.776 148.879 107.77C149.043 107.776 149.205 107.727 149.339 107.63C149.458 107.537 149.543 107.407 149.579 107.26H148.659V106.66H150.369V107.26C150.296 107.578 150.124 107.865 149.879 108.08C149.589 108.346 149.212 108.496 148.819 108.5C148.385 108.502 147.969 108.333 147.659 108.03Z" fill="#2C3847"/>
<path d="M155.109 105.23H155.899V108.48H155.109L153.789 106.48V108.48H152.999V105.23H153.789L155.109 107.23V105.23Z" fill="#2C3847"/>
<path d="M163.289 105.82C163.245 105.816 163.202 105.821 163.16 105.835C163.119 105.849 163.081 105.871 163.049 105.9C163.018 105.927 162.994 105.961 162.978 105.999C162.963 106.038 162.956 106.079 162.959 106.12C162.955 106.163 162.96 106.207 162.974 106.248C162.988 106.289 163.01 106.327 163.039 106.36C163.104 106.424 163.182 106.472 163.269 106.5L163.579 106.59C163.698 106.617 163.815 106.654 163.929 106.7C164.038 106.738 164.142 106.788 164.239 106.85C164.335 106.917 164.414 107.006 164.469 107.11C164.531 107.234 164.562 107.371 164.559 107.51C164.557 107.646 164.526 107.78 164.468 107.903C164.409 108.025 164.324 108.134 164.219 108.22C163.97 108.421 163.658 108.524 163.339 108.51C163.025 108.523 162.715 108.432 162.459 108.25C162.349 108.159 162.263 108.044 162.206 107.914C162.148 107.784 162.122 107.642 162.129 107.5H162.969C162.969 107.76 163.099 107.89 163.359 107.89C163.457 107.894 163.553 107.862 163.629 107.8C163.691 107.739 163.727 107.657 163.729 107.57C163.73 107.528 163.722 107.485 163.707 107.446C163.691 107.406 163.668 107.37 163.639 107.34C163.571 107.283 163.493 107.239 163.409 107.21C163.308 107.169 163.204 107.136 163.099 107.11C162.979 107.082 162.862 107.046 162.749 107C162.641 106.96 162.537 106.91 162.439 106.85C162.342 106.783 162.263 106.694 162.209 106.59C162.155 106.464 162.128 106.327 162.129 106.19C162.124 106.052 162.151 105.916 162.208 105.791C162.265 105.666 162.351 105.556 162.459 105.47C162.706 105.283 163.009 105.188 163.319 105.2C163.619 105.183 163.917 105.264 164.169 105.43C164.28 105.519 164.368 105.634 164.425 105.765C164.483 105.895 164.508 106.038 164.499 106.18H163.649C163.64 106.079 163.598 105.984 163.529 105.91C163.497 105.879 163.459 105.855 163.418 105.84C163.377 105.824 163.333 105.818 163.289 105.82Z" fill="#2C3847"/>
<path d="M167.069 105.84V105.24H169.619V105.84H168.739V108.48H167.949V105.84H167.069Z" fill="#2C3847"/>
<path d="M172.189 107.17V105.24H172.979V107.17C172.971 107.251 172.979 107.332 173.003 107.409C173.027 107.486 173.067 107.558 173.119 107.62C173.172 107.677 173.237 107.721 173.31 107.749C173.383 107.776 173.461 107.787 173.539 107.78C173.616 107.785 173.694 107.773 173.766 107.746C173.839 107.718 173.904 107.675 173.959 107.62C174.012 107.559 174.053 107.487 174.079 107.41C174.105 107.333 174.115 107.251 174.109 107.17V105.24H174.899V107.17C174.905 107.431 174.836 107.688 174.699 107.91C174.575 108.108 174.398 108.267 174.189 108.37C173.981 108.462 173.756 108.51 173.529 108.51C173.347 108.521 173.165 108.496 172.993 108.436C172.821 108.376 172.663 108.282 172.529 108.16C172.404 108.029 172.309 107.873 172.25 107.702C172.191 107.531 172.17 107.35 172.189 107.17Z" fill="#2C3847"/>
<path d="M178.819 105.24C179.284 105.221 179.739 105.382 180.089 105.69C180.247 105.841 180.372 106.023 180.458 106.224C180.544 106.425 180.588 106.641 180.588 106.86C180.588 107.079 180.544 107.295 180.458 107.496C180.372 107.697 180.247 107.879 180.089 108.03C179.739 108.338 179.284 108.499 178.819 108.48H177.679V105.24H178.819ZM178.469 107.88H178.819C178.95 107.888 179.082 107.866 179.204 107.818C179.327 107.77 179.438 107.695 179.529 107.6C179.698 107.39 179.79 107.129 179.79 106.86C179.79 106.591 179.698 106.33 179.529 106.12C179.438 106.025 179.327 105.95 179.204 105.902C179.082 105.854 178.95 105.832 178.819 105.84H178.469V107.88Z" fill="#2C3847"/>
<path d="M183.199 108.48V105.24H183.989V108.48H183.199Z" fill="#2C3847"/>
<path d="M187.079 108.03C186.772 107.71 186.601 107.283 186.601 106.84C186.601 106.397 186.772 105.97 187.079 105.65C187.235 105.499 187.42 105.381 187.623 105.302C187.825 105.223 188.041 105.185 188.259 105.19C188.478 105.183 188.696 105.221 188.9 105.301C189.104 105.382 189.289 105.503 189.444 105.657C189.6 105.812 189.722 105.996 189.803 106.2C189.885 106.403 189.924 106.621 189.919 106.84C189.926 107.061 189.887 107.281 189.804 107.486C189.721 107.69 189.597 107.876 189.439 108.03C189.283 108.183 189.099 108.304 188.896 108.385C188.694 108.465 188.477 108.505 188.259 108.5C187.819 108.506 187.394 108.337 187.079 108.03ZM188.879 107.52C189.028 107.325 189.109 107.086 189.109 106.84C189.109 106.594 189.028 106.355 188.879 106.16C188.713 105.999 188.49 105.909 188.259 105.909C188.027 105.909 187.805 105.999 187.639 106.16C187.483 106.352 187.398 106.592 187.398 106.84C187.398 107.088 187.483 107.328 187.639 107.52C187.805 107.681 188.027 107.772 188.259 107.772C188.49 107.772 188.713 107.681 188.879 107.52Z" fill="#2C3847"/>
<defs>
<filter id="filter0_d_2696_16315" x="0" y="0" width="324" height="197" filterUnits="userSpaceOnUse" color-interpolation-filters="sRGB">
<feFlood flood-opacity="0" result="BackgroundImageFix"/>
<feColorMatrix in="SourceAlpha" type="matrix" values="0 0 0 0 0 0 0 0 0 0 0 0 0 0 0 0 0 0 127 0" result="hardAlpha"/>
<feOffset dy="10"/>
<feGaussianBlur stdDeviation="15"/>
<feColorMatrix type="matrix" values="0 0 0 0 0.19 0 0 0 0 0.260533 0 0 0 0 0.343333 0 0 0 0.06 0"/>
<feBlend mode="normal" in2="BackgroundImageFix" result="effect1_dropShadow_2696_16315"/>
<feBlend mode="normal" in="SourceGraphic" in2="effect1_dropShadow_2696_16315" result="shape"/>
</filter>
</defs>
</svg>
