<svg width="324" height="197" viewBox="0 0 324 197" fill="none" xmlns="http://www.w3.org/2000/svg">
<g filter="url(#filter0_d_2696_16241)">
<rect x="30" y="20" width="264" height="137" fill="white"/>
</g>
<path d="M175.926 99.2853C174.69 99.2853 173.459 100.014 172.526 98.5852C172.216 98.5852 172.823 95.7266 172.526 94.2974H171.26C170.939 92.1564 171.551 90.0096 171.26 87.8628C171.26 87.805 171.26 87.7529 171.26 87.7008L175.979 87.6198H171.242C170.863 85.8434 169.708 87.0932 169.399 85.7276C168.448 84.3042 169.982 83.5808 170.956 83.5751C170.636 82.1458 171.581 83.5751 171.575 82.1458C171.575 79.2873 171.575 76.423 170.274 74.2878C169.953 73.5703 170.274 71.4293 170.274 70C166.459 70 162.3 70 158.555 72.8932C155.452 75.0863 151.602 72.0658 148.539 74.4729C148.072 74.8375 147.437 74.3109 146.842 74.1431C146.706 74.0875 146.557 74.0737 146.413 74.1037C146.269 74.1336 146.138 74.2058 146.037 74.3109C145.667 74.7858 145.444 75.3565 145.395 75.9543H146.387C145.517 78.1184 144.333 75.9543 142.992 76.7933C143.097 78.2168 143.137 78.9285 142.77 79.6865C143.639 79.6055 144.782 78.8475 145.477 79.5535L145.529 81.6945C145.202 82.059 144.765 81.8912 144.298 81.735C143.832 81.5787 143.324 81.4283 142.957 81.816C143.015 82.5335 143.137 83.957 143.202 84.6687C143.266 85.3804 142.91 85.4094 142.554 85.4499C142.916 85.4094 143.616 85.3515 143.954 85.3341C143.989 85.9764 144.065 87.209 144.112 87.967C143.404 88.0006 142.699 88.0759 142 88.1927L144.123 88.1579V88.1869C144.164 88.8986 143.867 88.916 143.54 88.9449C143.651 90.3684 143.54 91.8381 143.849 92.5036C144.094 92.5036 144.357 92.4689 144.625 92.4515C144.1 92.8392 143.826 93.9386 143.779 95.2059C143.756 96.4601 143.836 97.7141 144.018 98.9555C144.018 98.2322 144.292 100.362 144.327 99.6383C144.288 100.216 144.288 100.796 144.327 101.374C144.327 101.953 144.415 102.532 144.485 103.07C144.537 103.33 144.543 103.59 144.572 103.828C144.596 104.048 144.645 104.266 144.718 104.476C144.753 104.655 144.8 104.91 144.882 105.355C144.806 105.627 145.517 105.76 146.97 105.87C148.422 105.98 149.729 106.009 151.112 105.998C153.877 105.949 156.637 105.738 159.377 105.367C164.826 104.719 170.268 103.631 175.658 102.89C176.212 102.144 175.926 100.72 175.926 99.2853Z" fill="#FD8D55"/>
<path d="M122.822 87.2098C122.976 87.3239 123.144 87.418 123.322 87.4897C124.532 88.1798 125.659 89.0051 126.682 89.9497C128.225 91.3286 129.316 93.1409 129.812 95.1498C130.151 96.7855 129.851 98.4889 128.972 99.9097C128.688 100.508 128.332 101.069 127.912 101.58C127.699 101.87 127.454 102.135 127.182 102.37C126.163 103.319 124.967 104.06 123.662 104.55C123.072 104.847 122.407 104.962 121.752 104.88C121.247 104.858 120.745 104.976 120.302 105.22C119.869 105.421 119.421 105.588 118.962 105.72C117.922 105.996 116.836 106.054 115.772 105.89C114.315 105.781 112.936 105.19 111.852 104.21C111.421 103.722 111.139 103.12 111.04 102.477C110.94 101.833 111.028 101.175 111.292 100.58C111.705 99.5597 112.249 98.5981 112.912 97.7198C113.552 96.7756 114.304 95.9126 115.152 95.1498C115.312 95.0085 115.444 94.839 115.542 94.6498C115.992 93.8098 116.222 93.6498 117.052 93.7498C117.392 93.6398 117.612 93.1397 118.052 93.2997C117.832 93.4197 117.662 93.5297 117.322 93.6997C117.602 93.6997 117.772 93.8097 117.882 93.8097C117.872 94.0712 117.892 94.3329 117.942 94.5897C118.002 94.7597 117.942 94.9298 117.772 95.1498C117.442 95.5998 117.162 96.0497 116.772 96.5497C116.224 97.1876 115.858 97.9614 115.712 98.7898C115.628 99.2829 115.571 99.7803 115.542 100.28C115.523 100.365 115.521 100.452 115.537 100.538C115.552 100.623 115.585 100.705 115.632 100.777C115.68 100.85 115.742 100.913 115.814 100.961C115.886 101.01 115.967 101.043 116.052 101.06C116.552 101.24 117.092 101.278 117.612 101.17C118.67 101.021 119.705 100.739 120.692 100.33C121.692 99.8898 122.762 99.4897 123.772 98.9897C124.566 98.6364 125.301 98.1643 125.952 97.5897C126.452 97.1997 126.622 96.7498 126.452 96.4198C126.157 95.1476 125.455 94.0066 124.452 93.1698C122.632 91.7581 120.706 90.4878 118.692 89.3697C117.489 88.6646 116.348 87.8584 115.282 86.9598C114.107 86.0207 113.152 84.8365 112.482 83.4898C111.202 81.3698 112.372 78.4898 114.162 76.2798C115.842 74.3716 117.881 72.812 120.162 71.6898C120.832 71.4098 121.512 71.2398 122.162 70.9598C125.27 69.8932 128.572 69.5111 131.842 69.8398C132.842 69.9598 133.692 70.1198 134.642 70.2398C135.6 70.2876 136.526 70.5953 137.322 71.1298C137.474 71.2163 137.588 71.3574 137.64 71.5245C137.692 71.6916 137.678 71.8722 137.602 72.0298C137.576 72.1585 137.576 72.291 137.602 72.4198C137.57 72.7041 137.513 72.9851 137.432 73.2598C136.971 74.1466 136.685 75.1144 136.592 76.1098C136.468 76.6089 136.258 77.0826 135.972 77.5098C135.752 77.9598 135.412 78.2898 135.192 78.6798C134.983 79.0588 134.671 79.3708 134.292 79.5798C133.739 79.8722 133.16 80.1132 132.562 80.2997C132.429 80.3842 132.275 80.4291 132.117 80.4291C131.959 80.4291 131.805 80.3842 131.672 80.2997C130.836 79.9974 129.966 79.7992 129.082 79.7098C127.233 79.4231 125.364 79.2793 123.492 79.2798C122.905 79.3193 122.322 79.413 121.752 79.5598C121.082 79.6698 120.472 79.8398 119.852 79.9497C115.852 80.9497 118.172 83.8698 120.192 85.3198C121.105 85.8982 121.983 86.5293 122.822 87.2098Z" fill="#2C3847"/>
<path d="M142.682 93.6398C142.658 93.6226 142.629 93.6117 142.6 93.6081C142.57 93.6045 142.54 93.6084 142.512 93.6193C142.485 93.6302 142.46 93.6478 142.441 93.6706C142.421 93.6934 142.408 93.7206 142.402 93.7498C142.342 93.7498 142.342 93.8098 142.342 93.8598C142.122 94.4198 141.842 94.7598 141.342 94.6498C141.062 94.9298 140.952 95.2098 140.732 95.4298C140.587 95.4978 140.461 95.5995 140.363 95.7266C140.266 95.8536 140.2 96.0022 140.172 96.1598C140.172 96.2698 140.112 96.3198 140.062 96.4398C139.782 96.8298 139.502 97.1098 139.272 97.4398C139.052 97.9303 138.707 98.3544 138.272 98.6698C138.027 98.9009 137.818 99.1671 137.652 99.4598C137.634 99.5208 137.597 99.5746 137.547 99.614C137.497 99.6534 137.436 99.6763 137.372 99.6798C137.06 99.7852 136.774 99.9556 136.532 100.18C135.954 100.538 135.306 100.769 134.632 100.86C134.036 100.89 133.442 100.773 132.902 100.52C132.467 100.225 132.115 99.8244 131.879 99.3553C131.642 98.8863 131.53 98.3646 131.552 97.8398C131.534 97.5553 131.572 97.2701 131.662 96.9998C131.801 95.2391 132.102 93.4951 132.562 91.7898C132.842 90.7898 133.182 89.9998 133.562 89.1598C134.292 87.6498 134.902 86.0298 135.632 84.5198C135.645 84.3843 135.683 84.2523 135.742 84.1298C136.14 82.8324 136.705 81.5921 137.422 80.4398C137.612 80.0634 137.779 79.6761 137.922 79.2798C138.055 79.2341 138.198 79.2258 138.336 79.2558C138.473 79.2858 138.6 79.3529 138.702 79.4498C139.322 79.8398 139.932 80.2798 140.612 80.6798C140.722 80.6798 140.892 80.8398 140.892 80.9598C141.353 81.7744 141.725 82.636 142.002 83.5298C142.122 84.0898 142.172 84.5898 142.282 85.1498C142.426 85.7846 142.356 86.4493 142.082 87.0398C141.862 87.4898 141.742 87.9898 141.522 88.4398C141.522 88.7198 141.352 88.9998 141.302 89.2798C140.97 90.4223 140.563 91.5414 140.082 92.6298C140.073 92.6659 140.073 92.7037 140.082 92.7398C140.082 92.7398 140.082 92.7998 139.962 92.9098C139.908 93.3591 139.776 93.7955 139.572 94.1998C139.682 94.1398 139.802 94.1398 139.852 94.0898C140.412 93.4698 141.032 92.7398 141.592 92.0898C142.592 90.9698 143.492 89.8598 144.442 88.7398C144.825 88.3351 145.179 87.9041 145.502 87.4498C146.568 86.055 147.71 84.7197 148.922 83.4498C149.093 83.2608 149.301 83.1078 149.532 82.9998C149.97 82.7987 150.454 82.7226 150.932 82.7798C151.111 82.8486 151.28 82.9429 151.432 83.0598C151.882 83.5098 152.272 84.0598 152.722 84.3998C153.013 84.6709 153.224 85.0169 153.332 85.3998C153.464 85.7795 153.558 86.1715 153.612 86.5698C153.756 87.1409 153.756 87.7387 153.612 88.3098C153.268 89.5446 152.858 90.7597 152.382 91.9498C152.272 92.4498 152.042 92.9498 151.932 93.5698C152.077 93.521 152.209 93.4427 152.322 93.3398C153.472 92.6671 154.511 91.8204 155.402 90.8298C156.261 89.9882 157.218 89.2529 158.252 88.6398C158.428 88.5711 158.584 88.4573 158.702 88.3098C158.755 88.2502 158.819 88.2025 158.892 88.1698C158.964 88.1371 159.043 88.1202 159.122 88.1202C159.202 88.1202 159.28 88.1371 159.352 88.1698C159.425 88.2025 159.49 88.2502 159.542 88.3098C159.822 88.5298 159.932 88.9198 160.322 89.0898C160.712 89.2598 160.772 89.4798 160.992 89.7598C160.942 90.2251 160.942 90.6945 160.992 91.1598C160.975 91.5835 160.88 92.0005 160.712 92.3898C160.382 92.5598 160.602 93.0098 160.382 93.2898C160.322 93.9598 160.212 94.6298 160.102 95.2898C160.042 95.885 160.042 96.4846 160.102 97.0798C160.102 97.4698 160.212 97.6398 160.492 97.7498C161.332 97.9198 164.242 95.8498 164.802 95.1198C165.776 93.9265 166.63 92.6403 167.352 91.2798C167.389 91.0097 167.504 90.7561 167.682 90.5498C167.792 90.7198 167.852 90.7198 167.792 90.7798C167.632 91.6198 167.912 91.1098 167.792 92.0598C167.792 91.8398 167.512 93.0098 167.352 92.8998C167.192 92.7898 167.232 93.0698 167.122 93.1798C166.792 93.7998 166.452 94.3598 166.122 95.0298C166.122 95.2498 165.952 95.4198 165.902 95.5298C165.454 95.8585 165.041 96.234 164.672 96.6498C164.672 96.8198 164.502 96.8698 164.392 96.9298C163.551 97.9818 162.447 98.7926 161.192 99.2798C160.545 99.2774 159.902 99.1658 159.292 98.9498C158.576 98.4411 157.967 97.7953 157.502 97.0498C157.23 96.2933 157.209 95.4692 157.442 94.6998C157.706 93.3089 158.081 91.9412 158.562 90.6098C158.631 90.4304 158.671 90.2415 158.682 90.0498C158.732 89.9398 158.682 89.8898 158.682 89.7198C158.342 89.7198 158.122 90.1698 157.842 90.2198C157.563 90.3152 157.297 90.4463 157.052 90.6098C157.063 91.003 156.923 91.3855 156.662 91.6798C156.442 91.8998 156.332 92.1798 156.102 92.4598C155.822 92.2898 155.542 92.4598 155.262 92.6798C154.822 93.0698 154.422 93.4098 153.922 93.7998C153.812 93.9098 153.642 93.9698 153.532 94.1898C153.005 94.787 152.403 95.3146 151.742 95.7598C151.682 95.8698 151.572 95.8698 151.462 96.0398C151.122 96.7098 150.462 97.0398 149.952 97.6098C149.778 97.8432 149.591 98.0668 149.392 98.2798C149.001 98.6119 148.547 98.8619 148.058 99.0148C147.568 99.1677 147.053 99.2204 146.542 99.1698C146.07 99.0868 145.647 98.8255 145.362 98.4398C145.158 98.2172 145.007 97.9514 144.921 97.6621C144.834 97.3729 144.814 97.0678 144.862 96.7698C144.864 96.1582 144.976 95.5518 145.192 94.9798C146.096 92.2327 147.407 89.6371 149.082 87.2798C149.472 86.5498 149.982 85.8798 150.372 85.0998C150.494 85.0013 150.586 84.8697 150.635 84.7208C150.685 84.5719 150.691 84.4119 150.652 84.2598C150.482 84.0898 150.262 84.0898 150.032 84.2598C149.892 84.437 149.723 84.5891 149.532 84.7098C149 85.2621 148.439 85.7862 147.852 86.2798C147.512 86.6456 147.229 87.0602 147.012 87.5098C146.761 88.1433 146.402 88.7285 145.952 89.2398C145.465 89.6913 145.032 90.1981 144.662 90.7498C144.332 91.1998 144.102 91.7498 143.822 92.1498C143.681 92.4955 143.514 92.8299 143.322 93.1498C143.212 93.3198 143.042 93.5398 142.932 93.7098C142.842 93.7498 142.732 93.6398 142.682 93.6398Z" fill="#2C3847"/>
<path d="M167.572 86.1998L167.632 86.1398C167.75 85.9801 167.9 85.8472 168.072 85.7498C168.692 85.6398 170.072 84.6298 170.652 84.9698C170.812 85.1898 171.372 85.4698 171.652 85.6998C171.773 85.8789 171.846 86.0856 171.865 86.3007C171.885 86.5157 171.849 86.7321 171.762 86.9298C171.422 87.6498 171.032 88.3298 170.582 89.2198C170.472 89.5598 170.362 89.8398 170.312 90.0598C170.082 90.5598 169.862 91.2298 169.582 91.7398C169.352 92.4098 170.362 90.2798 170.252 90.8398C170.231 90.9979 170.173 91.1488 170.082 91.2798C169.745 91.8555 169.572 92.5127 169.582 93.1798C169.582 93.7398 169.352 96.5898 169.412 97.0998C169.483 97.4155 169.639 97.7059 169.862 97.9398C170.129 98.111 170.41 98.2582 170.702 98.3798C170.982 98.6098 171.262 98.4998 171.592 98.4398C176.232 96.7598 174.592 96.1498 177.242 93.2898C177.83 92.6072 178.302 91.8338 178.642 90.9998C178.642 90.9398 178.642 90.9398 178.812 90.6598C179.092 91.2198 178.472 92.0098 179.262 92.1798C178.082 94.2998 177.262 97.3798 175.342 98.4998C174.782 99.2198 170.982 102.58 168.512 101.63C167.732 101.91 167.002 101.13 166.162 100.79C165.539 100.503 164.986 100.083 164.542 99.5598C164.225 98.8519 164.036 98.0936 163.982 97.3198C163.895 96.994 163.858 96.6568 163.872 96.3198C164.042 95.6498 163.932 94.3198 164.152 93.9198C164.243 93.6273 164.3 93.3253 164.322 93.0198C164.432 93.0198 164.322 92.6898 164.712 92.6298C164.772 92.6298 164.822 92.4098 164.882 92.3498C165.162 91.9598 165.212 91.6298 165.492 91.2298C165.492 91.2298 164.322 92.4098 164.992 91.2898C165.442 90.1698 166.442 88.9398 166.782 88.1598C166.798 88.0597 166.836 87.9642 166.892 87.8798C167.062 87.5398 167.232 87.3198 167.122 86.9298C167.077 86.6557 167.134 86.3745 167.282 86.1398C167.352 86.1998 167.402 86.2798 167.572 86.1998ZM172.722 80.0998C172.593 80.2436 172.497 80.4144 172.442 80.5998C172.445 80.6526 172.436 80.7054 172.415 80.754C172.394 80.8026 172.363 80.8457 172.322 80.8798C172.162 81.0498 171.992 81.2798 171.772 81.5598C171.537 81.7801 171.247 81.9323 170.932 81.9998C170.812 81.9998 170.652 82.0598 170.532 82.1698C170.423 82.2576 170.291 82.3103 170.151 82.321C170.012 82.3317 169.873 82.2999 169.752 82.2298C169.623 82.1347 169.462 82.0919 169.302 82.1098C169.1 82.1346 168.895 82.1346 168.692 82.1098C168.743 82.0323 168.8 81.9587 168.862 81.8898C168.899 81.6988 168.952 81.5113 169.022 81.3298C169.136 81.0763 169.27 80.8322 169.422 80.5998C169.422 80.4898 169.582 80.3698 169.582 80.3198C169.582 79.9798 169.862 79.6998 170.032 79.3698L170.372 78.8598C170.482 78.7498 170.592 78.6398 170.702 78.6398C170.743 78.6105 170.792 78.5947 170.842 78.5947C170.892 78.5947 170.941 78.6105 170.982 78.6398C170.982 78.7498 171.092 78.7498 171.212 78.6998C171.332 78.6498 171.372 78.5798 171.432 78.6398C171.666 78.7418 171.911 78.8156 172.162 78.8598C172.545 79.0314 172.859 79.3274 173.052 79.6998C172.882 79.8198 172.832 79.9898 172.722 80.0998Z" fill="#2C3847"/>
<path d="M194.252 93.5798C193.972 94.1398 193.022 95.3698 193.022 95.9898C192.925 96.0975 192.814 96.1917 192.692 96.2698C192.498 96.4602 192.345 96.6882 192.242 96.9398C192.123 97.1534 191.993 97.3604 191.852 97.5598C191.2 98.8396 190.326 99.994 189.272 100.97C188.942 101.25 185.972 104.1 185.752 104.38C184.132 105.72 181.952 105.11 180.322 105.16C179.92 105.185 179.518 105.109 179.152 104.94C178.418 104.652 177.74 104.236 177.152 103.71C176.652 102.48 175.362 101.64 175.252 99.9098C175.192 99.4598 174.972 99.1798 174.912 98.7298C174.972 96.9398 175.252 95.1498 175.472 93.2998C175.812 92.0198 176.092 90.6198 176.312 89.2998C176.649 87.5957 177.253 85.9555 178.102 84.4398C178.662 82.9798 179.172 82.8698 179.722 81.4398C180.132 80.6708 180.586 79.9262 181.082 79.2098C181.488 78.3532 181.955 77.5277 182.482 76.7398C183.463 75.0167 184.626 73.4041 185.952 71.9298C186.792 71.0898 187.682 70.1998 188.522 69.4698C188.974 69.0646 189.483 68.7277 190.032 68.4698C190.192 68.3757 190.364 68.3018 190.542 68.2498C190.912 68.1932 191.289 68.2194 191.647 68.3267C192.005 68.4339 192.335 68.6194 192.612 68.8698C192.9 69.1802 193.102 69.5596 193.2 69.9713C193.299 70.383 193.289 70.813 193.172 71.2198C193.052 71.8898 193.002 72.5598 192.832 73.1698C192.737 73.7026 192.548 74.214 192.272 74.6798C191.889 75.6457 191.403 76.5677 190.822 77.4298C190.422 78.1498 189.982 78.8798 189.582 79.6098C188.912 80.6098 188.352 81.6798 187.682 82.6098C186.512 84.1698 185.502 85.8498 184.442 87.4198C182.702 90.4198 182.872 90.8898 182.262 93.8498C182.117 94.8428 182.06 95.8467 182.092 96.8498C182.092 97.1898 182.312 99.3698 182.372 99.5998C182.512 100.225 182.737 100.827 183.042 101.39C183.152 101.61 183.932 101.78 184.212 101.89C184.612 102.17 187.572 100.15 187.962 99.8898C188.853 99.2858 189.663 98.57 190.372 97.7598C191.14 96.925 191.811 96.0058 192.372 95.0198C193.372 93.6798 193.712 92.5598 194.772 91.0998C195.482 91.0098 195.082 92.1898 194.252 93.5798ZM185.302 83.5098C186.642 81.4503 187.877 79.3243 189.002 77.1398C189.612 75.9598 190.112 74.7898 190.732 73.6098C190.999 72.7898 191.187 71.9458 191.292 71.0898C191.402 70.8098 191.402 70.6498 191.122 70.7598C190.9 70.8038 190.691 70.8997 190.512 71.0398C189.721 71.3662 189.053 71.9329 188.602 72.6598C188.212 73.1098 187.932 73.6598 187.482 74.0598C187.012 74.6489 186.671 75.3303 186.482 76.0598C186.202 76.6198 185.922 77.2898 185.642 77.8498C185.211 79.0528 184.707 80.2284 184.132 81.3698C183.902 81.9298 183.742 82.5498 183.512 83.1098C182.842 85.0098 183.122 84.0598 182.512 85.9598C182.342 86.4098 182.452 87.6898 183.182 86.9598C183.947 85.8469 184.655 84.6953 185.302 83.5098Z" fill="#2C3847"/>
<path d="M197.082 91.0698C197.071 91.1309 197.045 91.1883 197.007 91.2371C196.969 91.2859 196.919 91.3246 196.862 91.3498C196.812 91.3776 196.77 91.4181 196.74 91.4672C196.71 91.5163 196.694 91.5723 196.692 91.6298C196.632 91.8498 196.582 91.9098 196.412 91.9598C196.242 92.0098 196.302 92.0698 196.242 92.4098C196.352 92.4098 196.412 92.4098 196.462 92.4598V92.5198H196.082C196.128 92.3744 196.149 92.2221 196.142 92.0698H196.032C195.972 92.4598 195.922 92.8598 195.862 93.2498C195.972 93.2498 196.032 93.3598 196.082 93.3598C196.112 93.7325 196.112 94.107 196.082 94.4798C196.092 94.824 196.167 95.1632 196.302 95.4798C196.472 95.6998 196.922 96.9298 197.092 97.1498C197.872 97.9398 198.822 98.9398 199.722 98.9998C200.455 98.9656 201.184 98.872 201.902 98.7198C203.307 98.2763 204.616 97.5742 205.762 96.6498C206.762 95.9198 207.602 95.0798 208.552 94.2998C208.614 94.2482 208.671 94.1913 208.722 94.1298C209.062 93.7398 209.392 93.4098 209.722 93.0098C210.337 92.4091 210.899 91.7567 211.402 91.0598C211.535 90.7591 211.773 90.5173 212.072 90.3798C211.987 90.865 211.836 91.3361 211.622 91.7798C211.565 91.9495 211.469 92.1036 211.342 92.2298C211.015 92.5877 210.733 92.984 210.502 93.4098C210.332 93.6298 210.112 93.8498 209.942 94.0798C209.942 94.0798 209.832 94.2498 209.722 94.4098C209.892 94.4098 210.002 94.2998 210.172 94.2498C210.112 94.5798 209.832 94.6398 209.782 94.9198C209.832 94.9198 209.832 95.0298 209.942 95.0798C209.79 95.3328 209.601 95.5619 209.382 95.7598C209.019 96.0619 208.684 96.3967 208.382 96.7598C207.884 97.2877 207.342 97.7727 206.762 98.2098C206.515 98.4316 206.254 98.6386 205.982 98.8298C205.752 98.9898 205.532 99.1098 205.312 99.2698C204.967 99.4354 204.633 99.6224 204.312 99.8298C203.764 100.179 203.158 100.426 202.522 100.56L202.022 100.73C201.372 100.934 200.701 101.065 200.022 101.12C198.393 101.055 196.778 100.793 195.212 100.34C193.212 99.5498 192.862 98.5998 191.972 97.8198C191.615 97.4983 191.343 97.0927 191.182 96.6398C190.937 95.8835 190.805 95.0948 190.792 94.2998C190.812 92.5665 191.215 90.859 191.972 89.2998C192.047 89.1746 192.095 89.0356 192.114 88.8911C192.133 88.7467 192.122 88.5999 192.082 88.4598C191.951 88.5156 191.833 88.5989 191.736 88.7041C191.639 88.8093 191.566 88.934 191.522 89.0698C191.345 89.5762 191.12 90.065 190.852 90.5298C190.886 90.0952 191.019 89.6743 191.242 89.2998C191.676 88.3021 192.198 87.345 192.802 86.4398C193.4 85.5129 194.094 84.6515 194.872 83.8698C195.619 83.0562 196.466 82.3405 197.392 81.7398C197.586 81.6626 197.774 81.569 197.952 81.4598C198.232 81.3498 198.512 81.2998 198.682 81.5798C198.852 81.8598 199.072 81.6898 199.182 81.7998C199.292 81.9098 199.412 82.1298 199.522 82.2498C200.082 82.5298 202.202 83.0898 202.712 83.4198C202.883 83.5742 203.017 83.7658 203.102 83.9798C203.319 84.4927 203.62 84.9659 203.992 85.3798C204.098 85.5312 204.176 85.7006 204.222 85.8798C204.354 86.5399 204.354 87.2197 204.222 87.8798C204.08 88.6524 203.796 89.3918 203.382 90.0598C203.142 90.4311 202.935 90.8226 202.762 91.2298C202.626 91.6264 202.438 92.0031 202.202 92.3498C202.104 92.5522 201.964 92.7317 201.792 92.8764C201.619 93.0212 201.418 93.128 201.202 93.1898C200.872 93.3575 200.498 93.417 200.132 93.3598C199.972 93.2998 199.802 93.3598 199.692 93.1398C199.692 93.1319 199.691 93.1241 199.688 93.1168C199.685 93.1095 199.68 93.1029 199.675 93.0973C199.669 93.0918 199.662 93.0873 199.655 93.0843C199.648 93.0813 199.64 93.0798 199.632 93.0798C199.182 93.1398 198.902 92.6298 198.572 92.4598C198.508 92.3827 198.466 92.2892 198.452 92.1898C198.572 91.9598 198.452 91.8498 198.452 91.6798C198.233 91.2011 197.989 90.7338 197.722 90.2798C197.722 90.1198 197.502 90.0598 197.332 90.2798C197.162 90.4998 197.082 90.7298 197.082 91.0698ZM191.772 96.0698C191.822 96.2398 191.882 96.3498 191.932 96.5198C191.982 96.6898 192.102 96.7998 191.992 97.0198C191.932 97.0198 191.882 97.0198 191.882 96.9098C191.62 96.2702 191.448 95.597 191.372 94.9098C191.372 94.8498 191.372 94.7898 191.372 94.7398C191.334 93.9131 191.412 93.0851 191.602 92.2798C191.662 92.1157 191.699 91.9441 191.712 91.7698V91.3798C191.572 91.6309 191.458 91.8956 191.372 92.1698C191.372 92.4398 191.262 92.6698 191.212 92.9498C190.918 94.2953 191.072 95.7004 191.652 96.9498C191.788 97.1664 191.938 97.3735 192.102 97.5698C192.212 97.6738 192.346 97.7493 192.492 97.7898C192.492 97.8498 192.552 97.7898 192.662 97.7898C192.49 97.5432 192.339 97.2823 192.212 97.0098C192.052 96.6698 192.052 96.3298 191.882 96.0098C191.853 96.0124 191.825 96.0219 191.801 96.0376C191.777 96.0533 191.756 96.0746 191.742 96.0998L191.772 96.0698ZM191.772 92.4898C191.54 93.3265 191.499 94.205 191.652 95.0598C191.652 95.1198 191.712 95.1198 191.772 95.1798C191.822 94.5598 191.882 93.9998 191.932 93.4398C192.048 93.0754 192.048 92.6841 191.932 92.3198C191.792 92.4098 191.742 92.4598 191.742 92.5198L191.772 92.4898ZM198.842 88.0198C198.699 88.2141 198.568 88.4179 198.452 88.6298C198.232 89.0198 198.292 89.2998 198.562 89.4698C198.756 89.5651 198.929 89.6976 199.072 89.8598C199.233 90.0131 199.432 90.1202 199.648 90.1695C199.865 90.2188 200.091 90.2085 200.302 90.1398C200.701 89.9662 201.019 89.6482 201.192 89.2498C201.592 88.2498 201.812 88.1298 202.192 87.1798C203.082 85.0498 201.292 85.5498 200.452 86.1798C199.818 86.7289 199.256 87.3574 198.782 88.0498L198.842 88.0198Z" fill="#2C3847"/>
<defs>
<filter id="filter0_d_2696_16241" x="0" y="0" width="324" height="197" filterUnits="userSpaceOnUse" color-interpolation-filters="sRGB">
<feFlood flood-opacity="0" result="BackgroundImageFix"/>
<feColorMatrix in="SourceAlpha" type="matrix" values="0 0 0 0 0 0 0 0 0 0 0 0 0 0 0 0 0 0 127 0" result="hardAlpha"/>
<feOffset dy="10"/>
<feGaussianBlur stdDeviation="15"/>
<feColorMatrix type="matrix" values="0 0 0 0 0.19 0 0 0 0 0.260533 0 0 0 0 0.343333 0 0 0 0.06 0"/>
<feBlend mode="normal" in2="BackgroundImageFix" result="effect1_dropShadow_2696_16241"/>
<feBlend mode="normal" in="SourceGraphic" in2="effect1_dropShadow_2696_16241" result="shape"/>
</filter>
</defs>
</svg>
