<svg width="324" height="197" viewBox="0 0 324 197" fill="none" xmlns="http://www.w3.org/2000/svg">
<g filter="url(#filter0_d_2696_16395)">
<rect x="30" y="20" width="264" height="137" fill="white"/>
</g>
<path d="M156.14 90.9373C156.14 90.2073 156.75 88.9373 157.29 89.3573C156.75 88.9773 156.76 88.9873 156.86 87.9473C157.22 88.1973 157.56 87.4273 157.86 86.9473C157.36 87.1573 156.99 87.6373 156.26 88.5873C156.47 90.0273 154.04 91.1473 154.34 92.5873C154.9 92.0873 155.85 91.8373 156.14 90.9373Z" fill="#FD9254"/>
<path d="M161.23 88.3171L161.09 88.0371L160.41 89.8771C160.44 89.4371 160.93 88.1971 161.23 88.3171Z" fill="#FD9254"/>
<path d="M163.95 82.7169C164.26 83.1269 165.03 82.4569 165.38 82.7169C164.56 82.2169 166.05 81.327 166.38 80.577L165.96 79.877C165.05 80.257 164.1 82.107 163.1 83.547L163.95 82.7169Z" fill="#FD9254"/>
<path d="M165.27 81.7075L165.18 80.9775C165.03 81.4375 164.51 82.3675 165.27 81.7075Z" fill="#FD9254"/>
<path d="M162.44 81.2674C161.64 82.3874 163.16 80.7474 162.54 81.9974C162.73 81.5374 162.95 81.0274 162.44 81.2674Z" fill="#FD9254"/>
<path d="M166.9 77.3174C166.43 78.1774 165.98 79.0474 165.54 79.9274L166.48 79.1074L166.9 77.3174Z" fill="#FD9254"/>
<path d="M168.28 78.0977C168.06 78.3977 167.5 78.7377 167.6 78.1477C168.66 77.6277 168.38 76.6377 169.34 76.1477L169.01 77.0477C169.58 77.3077 169.62 75.1177 170.48 75.8177C170.62 74.3577 169.16 76.0077 169.7 74.3877C169.004 75.5182 168.156 76.5479 167.18 77.4477C167.508 77.2715 167.813 77.0566 168.09 76.8077C167.58 77.5677 167.15 78.8077 166.61 79.6877C167.52 79.5977 167.44 78.5977 168.28 78.0977Z" fill="#FD9254"/>
<path d="M171.12 74.4772C171.77 73.7472 172.72 72.5872 172.26 71.8672C171.14 72.2972 171.58 72.8672 171.56 73.4672C171.26 73.6072 170.61 74.3472 170.51 73.7672C170.73 73.7572 170.61 74.6472 171.12 74.4772Z" fill="#FD9254"/>
<path d="M173.65 71.6074L173.55 70.6074L173.35 71.0374L172.91 70.7274C173.071 70.9947 173.146 71.3051 173.124 71.6163C173.103 71.9276 172.986 72.2248 172.79 72.4674C173.43 72.3174 173.17 71.8774 173.65 71.6074Z" fill="#FD9254"/>
<path d="M171.04 69.0276C171.76 68.7276 171.88 68.2976 172.26 67.5576C171.55 68.4276 170.52 69.6176 170.54 70.0676V69.9176C170.318 70.5403 170.177 71.189 170.12 71.8476C170.36 70.6676 172.27 69.6676 171.04 69.0276Z" fill="#FD9254"/>
<path d="M170.08 70.0973L170.28 69.1973L170.08 70.0973Z" fill="#FD9254"/>
<path d="M175.52 69.2471C175.12 69.5471 174.74 69.8771 174.34 70.1871L174.73 70.0271C175.01 69.7971 175.25 69.5071 175.52 69.2471Z" fill="#FD9254"/>
<path d="M172.67 69.0877C173.58 68.2377 171.78 69.2077 172.58 68.3477C172.72 68.0577 171.43 69.6476 171.66 69.9576C171.95 69.8076 172.11 68.7777 172.67 69.0877Z" fill="#FD9254"/>
<path d="M176.24 68.5969C176.39 68.1769 176.54 67.7469 176.72 67.3369C176.54 67.7469 176.39 68.1769 176.24 68.5969Z" fill="#FD9254"/>
<path d="M178.67 66.7478L178.59 66.2978C179.144 65.9633 179.663 65.5747 180.14 65.1378C180.579 64.7206 181.165 64.494 181.77 64.5078C181.32 64.2378 181.57 63.3977 180.65 63.9277C180.65 64.2277 180.39 64.4578 180.65 64.6578C180.25 64.8578 180.1 64.5278 179.78 64.6578C179.45 65.4678 178.35 66.0078 178.14 66.6578C178.3 66.3878 178.43 66.4178 178.62 66.3078C178.12 67.6678 176.83 66.6278 177.19 67.8378C177.26 67.2678 178.34 67.2678 178.67 66.7478Z" fill="#FD9254"/>
<path d="M176.8 64.8273L175.9 65.4673C175.79 64.8473 176.9 64.5273 176.69 64.0573C176.42 63.8673 175.5 64.5173 175.69 64.0573C176.42 65.0573 174.63 65.1573 175.99 65.7573C175.07 66.8373 175.13 65.4973 174.13 66.6273L174.3 67.3773C175.19 66.0273 175.82 66.2073 176.8 64.8273Z" fill="#FD9254"/>
<path d="M180.2 62.2976H180.87L180.3 61.9976C180.758 61.6571 181.283 61.4185 181.84 61.2976C182.355 61.214 182.878 61.1838 183.4 61.2076C184.4 61.2076 185.23 61.3776 185.78 60.9076C186.055 60.5487 186.426 60.2748 186.85 60.1176C187.248 59.9556 187.665 59.8415 188.09 59.7776L189.4 59.6476C189.62 59.6476 189.83 59.5876 190.04 59.5376C190.257 59.5111 190.472 59.4643 190.68 59.3976C191.41 58.7276 189.79 59.2776 189.63 59.0476C189.63 58.0476 190.63 59.3376 190.8 58.4676C190.8 58.1076 190.27 58.0276 189.65 58.0176C189.053 58.09 188.451 58.1101 187.85 58.0776C187.2 58.3876 187.3 58.6276 187.24 59.0776C186.94 58.7776 186.24 58.9476 185.9 58.6576C185.422 59.0894 184.839 59.3893 184.21 59.5276C183.894 59.5822 183.591 59.6986 183.32 59.8702C183.049 60.0418 182.815 60.2652 182.63 60.5276C181.96 60.3076 183.51 59.8676 183.05 60.0476L182.38 60.4776H182.5C182.315 60.7456 182.085 60.9791 181.82 61.1676C181.535 61.3899 181.226 61.581 180.9 61.7376C180.36 62.0025 179.793 62.2103 179.21 62.3576C179.75 62.1676 180.3 62.2976 179.9 62.8176L179.11 62.6476C178.94 63.1776 178.75 63.6476 178.61 64.2076C179.04 63.0976 180.73 63.3276 180.2 62.2976Z" fill="#FD9254"/>
<path d="M178.3 62.3477C176.78 63.1377 179.02 62.9277 177.45 63.8777L178.15 63.2276L178.89 62.6176L178.3 62.3477Z" fill="#FD9254"/>
<path d="M185.83 59.4174L186.75 59.4974C186.681 59.4409 186.602 59.3987 186.517 59.3731C186.432 59.3475 186.342 59.3391 186.254 59.3484C186.166 59.3577 186.08 59.3845 186.002 59.4273C185.924 59.47 185.855 59.5279 185.8 59.5974C185.61 59.7974 185.57 59.9274 185.83 59.4174Z" fill="#FD9254"/>
<path d="M188.63 58.3477L188.47 59.2276L189.05 58.5777L188.63 58.3477Z" fill="#FD9254"/>
<path d="M191.46 58.5873C191.96 58.0573 191.2 57.8873 190.54 58.1473C191.16 58.0273 191.54 58.2973 191.46 58.5873Z" fill="#FD9254"/>
<path d="M195.78 59.6572C195.16 59.6572 195.44 59.7272 195.78 59.8472C196.12 59.9672 196.44 60.2372 196.01 60.5772C196.13 60.2472 196.73 59.8172 195.78 59.6572Z" fill="#FD9254"/>
<path d="M199.37 61.8769C198.96 61.9269 198.82 61.7769 198.79 61.5869C198.903 61.5873 199.013 61.6137 199.114 61.664C199.215 61.7143 199.302 61.7872 199.37 61.8769V61.8769Z" fill="#FD9254"/>
<path d="M184.59 62.2178C184.464 62.3014 184.33 62.3717 184.19 62.4278L184.59 62.2178Z" fill="#FD9254"/>
<path d="M184.84 62.0771L184.59 62.2171L184.84 62.0771Z" fill="#FD9254"/>
<path d="M193.94 60.9176L193.84 60.8477L193.94 60.9176Z" fill="#FD9254"/>
<path d="M163.59 85.2471C163.517 85.4418 163.419 85.6266 163.3 85.7971C163.4 85.6171 163.49 85.4271 163.58 85.2471H163.59Z" fill="#FD9254"/>
<path d="M162.28 85.2568C162.43 84.0668 163.91 84.9168 164.56 83.2568C164.26 83.9168 163.93 84.5868 163.56 85.2568C162.37 85.6768 163.65 84.3668 162.28 85.2568Z" fill="#FD9254"/>
<path d="M169.91 72.5274C169.916 72.5078 169.916 72.487 169.91 72.4674C169.98 72.3674 169.97 72.4274 169.91 72.5274Z" fill="#FD9254"/>
<path d="M128.99 117.547L129 117.767L127.98 117.587L128.99 117.547Z" fill="#FD9254"/>
<path d="M129.17 117.928C129.75 118.008 130.34 118.018 130.93 118.068C127.541 118.811 124.027 118.763 120.66 117.928L121.06 117.728C121.06 117.728 121.18 117.728 121.4 117.728C121.62 117.728 121.94 117.788 122.33 117.858C122.72 117.928 123.16 118.028 123.65 118.068L125.18 118.218C127.28 118.328 129.34 118.078 129.17 117.928Z" fill="#FD9254"/>
<path d="M129.6 117.527C130.39 116.457 131.26 117.607 132.26 116.657C131.93 116.957 131.66 117.267 131.36 117.487C131.071 117.696 130.715 117.792 130.36 117.757L129.6 117.527Z" fill="#FD9254"/>
<path d="M132.37 115.137C132.91 115.207 133.37 114.607 133.65 114.657C133.73 115.367 132.81 115.147 132.37 115.137Z" fill="#FD9254"/>
<path d="M132.78 112.227C132.839 112.192 132.903 112.165 132.97 112.147C132.913 112.208 132.863 112.276 132.82 112.347L132.78 112.227Z" fill="#FD9254"/>
<path d="M132.82 112.348L132.91 112.648C132.73 112.578 132.73 112.468 132.82 112.348Z" fill="#FD9254"/>
<path d="M132.97 112.147C133.117 112.011 133.242 111.852 133.34 111.677H133.15C133.37 111.537 133.68 111.107 133.86 111.227C133.38 111.377 133.45 111.587 133.59 111.997L134.39 111.717C134.64 112.737 133.73 112.027 132.97 112.147Z" fill="#FD9254"/>
<path d="M135.3 110.907C135.14 111.227 134.95 111.507 134.77 111.807C134.31 111.367 135.02 111.027 135.3 110.907Z" fill="#FD9254"/>
<path d="M136.73 110.917C136.63 111.157 135.83 111.507 136.43 111.507C136.35 111.677 136.19 111.727 136.03 111.817C136.51 111.417 135.73 111.027 136.73 110.917Z" fill="#FD9254"/>
<path d="M136.05 111.817C135.986 111.872 135.915 111.919 135.84 111.957C135.903 111.901 135.973 111.853 136.05 111.817Z" fill="#FD9254"/>
<path d="M138.6 110.538C138.7 110.48 138.797 110.417 138.89 110.348L138.68 110.528L138.6 110.538Z" fill="#FD9254"/>
<path d="M109.62 112.287C110.052 112.932 110.522 113.55 111.03 114.137C111.342 114.448 111.676 114.736 112.03 114.997C112.425 115.319 112.858 115.591 113.32 115.807C113.73 115.177 114.16 116.137 114.71 115.557C114.25 115.267 114.45 115.397 115 115.717C115.14 115.797 115.29 115.897 115.47 115.987L116.07 116.257C116.5 116.447 116.96 116.667 117.44 116.857C119.44 117.567 121.44 117.797 120.71 117.437L120.14 117.627C120.38 117.427 120.62 117.227 120.85 117.017C121.321 117.308 121.813 117.565 122.32 117.787C122.522 117.915 122.749 117.996 122.986 118.025C123.223 118.055 123.463 118.031 123.69 117.957C123.69 117.957 123.6 117.957 123.38 117.957C123.16 117.957 122.85 117.897 122.46 117.837C122.07 117.777 121.62 117.717 121.14 117.587L119.66 117.167C119.16 117.017 118.66 116.787 118.22 116.617L117.57 116.357L117.01 116.077C116.33 115.727 115.89 115.517 115.94 115.607C115.88 115.317 116.53 115.477 117.49 115.847C117.98 116.037 118.59 116.187 119.23 116.407C119.558 116.512 119.892 116.599 120.23 116.667L121.29 116.907C122.01 117.047 122.74 117.117 123.43 117.217L125.35 117.287C126.026 117.299 126.7 117.212 127.35 117.027L127.5 117.487C128.13 117.211 128.733 116.876 129.3 116.487C129.777 116.111 130.286 115.776 130.82 115.487L131.2 115.987C130.31 115.987 130.15 116.387 129.29 116.797C129.832 116.657 130.39 116.583 130.95 116.577C131.423 116.563 131.889 116.468 132.33 116.297C132.09 115.597 131.26 116.207 132.58 115.427C132.83 115.527 132.78 115.827 132.81 116.057C132.84 116.287 132.99 116.437 133.61 116.127C133.873 116.101 134.125 116.011 134.345 115.864C134.565 115.718 134.745 115.52 134.87 115.287C135.045 114.843 135.386 114.485 135.82 114.287L134.82 114.407C135.366 114.015 136.018 113.799 136.69 113.787C136.16 114.017 134.95 114.957 135.25 115.647C135.75 115.247 137.12 114.987 137.58 114.647L137.52 115.267C138.27 115.427 138.24 114.617 139.12 114.647C139.58 114.017 138.38 114.217 138.61 113.827C138.949 113.799 139.279 113.701 139.579 113.54C139.878 113.378 140.141 113.156 140.35 112.887C139.9 112.517 139.61 112.797 139.27 113.107C138.93 113.417 138.51 113.807 137.87 113.517C138.271 113.385 138.665 113.231 139.05 113.057C139.1 112.387 138.68 112.647 138.24 112.967C137.8 113.287 137.24 113.567 137.24 113.097C137.38 112.387 137.91 112.417 138.43 112.347C138.95 112.277 139.43 112.217 139.43 111.347C138.8 111.417 137.3 112.347 137.29 111.847C138.03 111.897 138.01 110.977 138.63 110.437C139 110.437 139.38 110.317 139.76 110.257C139.92 109.727 139.62 109.927 139.22 109.937C139.656 109.828 140.07 109.642 140.44 109.387C140.84 109.107 141.25 108.767 141.68 108.387C142.516 107.598 143.454 106.925 144.47 106.387C145.31 105.387 144.26 105.927 144.41 105.247C145.35 105.247 145.79 103.997 146.26 103.447C146.44 103.317 146.21 102.597 145.88 102.577C145.58 103.117 145.28 103.657 144.97 104.177C144.905 104.082 144.817 104.005 144.715 103.951C144.614 103.897 144.5 103.869 144.385 103.869C144.27 103.869 144.156 103.897 144.055 103.951C143.953 104.005 143.865 104.082 143.8 104.177C144.41 104.467 143.8 104.787 143.21 105.177C142.62 105.567 141.95 105.937 142.38 106.507L141.95 105.997C141.5 106.587 141.06 107.217 140.56 107.777H140.67C140.61 107.687 140.31 108.067 139.89 108.547C139.444 109.053 138.904 109.467 138.3 109.767C138.46 109.387 140.3 108.407 138.87 108.527C139.36 107.727 140.98 107.177 142.03 105.847L141.49 105.737C142.33 104.127 144.49 103.077 145.72 101.457L145.78 102.297C146.42 101.937 147.39 101.547 147.42 100.707C146.89 101.387 146.91 100.827 146.81 100.537C147.29 99.4571 148.63 98.3371 149.4 96.9071C149.4 96.9071 149.4 97.0471 149.57 97.0371C149.81 96.5271 150.03 95.9871 150.25 95.4571C150.685 95.0231 151.251 94.7453 151.86 94.6671C151.96 94.3671 152.39 93.7671 151.94 93.7971C151.824 93.883 151.731 93.9964 151.67 94.1271C151.61 93.0371 152.18 93.7471 152.44 92.6171C152.44 93.6171 153.25 92.8371 153.67 93.2371C154.17 92.0371 152.89 92.5771 152.77 92.3071C153.9 91.2071 154.41 91.3071 155.36 90.0471C155.11 89.7771 154.55 90.8471 154.15 90.7371C154.47 90.4171 154.73 89.9571 154.66 89.8271L153.91 90.4771C155.164 89.3397 156.156 87.9444 156.82 86.3871H156.59L157.21 85.4371L157.55 86.1371C157.73 85.5271 158.55 85.2771 158.31 84.7271L158.15 84.8871L158.38 84.1271L158.51 85.1271C159.26 84.4471 158.85 82.5771 159.82 81.2771C160.74 81.4671 158.59 83.7871 159.44 84.5671C159.88 84.2171 160.53 83.5671 160.44 83.1271C160.15 83.0071 159.94 83.3271 159.73 83.6471C159.98 82.1471 161.92 80.8871 161.58 79.6471L160.69 80.3371C161.28 79.2371 162.69 79.2271 162.4 78.5171L162.8 79.9571C163.03 78.5971 164.02 77.3171 164.36 76.0971C163.84 75.7071 163.36 77.5271 163.36 77.3871L163.28 76.6471C164.66 75.3371 163.91 76.4371 165.52 74.8171L165.17 74.5471C166.17 74.3271 166.32 71.9371 166.81 73.2471L166.23 73.5771L166.68 73.8471L167.97 71.5471C168.12 71.9871 168.82 70.9271 169.02 71.5471L169.25 70.4971C170.11 70.6271 168.85 72.4371 169.25 72.8671C169.54 73.0471 169.79 72.6671 169.88 72.4671C169.61 73.6971 168.26 73.3671 167.55 74.2671V75.0071L167.04 74.5971C166.907 75.03 166.924 75.4954 167.09 75.9171C165.71 76.3071 165.9 77.9171 164.8 79.1871C165.27 77.8171 163.8 79.5771 163.8 79.2871C163.36 79.9271 163.29 82.1371 162.27 82.2871C161.76 82.4871 162.38 81.2871 161.68 82.0571C161.37 82.6771 161.41 83.2671 161.91 83.0571C161.106 84.5292 160.225 85.9578 159.27 87.3371L159.12 86.7671C158.777 87.0925 158.523 87.5007 158.383 87.9525C158.243 88.4043 158.221 88.8845 158.32 89.3471C158.09 89.3471 158.16 89.5171 158.03 89.2371C156.7 89.9671 157.87 91.1571 156.54 92.8971C157.12 93.1371 157.71 92.3371 157.83 91.5971L158.32 92.1271C159.383 90.5794 160.237 88.8982 160.86 87.1271L160.92 87.9971C162.42 87.3771 160.66 86.7071 162.23 86.2271C162.51 85.3171 161.57 86.5971 161.69 85.8571C162.21 85.4071 162.62 86.6471 163.24 85.7471C161.35 89.3871 158.83 93.3471 156.48 96.9771C156.54 97.1171 156.71 96.9771 156.88 96.7971C156.88 97.6771 154.6 100.277 152.35 102.667C150.1 105.057 147.84 107.207 148.35 107.977C148 107.977 148.28 107.237 147.66 107.927C147.66 108.077 147.66 108.377 147.99 108.407C146.781 109.024 145.691 109.85 144.77 110.847C143.751 111.914 142.54 112.779 141.2 113.397C141.43 113.617 141.01 114.127 141.11 114.307C140.464 114.346 139.85 114.603 139.37 115.037C138.897 115.42 138.343 115.69 137.75 115.827L138.18 116.007L137.52 116.347L136.83 116.647C136.37 116.837 135.92 117.047 135.46 117.227C135.46 117.387 135.8 117.227 136.04 117.227C135.972 117.305 135.885 117.363 135.788 117.397C135.691 117.43 135.587 117.438 135.486 117.418C135.384 117.399 135.29 117.354 135.212 117.287C135.134 117.22 135.075 117.134 135.04 117.037L134.04 118.197C131.97 118.197 129.92 118.827 127.62 119.197C125.285 119.697 122.856 119.517 120.62 118.677C120.24 118.871 119.825 118.986 119.4 119.017C119.174 119.036 118.946 119.036 118.72 119.017C118.449 118.961 118.182 118.887 117.92 118.797L118.42 119.197C117.06 119.197 118.47 118.877 117.37 118.707C116.54 118.777 116.8 119.467 117.88 119.537C118.41 119.967 117.97 120.027 117.48 119.987C117 119.777 116.48 119.577 116.06 119.357C115.64 119.137 115.18 118.837 114.76 118.567L114.13 118.157C113.93 118.017 113.74 117.847 113.55 117.697C113.17 117.377 112.81 117.057 112.46 116.697C111.818 116.041 111.232 115.332 110.71 114.577C110.29 113.842 109.926 113.076 109.62 112.287V112.287Z" fill="#FD9254"/>
<path d="M206.56 67.4073C206.56 67.0073 207.46 68.0673 207.48 67.1573C207.406 66.8389 207.295 66.5302 207.15 66.2373C206.97 65.9673 206.76 65.6873 206.53 65.4073L206.17 64.9973L205.74 64.6473C205.44 64.4173 205.15 64.1573 204.82 63.9473C203.51 63.0773 202.02 62.4773 200.82 61.6273C200.378 61.1955 199.872 60.8346 199.32 60.5573C199.299 60.6696 199.299 60.785 199.32 60.8973C198.93 60.8073 198.4 60.7973 197.88 60.7273C197.389 60.6981 196.903 60.6143 196.43 60.4773C196.2 60.5873 196.03 61.0673 196.43 60.9673C195.892 61.0851 195.329 61.0108 194.84 60.7573C194.36 60.5573 193.93 60.3373 193.6 60.5973C194.23 60.8173 193.07 61.1273 193.8 61.2773C192.58 61.5273 192.4 59.8073 191.29 59.8673C191.29 60.0173 191.22 60.1573 191.44 60.1473C191.08 60.0519 190.7 60.0519 190.34 60.1473C189.952 60.258 189.572 60.3916 189.2 60.5473C188.46 60.8073 187.88 61.0673 187.59 60.5473L187.33 61.1873C186.7 61.0473 186.69 60.7073 185.82 60.9873C185.39 61.4173 186.04 61.3673 185.93 61.6273C185.72 61.4673 185.29 61.6273 184.79 61.7673C184.317 61.9926 183.793 62.0925 183.27 62.0573C183.05 61.7473 183.47 61.7873 183.96 61.7973C184.202 61.8048 184.444 61.7812 184.68 61.7273C184.79 61.7137 184.893 61.6701 184.98 61.6013C185.066 61.5325 185.132 61.4411 185.17 61.3373C185.17 61.1973 185.01 61.2073 184.87 61.2573C185.287 61.0664 185.714 60.8995 186.15 60.7573C186.577 60.6451 187.012 60.5616 187.45 60.5073C188.265 60.3987 189.088 60.3586 189.91 60.3873C190.69 60.3873 191.45 60.4873 192.16 60.3873C192.871 60.4089 193.58 60.3143 194.26 60.1073C194.93 60.5973 195.36 60.1073 195.64 59.5573C195.13 59.3473 193.52 58.9273 193.64 60.0073L192.64 59.4673C192.3 59.5673 192.13 58.5273 191.94 58.3773C192.63 58.3773 193.3 57.2773 192.27 57.0373C193.22 56.8473 193.13 57.4173 193.03 57.9773C192.93 58.5373 192.81 59.0673 193.57 58.8273L193.71 58.0373C193.46 58.4473 194.85 58.7173 195.35 58.4373L195.13 58.3073C197.495 58.3599 199.845 58.6956 202.13 59.3073C204.539 59.9601 206.8 61.0703 208.79 62.5773C208.74 62.7892 208.74 63.0098 208.791 63.2216C208.841 63.4334 208.94 63.6305 209.08 63.7973C209.369 64.0853 209.684 64.3464 210.02 64.5773C210.389 64.7886 210.725 65.0512 211.02 65.3573C211.14 65.5109 211.218 65.6931 211.246 65.886C211.274 66.079 211.251 66.2759 211.18 66.4573C211.67 66.7373 211.3 65.4573 212.05 66.1573C212.108 66.2036 212.152 66.2646 212.178 66.3339C212.204 66.4033 212.21 66.4783 212.197 66.5511C212.184 66.6239 212.151 66.6917 212.102 66.7474C212.053 66.8031 211.99 66.8445 211.92 66.8673L212.3 67.1573C211.651 67.7877 210.785 68.1455 209.88 68.1573C209.377 68.165 208.875 68.101 208.39 67.9673L208 67.8473L207.56 67.7273C207.219 67.6468 206.885 67.5398 206.56 67.4073Z" fill="#FD9254"/>
<path d="M113.81 78.467V80.777C114.299 79.966 115.002 79.3054 115.841 78.8679C116.681 78.4304 117.625 78.2328 118.57 78.297C119.386 78.2669 120.2 78.412 120.955 78.7224C121.711 79.0329 122.391 79.5016 122.95 80.097C124.112 81.4569 124.71 83.2103 124.62 84.997V94.177H119.84V85.647C119.868 85.2211 119.811 84.7939 119.672 84.3904C119.533 83.9869 119.314 83.6152 119.03 83.297C118.74 83.0114 118.394 82.7899 118.013 82.6469C117.633 82.504 117.226 82.4426 116.82 82.467C116.414 82.4445 116.008 82.5067 115.628 82.6496C115.247 82.7925 114.901 83.0129 114.61 83.297C114.043 83.9436 113.755 84.7887 113.81 85.647V94.177H109V78.467H113.81Z" fill="#2C3847"/>
<path d="M129.35 92.1176C128.006 90.4932 127.271 88.4509 127.271 86.3427C127.271 84.2344 128.006 82.1921 129.35 80.5676C129.982 79.8438 130.763 79.2659 131.64 78.8739C132.517 78.482 133.469 78.2854 134.43 78.2977C135.323 78.2532 136.212 78.433 137.018 78.8208C137.823 79.2086 138.518 79.792 139.04 80.5177V78.4677H143.85V94.1776H139.04V91.8976C138.534 92.6742 137.84 93.3093 137.021 93.7431C136.202 94.177 135.286 94.3954 134.36 94.3777C133.412 94.383 132.473 94.184 131.609 93.794C130.744 93.404 129.974 92.8322 129.35 92.1176V92.1176ZM138 89.1877C138.354 88.8032 138.626 88.35 138.798 87.8564C138.97 87.3627 139.039 86.839 139 86.3176C139.039 85.7993 138.971 85.2784 138.799 84.7878C138.627 84.2973 138.355 83.8478 138 83.4677C137.686 83.1503 137.312 82.8985 136.9 82.7269C136.488 82.5552 136.046 82.4671 135.6 82.4677C135.155 82.4645 134.713 82.5514 134.303 82.7233C133.892 82.8952 133.52 83.1484 133.21 83.4677C132.857 83.8528 132.586 84.306 132.414 84.7995C132.242 85.293 132.173 85.8164 132.21 86.3376C132.172 86.8575 132.241 87.3796 132.413 87.8716C132.585 88.3636 132.856 88.815 133.21 89.1976C133.521 89.5179 133.894 89.7724 134.305 89.9463C134.716 90.1201 135.158 90.2097 135.605 90.2097C136.052 90.2097 136.494 90.1201 136.905 89.9463C137.316 89.7724 137.689 89.5179 138 89.1976V89.1877Z" fill="#2C3847"/>
<path d="M154.47 90.0975H156.18V94.1775H153.73C152.273 94.2693 150.828 93.8561 149.64 93.0075C148.64 92.2275 148.19 90.8875 148.19 89.0075V82.4775H146.73V78.4775H148.2V74.6475H153.01V78.4775H156.17V82.4775H153.01V89.0275C153 89.7275 153.49 90.0975 154.47 90.0975Z" fill="#2C3847"/>
<path d="M169.87 78.4678H174.73V94.1778H169.92V91.8678C169.431 92.6788 168.728 93.3394 167.889 93.7769C167.049 94.2144 166.105 94.412 165.16 94.3478C164.344 94.3779 163.531 94.2328 162.775 93.9223C162.02 93.6118 161.339 93.1431 160.78 92.5478C159.61 91.192 159.012 89.4356 159.11 87.6478V78.4678H163.89V87.0278C163.836 87.886 164.124 88.7306 164.69 89.3778C164.983 89.6584 165.33 89.8766 165.71 90.0193C166.09 90.162 166.495 90.2261 166.9 90.2078C167.306 90.2303 167.712 90.1681 168.092 90.0252C168.473 89.8823 168.819 89.6618 169.11 89.3778C169.394 89.0593 169.612 88.6875 169.751 88.2841C169.89 87.8807 169.947 87.4536 169.92 87.0278L169.87 78.4678Z" fill="#2C3847"/>
<path d="M183.44 78.4669V81.3969C184.56 79.3302 186.06 78.2969 187.94 78.2969V83.1969H186.73C185.829 83.1247 184.935 83.4083 184.24 83.9869C183.923 84.3671 183.685 84.8076 183.543 85.282C183.4 85.7563 183.355 86.2546 183.41 86.7469V94.1769H178.59V78.4669H183.44Z" fill="#2C3847"/>
<path d="M191.21 92.1177C189.855 90.4983 189.113 88.4541 189.113 86.3427C189.113 84.2313 189.855 82.1871 191.21 80.5677C191.841 79.8428 192.622 79.2642 193.5 78.8721C194.377 78.4801 195.329 78.2841 196.29 78.2977C197.181 78.253 198.07 78.4329 198.873 78.8208C199.677 79.2087 200.37 79.7921 200.89 80.5177V78.4677H205.73V94.1777H200.91V91.8977C200.407 92.6741 199.714 93.3093 198.897 93.7432C198.079 94.1772 197.165 94.3956 196.24 94.3777C195.288 94.386 194.346 94.1883 193.478 93.7982C192.61 93.4081 191.836 92.8348 191.21 92.1177V92.1177ZM199.85 89.1877C200.204 88.8032 200.476 88.3501 200.648 87.8564C200.82 87.3628 200.889 86.839 200.85 86.3177C200.889 85.7993 200.821 85.2784 200.649 84.7879C200.477 84.2973 200.205 83.8478 199.85 83.4677C199.537 83.1499 199.165 82.8975 198.753 82.7253C198.342 82.553 197.901 82.4643 197.455 82.4643C197.009 82.4643 196.568 82.553 196.157 82.7253C195.745 82.8975 195.373 83.1499 195.06 83.4677C194.707 83.8528 194.436 84.306 194.264 84.7995C194.092 85.293 194.023 85.8164 194.06 86.3377C194.022 86.8575 194.091 87.3796 194.263 87.8717C194.435 88.3637 194.706 88.815 195.06 89.1977C195.374 89.515 195.748 89.7668 196.16 89.9385C196.572 90.1101 197.014 90.1982 197.46 90.1977C197.906 90.199 198.347 90.1102 198.758 89.9366C199.169 89.7631 199.54 89.5083 199.85 89.1877V89.1877Z" fill="#2C3847"/>
<path d="M209.65 94.1769V73.3369H214.46V94.1769H209.65Z" fill="#2C3847"/>
<path d="M114.19 96.9277V101.648H113.41V98.4177L111.97 101.648H111.43L109.98 98.4177V101.648H109.21V96.9277H110.05L111.7 100.628L113.36 96.9277H114.19Z" fill="#2C3847"/>
<path d="M119.56 101.648V96.9277H120.33V101.648H119.56Z" fill="#2C3847"/>
<path d="M128.81 96.917H129.58V101.647H128.81L126.48 98.117V101.647H125.73V96.917H126.51L128.84 100.437L128.81 96.917Z" fill="#2C3847"/>
<path d="M137.57 96.9175V97.5275H135.73V98.9575H137.36V99.5575H135.73V101.027H137.57V101.627H134.96V96.8975L137.57 96.9175Z" fill="#2C3847"/>
<path d="M143.64 99.7371V101.647H142.87V96.9271H144.5C144.949 96.8958 145.394 97.0391 145.74 97.3271C145.88 97.4523 145.991 97.6068 146.066 97.7795C146.14 97.9522 146.176 98.1391 146.17 98.3271C146.175 98.6355 146.072 98.9359 145.88 99.1771C145.662 99.4507 145.347 99.6298 145 99.6771L146.25 101.677H145.3L144.12 99.7671L143.64 99.7371ZM143.64 97.5271V99.1271H144.5C144.618 99.1374 144.738 99.1242 144.851 99.0881C144.964 99.0521 145.069 98.9939 145.16 98.9171C145.302 98.7534 145.38 98.5439 145.38 98.3271C145.38 98.1103 145.302 97.9008 145.16 97.7371C145.069 97.6602 144.964 97.6021 144.851 97.566C144.738 97.53 144.618 97.5168 144.5 97.5271H143.64Z" fill="#2C3847"/>
<path d="M154.73 101.647L154.39 100.647H152.39L152.05 101.647H151.24L152.93 96.917H153.83L155.52 101.647H154.73ZM152.62 100.077H154.18L153.4 97.857L152.62 100.077Z" fill="#2C3847"/>
<path d="M160.61 96.9277H161.38V101.028H162.98V101.618H160.61V96.9277Z" fill="#2C3847"/>
<path d="M179.73 96.927H180.56L179.16 101.647H178.28L177.28 98.077L176.28 101.647H175.41L174.07 96.917H174.89L175.89 100.767L176.95 96.917H177.73L178.73 100.747L179.73 96.927Z" fill="#2C3847"/>
<path d="M188.73 101.647L188.39 100.647H186.39L186.05 101.647H185.24L186.93 96.917H187.83L189.52 101.647H188.73ZM186.62 100.077H188.18L187.4 97.857L186.62 100.077Z" fill="#2C3847"/>
<path d="M194.35 97.5277V96.9277H197.65V97.5277H196.39V101.648H195.62V97.5277H194.35Z" fill="#2C3847"/>
<path d="M205.4 96.9175V97.5275H203.56V98.9575H205.19V99.5575H203.56V101.027H205.4V101.627H202.79V96.8975L205.4 96.9175Z" fill="#2C3847"/>
<path d="M211.47 99.7371V101.647H210.73V96.9271H212.36C212.809 96.8958 213.254 97.0391 213.6 97.3271C213.74 97.4523 213.851 97.6068 213.926 97.7795C214 97.9522 214.036 98.1391 214.03 98.3271C214.035 98.6355 213.932 98.9359 213.74 99.1771C213.522 99.4507 213.207 99.6298 212.86 99.6771L214.11 101.677H213.11L211.93 99.7671L211.47 99.7371ZM211.47 97.5271V99.1271H212.33C212.569 99.1457 212.806 99.0704 212.99 98.9171C213.132 98.7534 213.21 98.5439 213.21 98.3271C213.21 98.1103 213.132 97.9008 212.99 97.7371C212.806 97.5838 212.569 97.5084 212.33 97.5271H211.47Z" fill="#2C3847"/>
<defs>
<filter id="filter0_d_2696_16395" x="0" y="0" width="324" height="197" filterUnits="userSpaceOnUse" color-interpolation-filters="sRGB">
<feFlood flood-opacity="0" result="BackgroundImageFix"/>
<feColorMatrix in="SourceAlpha" type="matrix" values="0 0 0 0 0 0 0 0 0 0 0 0 0 0 0 0 0 0 127 0" result="hardAlpha"/>
<feOffset dy="10"/>
<feGaussianBlur stdDeviation="15"/>
<feColorMatrix type="matrix" values="0 0 0 0 0.19 0 0 0 0 0.260533 0 0 0 0 0.343333 0 0 0 0.06 0"/>
<feBlend mode="normal" in2="BackgroundImageFix" result="effect1_dropShadow_2696_16395"/>
<feBlend mode="normal" in="SourceGraphic" in2="effect1_dropShadow_2696_16395" result="shape"/>
</filter>
</defs>
</svg>
