<svg width="324" height="197" viewBox="0 0 324 197" fill="none" xmlns="http://www.w3.org/2000/svg">
<g filter="url(#filter0_d_2696_16339)">
<rect x="30" y="20" width="264" height="137" fill="white"/>
</g>
<path d="M154.19 53.3001L155.04 52.9001C153.55 51.9701 149.38 50.9001 145.92 49.8301L148.12 50.7001C147.65 50.9901 149.53 51.7901 149.39 52.1401C149.55 51.3301 152.48 52.8901 154.19 53.3001Z" fill="#FC8156"/>
<path d="M160.42 53.8904L154.55 52.4404L156.87 53.4204L160.42 53.8904Z" fill="#FC8156"/>
<path d="M159.41 54.8701C159.711 55.0309 160.026 55.1648 160.35 55.2701C160.046 55.1158 159.732 54.9821 159.41 54.8701Z" fill="#FC8156"/>
<path d="M168.27 56.6998C165.618 56.018 163.013 55.1662 160.47 54.1498C161.118 54.4986 161.786 54.8092 162.47 55.0798C160.64 54.5598 158.11 54.0798 155.96 53.5098C156.76 54.2598 158.05 54.3698 159.41 54.8498C159.06 54.6498 158.96 54.4898 159.62 54.5598C161.55 55.6498 163.03 55.3698 164.84 56.3498L162.94 55.9998C163.04 56.5798 166.94 56.6398 166.57 57.4998C169.25 57.6398 164.91 56.1998 168.27 56.6998Z" fill="#FC8156"/>
<path d="M170.15 57.5303C169.95 57.5303 169.89 57.6103 169.93 57.6803C169.97 57.7503 170.23 57.6003 170.15 57.5303Z" fill="#FC8156"/>
<path d="M169.54 58.1597C171.49 58.7997 174.54 59.7197 175.24 59.2097C173.32 58.1097 172.78 58.5697 171.76 58.5697C171.119 58.3417 170.505 58.0432 169.93 57.6797C169.57 57.7497 169 57.8097 169.54 58.1597Z" fill="#FC8156"/>
<path d="M178.83 60.42L177.83 60.25V59.79C177.345 59.9966 176.823 60.1031 176.295 60.1031C175.768 60.1031 175.245 59.9966 174.76 59.79C175.69 60.43 176.15 60.14 177.15 60.6L178.83 60.42Z" fill="#FC8156"/>
<path d="M176.56 57.3098C175.353 57.1453 174.138 57.0452 172.92 57.0098C175.19 57.2498 178.82 59.0098 178.58 57.7998C177.857 57.576 177.113 57.4286 176.36 57.3598L176.56 57.3098Z" fill="#FC8156"/>
<path d="M178.71 57.8398C179.817 58.3745 181.008 58.7129 182.23 58.8398C181.14 58.5198 179.83 58.1398 178.71 57.8398Z" fill="#FC8156"/>
<path d="M178.58 57.8005H178.71L178.58 57.7305V57.8005Z" fill="#FC8156"/>
<path d="M183.34 62.2699L180.39 61.1699L181.07 61.5799L183.34 62.2699Z" fill="#FC8156"/>
<path d="M180.29 59.3903C182.67 60.2003 179.11 58.5203 181.38 59.2103C182.01 59.3303 178.04 58.2103 177.78 58.4603C178.34 58.7503 180.19 58.8103 180.29 59.3903Z" fill="#FC8156"/>
<path d="M187.71 63.6996C188.71 63.6996 190.15 64.7995 191.41 65.0295L192 64.8596C189.17 64.6396 189.11 63.1396 187.71 63.6996Z" fill="#FC8156"/>
<path d="M198.35 66.3297C197.96 66.4397 197.21 66.2097 197.26 66.4997C196.38 66.1497 196.65 65.9197 196.08 65.6297C194.43 65.5097 192.08 64.5297 190.78 64.4697C191.194 64.5491 191.595 64.6871 191.97 64.8797C194.28 65.8797 197.65 66.3797 199.18 67.5997C198.89 67.0797 200.42 67.0797 198.35 66.3297Z" fill="#FC8156"/>
<path d="M189.35 62.1497C188.83 61.9797 188.35 61.8096 187.89 61.6396C188.346 61.8913 188.839 62.0701 189.35 62.1696V62.1497Z" fill="#FC8156"/>
<path d="M189.71 62.0501C190.5 61.8201 192.3 62.8001 192.76 62.5201C192.76 62.3101 191.67 61.8701 191.36 61.6601C190.67 62.2701 188.63 60.8201 189.36 62.1501C190.171 62.413 190.995 62.63 191.83 62.8001L189.71 62.0501Z" fill="#FC8156"/>
<path d="M185.79 60.4902L184.79 60.7802C185.833 60.9932 186.859 61.2806 187.86 61.6402C187.41 61.3002 187.8 61.0502 185.79 60.4902Z" fill="#FC8156"/>
<path d="M191.39 61.6999C191.432 61.6612 191.469 61.6176 191.5 61.5699C191.26 61.5199 191.27 61.5699 191.39 61.6999Z" fill="#FC8156"/>
<path d="M201.19 65.6302L200.44 65.4102L200.66 65.5002L201.14 65.6902L201.68 65.8902C202.23 66.0802 202.77 66.2602 203.32 66.4302C202.9 66.2502 202.46 66.0802 201.98 65.9002L201.19 65.6302Z" fill="#FC8156"/>
<path d="M198.94 64.6999C199.6 65.0899 199.83 65.4399 198.79 65.2499L197.93 64.4399L195.06 64.3799C197.23 64.4999 199.26 66.1699 199.93 65.3799L200.86 66.0099L200.45 65.3899L199.77 65.0999L198.94 64.6999Z" fill="#FC8156"/>
<path d="M206.71 67.1704L206.84 67.2804C205.654 67.0884 204.484 66.8076 203.34 66.4404L203.62 66.5604C204.432 66.9062 205.215 67.3176 205.96 67.7904C205.31 69.0804 204.72 70.0805 204.28 70.9005C204.13 71.1805 203.99 71.4404 203.88 71.7004C203.88 71.7504 203.79 71.7704 203.75 71.7004C203.744 71.0813 203.925 70.4747 204.27 69.9604C204.61 69.3304 205.05 68.5904 205.27 68.1404C205.184 68.0828 205.083 68.0521 204.98 68.0521C204.877 68.0521 204.776 68.0828 204.69 68.1404C204.77 68.2149 204.853 68.285 204.94 68.3504C204.499 69.1971 204.115 70.0724 203.79 70.9704C203.63 71.3804 203.49 71.7404 203.36 71.9704C203.268 72.2151 203.129 72.4393 202.95 72.6304C202.95 73.1104 203.54 71.9304 203.34 73.1704C203.02 74.0784 202.524 74.9143 201.88 75.6304L201.98 76.7604C201.36 76.7604 200.88 78.6604 200.33 80.7004C200.92 79.3604 201.53 77.9804 202.13 76.5304C202.47 75.7104 202.81 74.8504 203.13 73.9704C203.19 73.7904 203.26 73.6004 203.33 73.4204C202.85 77.0604 200.97 80.0404 200 83.6304C199.88 85.5104 200.75 82.0004 201.05 81.8904C201.69 82.6304 200.12 83.4904 200.52 84.5004C201.03 84.9104 202.25 80.9804 203.06 79.5004C203.39 78.1304 203.2 78.0904 203 77.5804C203.43 77.3404 203.94 75.9904 204.36 75.7404C204.446 75.0783 204.594 74.4255 204.8 73.7904C204.89 73.5004 204.99 73.2304 205.09 72.9604C205.19 72.6904 205.32 72.3604 205.43 72.0504C206.037 70.5813 206.477 69.0482 206.74 67.4804C206.798 67.3703 206.876 67.2719 206.97 67.1904L206.71 67.1704Z" fill="#FC8156"/>
<path d="M206.97 67.2497L206.45 68.9997C206.26 69.5297 206.45 69.0897 206.66 68.4997C206.87 67.9097 207.09 67.2097 206.97 67.2497Z" fill="#FC8156"/>
<path d="M198.94 64.7004C198.79 64.6104 198.63 64.5304 198.45 64.4404C198.609 64.5356 198.772 64.6224 198.94 64.7004Z" fill="#FC8156"/>
<path d="M195.54 63.64L194.04 63.21C194.517 63.425 195.022 63.5699 195.54 63.64Z" fill="#FC8156"/>
<path d="M197.27 63.6203C194.97 62.7103 196.2 63.6203 195.54 63.6203L197.69 64.2303L197.27 63.6203Z" fill="#FC8156"/>
<path d="M199.92 85.7003C199.92 86.9703 200.6 85.7003 200.92 84.2803C200.53 85.5203 200.06 86.0703 199.92 85.7003Z" fill="#FC8156"/>
<path d="M192.57 100.7C192.37 100.78 192.14 101.13 191.97 102.13C192.234 101.683 192.436 101.202 192.57 100.7Z" fill="#FC8156"/>
<path d="M203.71 70.1699C203.71 70.3299 203.61 70.4899 203.55 70.6499C203.614 70.4936 203.667 70.3333 203.71 70.1699Z" fill="#FC8156"/>
<path d="M196.4 89.5398L196.53 89.3398C196.484 89.3994 196.444 89.4629 196.41 89.5298L196.4 89.5398Z" fill="#FC8156"/>
<path d="M143.23 50.1704L142.17 49.9004C142.522 50.0125 142.879 50.106 143.24 50.1804L143.23 50.1704Z" fill="#FC8156"/>
<path d="M144.39 49.8598C144.077 49.6128 143.743 49.3952 143.39 49.2098C142.93 48.9919 142.436 48.8533 141.93 48.7998C142.364 48.9866 142.779 49.2143 143.17 49.4798C143.28 49.5798 143.17 49.5798 143.02 49.5798C142.87 49.5798 142.71 49.5798 142.7 49.6398C142.69 49.6998 142.84 49.8698 143.24 50.1698C144.52 50.4998 145.82 50.8298 147.07 51.1198C146.099 50.8901 145.186 50.461 144.39 49.8598Z" fill="#FC8156"/>
<path d="M147.06 51.1201C147.26 51.1801 147.47 51.2301 147.7 51.2801L147.06 51.1201Z" fill="#FC8156"/>
<path d="M171.78 56.9004H171.65C171.88 56.9304 172 56.9404 171.78 56.9004Z" fill="#FC8156"/>
<path d="M136.03 120.35C136.58 120.64 137.93 120.7 138.93 121.16C138.05 120.81 136.56 119.89 136.03 120.35Z" fill="#FC8156"/>
<path d="M135.47 122.48V122.38C135.33 122.38 135.15 122.38 134.94 122.38L135.47 122.48Z" fill="#FC8156"/>
<path d="M135.62 122.13L135.51 122.38C135.81 122.39 135.93 122.33 135.62 122.13Z" fill="#FC8156"/>
<path d="M131.57 121.2L133.52 121.84C133.37 122.19 133.3 122.36 132.11 121.95C132.751 122.201 133.425 122.359 134.11 122.42L133.67 122.25C134.102 122.245 134.533 122.276 134.96 122.34C133.25 121.76 132.19 120.47 131.57 121.2Z" fill="#FC8156"/>
<path d="M128.71 120.7C129.46 120.93 131.29 121.45 130.88 120.82L128.71 120.7Z" fill="#FC8156"/>
<path d="M125.92 119.24C128.1 120.24 127.02 119.24 128.38 119.55C128.017 119.415 127.636 119.331 127.25 119.3C128.38 119.87 126.43 119.24 125.92 119.24Z" fill="#FC8156"/>
<path d="M128.38 119.55C128.569 119.615 128.763 119.665 128.96 119.7L128.38 119.55Z" fill="#FC8156"/>
<path d="M150.11 123.77L150.04 123.54C149.91 123.57 149.89 123.63 150.11 123.77Z" fill="#FC8156"/>
<path d="M121.43 117.32L121.21 117.23L120.21 116.96L121.43 117.32Z" fill="#FC8156"/>
<path d="M117.87 109.18V109.13C117.87 109.13 117.89 109.12 117.87 109.18Z" fill="#FC8156"/>
<path d="M196.28 88.96C196.97 87.42 196.28 90.13 196.93 88.87C196.77 90.52 195.11 92.21 194.62 95.08C194.82 94.08 195.1 94.56 195.04 95.08C194.26 96.82 193.52 99.81 192.94 101.63C192.983 101.602 193.034 101.588 193.085 101.588C193.136 101.588 193.187 101.602 193.23 101.63C192.712 102.89 192.128 104.122 191.48 105.32C188.71 111.78 186.73 121.19 184.07 126.55C183.07 128.17 184.15 124.55 183.7 125.21C183.43 126.934 183.297 128.676 183.3 130.42C178.316 128.287 173.215 126.44 168.02 124.89C167.23 124.78 166.52 124.76 167.53 125.25C169.31 125.48 170.05 126.17 168.7 126.11C166.8 125.76 169.04 125.71 166.7 125.47L167.7 125.94C166.185 125.446 164.59 125.246 163 125.35C154.78 122.17 145.18 121.06 138.19 117.83L135.5 117.71C135.5 117.42 135.28 117.02 134.02 116.79C134.46 116.96 135.22 117.19 135.02 117.25L129.41 115.57L129.9 116.03C128.8 115.564 127.658 115.203 126.49 114.95C125.403 114.761 124.363 114.36 123.43 113.77C123.34 113.94 122.35 113.77 122.21 114.02C121.78 113.83 121.35 113.66 120.92 113.49C121.28 112.49 121.57 111.55 121.85 110.59C122.2 109.34 122.56 108.08 122.85 106.86C123.463 104.534 124.276 102.266 125.28 100.08C124.94 100.45 124.94 99.94 124.88 99.74C125.4 97.91 125.23 99.37 125.57 99.01C124.31 97.79 133.57 74.56 133.65 71.37C133.47 71.81 133.3 72.25 133.24 72.05C134.36 68.21 135.53 64.23 136.69 60.26C137.26 58.26 137.83 56.26 138.4 54.35L139.15 51.66L139.81 49.24L142.07 49.83C141.14 49.53 140.94 49.24 140.83 48.96C140.72 48.68 140.74 48.41 139.98 48.09C139.28 48.01 139.83 48.27 140.27 48.48C140.71 48.69 141.05 48.88 140.19 48.74C139.886 48.5468 139.573 48.3699 139.25 48.21C138.988 48.7469 138.878 49.345 138.93 49.94C138.941 50.2308 138.904 50.5214 138.82 50.8C138.681 51.2133 138.482 51.6041 138.23 51.96C138.23 51.4334 138.25 50.8533 138.29 50.22C137.91 52.1 137.51 53.86 137 55.82C136.49 57.78 135.91 59.82 135.33 61.67L134.87 61.14C134.7 62.6 134.06 64.55 133.49 64.64C134.93 60.31 133.84 59.16 135.23 56.64C135.34 57.03 135.23 56.83 135.51 56.59C135.477 55.7877 135.52 54.984 135.64 54.19C135.713 53.6907 135.816 53.1965 135.95 52.71C136.017 52.4634 136.097 52.2134 136.19 51.96L136.37 51.45C136.45 51.27 136.52 51.08 136.59 50.9V51.7C136.579 51.8865 136.579 52.0735 136.59 52.26C137.16 50.42 137.74 48.51 138.31 46.62L142.37 47.85L144.21 48.37L145.71 48.7C144.9 48.18 145.93 48.18 147.32 48.53C149.39 49.28 146.61 48.58 147.42 49.11C148.52 50.11 152.54 50.32 154.05 50.79C153.54 50.79 158 52.35 155.15 51.79C158.42 52.95 161.04 52.79 163.02 54.17C163.754 53.9924 164.518 53.972 165.26 54.11L165.04 54.63L166.26 54.58C168.48 55.26 169.26 56.65 171.64 56.87C171.2 56.78 170.31 56.55 170.33 56.25C170.67 55.85 174.96 57.01 174.33 56.14L172.33 55.97C173.11 55.74 170.65 55.1 171.23 54.97L166.12 53.7V53.24L167.24 53.82C168.99 53.3 164.78 53.18 163.48 52.2L163.34 52.54C159.07 50.93 161.65 51.68 158.14 50.29L156.93 50.35C156.73 50.4 160.29 50.87 160.07 51.35C157.66 51 154.51 49.96 151.91 49.67L153.91 49.36C152.97 49.36 151.71 48.12 149.42 47.53L151.42 48.46C150.024 48.4529 148.642 48.1779 147.35 47.65C146.55 47.39 145.72 47.12 144.91 46.88L144.25 46.7L143.25 46.43C142.583 46.2567 141.963 46.1167 141.39 46.01C142.66 46.4 143.94 46.79 144.07 47.1C142.138 46.7136 140.251 46.1271 138.44 45.35C138.44 44.85 141.31 45.58 144.03 46.35L144.51 46.47L144.79 46.54L145.32 46.66C145.67 46.74 145.98 46.8 146.23 46.84C146.74 46.91 147.03 46.89 146.91 46.65C146.323 46.4573 145.726 46.3004 145.12 46.18L144.68 46.1L144.35 46.03L143.95 45.94L142.43 45.61C140.43 45.21 138.82 44.94 137.43 44.61C137.231 45.4731 136.984 46.3244 136.69 47.16C136.81 46.16 136.94 45.11 137.1 44H137.28H137.08L136.42 46.77L136.7 46C136.63 46.8936 136.421 47.7708 136.08 48.6C135.91 49.08 135.73 49.6 135.54 50.12C135.45 50.39 135.36 50.66 135.28 50.94L135.17 51.35L135.11 51.56V51.69V51.57V51.36V50.94V50.06L134.22 52.98L134.45 52.74C133.658 56.1826 132.574 59.5514 131.21 62.81L132.02 60.93C131.941 61.6694 131.745 62.3916 131.44 63.07C131.85 62.9 132.44 60.44 132.71 60.71C131.71 63.86 131.15 64.14 129.94 67.22C130.05 67.61 131.38 65.44 130.8 68.1C130.4 67.75 129.53 69.95 129.59 68.1C129.26 70.42 128.72 69.68 128.72 71.61C128.796 71.3167 128.893 71.0292 129.01 70.75C129.47 70.26 129.01 71.75 128.89 72.41C128.166 73.3254 127.601 74.3566 127.22 75.46L126.47 79.06C126.35 79.19 126.29 78.99 126.29 78.99C125.48 82.4 124.09 85.91 123.63 88.45C123.74 88.84 123.74 89.86 124.26 88.03C124.26 89.57 123.26 91.37 122.64 92.81L122.53 91.4C121.37 95.69 119.18 100.57 118.53 104.56L119.1 103.96C118.88 104.88 118.63 105.79 118.35 106.67C118.21 107.11 118.07 107.54 117.94 107.96L117.51 109.24C116.56 112.24 115.7 114.92 115.34 116.69C115.88 115.41 116.11 114.99 116.16 115.05C116.136 115.507 116.045 115.959 115.89 116.39C117.51 116.83 119.89 117.55 120.62 117.68C119.28 117.2 117.71 116.68 116.1 116.28C116.61 114.47 117.1 112.68 117.42 111.28C117.7 110.2 117.92 109.37 118.01 109.17C117.973 109.196 117.942 109.23 117.92 109.27L119.03 104.27L119.55 104.48C118.46 103.85 122.04 98.03 120.71 98.66C121.06 97.27 121.71 96.85 121.93 97.12L122.74 93.2C123.08 92.84 123.37 93.81 123.2 94.25C122.73 95.76 122.44 98.36 121.46 99.66C121.4 101 122.38 98.66 121.69 101.46C120.804 103.511 120.055 105.619 119.45 107.77L118.32 111.57C117.86 113.07 117.41 114.49 116.94 115.82C117.56 116.04 118.13 116.26 118.66 116.49C117.66 115.99 116.58 115.66 118.31 115.87C119.25 116.3 120.26 116.76 121.31 117.24C122.05 117.42 122.74 117.57 123.31 117.65L124.4 117.75C125.063 117.769 125.711 117.948 126.29 118.27C126.58 118.18 125.78 117.85 124.77 117.47L123.1 116.85C122.41 116.6 121.81 116.37 121.46 116.21C122.13 116.126 122.81 116.177 123.46 116.36C123.594 116.391 123.724 116.435 123.85 116.49L124.2 116.63L124.9 116.98C125.78 117.582 126.836 117.874 127.9 117.81C128.9 117.35 122.97 116.54 124.84 116.13L127.36 117.06C126.549 116.441 125.591 116.045 124.58 115.91C123.67 115.71 122.64 115.48 122.58 114.99C123.339 115.064 124.083 115.246 124.79 115.53C125.367 115.712 125.923 115.954 126.45 116.25C127.28 116.31 125.16 115.25 126.62 115.45C127.99 116.25 128.84 115.85 129.89 116.6L129.11 116.83C130.18 117.12 132.82 118.16 134.11 118.39C134.02 119.03 130.85 118.45 129.65 118.04C130.916 118.679 132.261 119.146 133.65 119.43L131.77 118.62C134.67 119.43 134.28 118.34 137.54 119.49C140.32 120.19 138.08 120.24 138.89 120.76C142.05 121.34 139.96 121.05 140.05 120.42C142.51 121.06 143.05 121.52 146.22 122.42C144.32 122.07 143.73 122.24 141.98 121.55L142.39 122.18C144.93 122.65 146.98 122.65 150.02 123.12L150.17 123.58C150.87 123.43 174.39 130.51 173.17 129.34C173.49 129.54 168.47 128.03 164.04 126.71L164.32 126.63C168 127.46 178.38 130.3 175.32 129.46C175.73 128.88 177.22 129.81 177.32 129.17C179.391 129.606 181.435 130.163 183.44 130.84C183.56 133.26 184.27 134.1 185.37 133.92L185.52 132.97C185.62 133.05 186.04 133.08 186.25 132.05C186.56 130.49 186.01 131.51 185.77 131.61H185.69C185.673 131.528 185.673 131.442 185.69 131.36C187.58 129.54 186.9 124.36 189.12 122.45C191.75 112.94 194.9 101.45 197.75 93.01L197.5 93.4C197.6 92.4 198.5 90.17 198.79 90.2L198.4 89.66C199.14 86.39 199.61 91.75 200.6 88.1C199.73 89.86 199.37 88.05 199.88 86.7C199.64 86.98 198.79 86.7 198.61 87.46L197.47 89.25C198.3 89.58 196.93 92.67 196.4 93.74C196.396 93.6968 196.396 93.6532 196.4 93.61C196.52 93.18 196.48 93.24 196.4 93.48C196.29 92.9832 196.287 92.4688 196.39 91.9707C196.494 91.4726 196.702 91.002 197 90.59C197.333 89.1238 197.76 87.6808 198.28 86.27C197.309 86.8945 196.599 87.8505 196.28 88.96ZM157.9 124.96L158.7 125.21L157.7 124.94L157.9 124.96ZM163.48 126.6L162.94 126.44C162.89 126.38 163.3 126.44 164.01 126.6H163.48Z" fill="#FC8156"/>
<path d="M198.06 86.19C198.595 85.7283 199.002 85.1357 199.24 84.47C199.24 84.36 199.15 84.24 199.07 84.33C199.587 83.1761 199.999 81.9779 200.3 80.75C200.21 80.95 200.12 81.14 200.04 81.34C199.32 82.97 198.65 84.57 198.06 86.19Z" fill="#FC8156"/>
<path d="M198.65 90.1201L198.73 90.2301C198.71 90.1601 198.71 90.1301 198.65 90.1201Z" fill="#FC8156"/>
<path d="M124.77 88.1898C124.77 88.5598 124.58 88.5598 124.64 88.8798C124.472 89.6773 124.221 90.4549 123.89 91.1998C123.51 92.1998 123.07 93.1998 122.7 94.1998C122.13 95.3298 121.57 96.3298 121 97.3998C120.75 97.8398 117.8 101.61 117.49 101.86C116.67 102.42 115.29 104.05 114.54 104.55C113.639 105.009 112.69 105.368 111.71 105.62C110.898 105.726 110.075 105.705 109.27 105.56C107.95 105.37 106 103.43 105.38 102.17C105.024 101.641 104.729 101.074 104.5 100.48C104.232 99.4722 104.064 98.4405 104 97.3998C104 92.1298 104.62 91.3998 106.13 86.2898C106.25 85.8498 106.32 85.4798 106.44 85.0398C106.531 84.6097 106.658 84.1882 106.82 83.7798C107.01 83.0898 107.2 82.3998 107.38 81.7798C107.7 80.3998 109.38 78.0098 107.82 77.6998C107.38 77.6298 107.01 77.6998 106.63 77.3798C106.25 77.0598 105.88 76.9398 105.5 76.6898C105.312 76.5529 105.178 76.3549 105.12 76.1298C105.221 76.0726 105.328 76.0289 105.44 75.9998L108.01 75.4398C108.611 75.3181 109.219 75.2346 109.83 75.1898C109.969 75.1631 110.099 75.1026 110.209 75.0137C110.319 74.9247 110.405 74.81 110.46 74.6798C110.706 74.1957 110.917 73.6944 111.09 73.1798C111.71 71.9898 112.15 70.7298 112.84 69.5998C113.411 68.6354 114.107 67.751 114.91 66.9698C115.044 66.7896 115.192 66.6192 115.35 66.4598C115.46 66.3599 115.59 66.2857 115.732 66.2424C115.874 66.1992 116.023 66.1881 116.17 66.2098C116.55 66.3398 116.92 66.1498 117.36 66.1498C117.42 66.1498 117.42 66.1498 117.49 66.0898C118.37 65.8998 118.68 66.2798 118.93 66.9698C119.236 67.5911 119.387 68.2774 119.37 68.9698C119.376 69.3069 119.419 69.6424 119.5 69.9698C119.56 70.26 119.56 70.5595 119.5 70.8498C119.43 71.1598 119.37 71.4698 119.31 71.8498C119.25 72.2298 119.06 72.8498 118.93 73.3598C118.939 73.5287 118.919 73.6979 118.87 73.8598C119.063 73.9633 119.283 74.0051 119.5 73.9798L121.82 73.7998H125.08C125.48 73.8348 125.878 73.8949 126.27 73.9798C126.196 74.1125 126.113 74.2395 126.02 74.3598C125.893 74.4881 125.744 74.5931 125.58 74.6698C125.14 74.8598 124.64 75.1098 124.2 75.2998C124.2 75.3157 124.194 75.331 124.182 75.3422C124.171 75.3535 124.156 75.3598 124.14 75.3598C123.418 75.5349 122.682 75.642 121.94 75.6798C121.493 75.6791 121.049 75.7431 120.62 75.8698C120.356 75.9567 120.085 76.0202 119.81 76.0598L118.37 76.2398C118.11 76.3098 117.99 76.4898 117.86 76.7498C117.8 76.8098 117.8 76.8698 117.74 76.9298C116.99 79.0698 115.98 81.0798 115.16 83.1498C115.043 83.3734 114.939 83.6038 114.85 83.8398C114.537 84.4395 114.286 85.0694 114.1 85.7198C113.892 86.2934 113.616 86.8405 113.28 87.3498C113.03 87.7898 113.09 88.3498 112.78 88.7898C111.858 91.6078 111.392 94.5549 111.4 97.5198C111.479 98.5039 111.691 99.4727 112.03 100.4C112.176 100.681 112.365 100.937 112.59 101.16C112.66 101.16 112.72 101.22 112.84 101.22C113.607 101.3 114.383 101.194 115.1 100.91C115.48 100.65 117.36 99.1498 117.74 98.8298C119.138 97.4696 120.379 95.9567 121.44 94.3198C122.01 93.2498 122.32 91.8698 122.88 90.8598C123.13 90.2398 123.76 88.8598 124.08 88.1698C124.39 88.2498 124.83 87.9998 124.77 88.1898ZM115.04 78.8998C115.67 77.3298 115.86 76.0798 113.78 77.3898C113.09 79.4598 112.84 80.9098 112.28 82.8498C110.9 88.0598 112.91 84.1698 113.78 81.8498C114.134 80.8394 114.555 79.8539 115.04 78.8998ZM116.99 71.6798C117.05 71.4298 117.11 71.1198 117.17 70.7998C117.24 70.2998 117.36 69.7998 117.42 69.2998C117.465 68.7327 117.445 68.1623 117.36 67.5998C117.3 67.3498 117.11 67.2898 116.99 67.4198C116.737 67.5587 116.537 67.7764 116.42 68.0398C116.148 68.5573 115.937 69.1042 115.79 69.6698C115.73 69.8598 115.6 70.0498 115.54 70.2398C115.48 70.4298 115.29 70.7398 115.16 71.0598C115.04 71.6798 114.91 72.3698 114.73 73.0598C114.47 74.6898 116.23 74.7598 116.61 73.6298C116.71 72.9998 116.86 72.3698 116.99 71.6998V71.6798Z" fill="#2C3847"/>
<path d="M128.71 90.3802C129.557 88.2791 130.518 86.226 131.59 84.2302C131.985 83.6713 132.343 83.0866 132.66 82.4802C133.037 81.9858 133.371 81.4607 133.66 80.9102C133.761 80.7184 133.903 80.551 134.076 80.4197C134.249 80.2884 134.448 80.1965 134.66 80.1502C135.1 80.1502 135.47 80.0902 135.85 80.0902C136.6 80.0902 137.04 80.6602 137.42 81.4702V81.7002C137.54 82.5202 137.73 83.4002 137.86 84.2802C137.94 85.1143 137.96 85.9532 137.92 86.7902C137.95 87.3531 137.95 87.9173 137.92 88.4802C138.23 88.6702 138.17 88.9202 138.23 88.8602C138.29 88.8002 138.8 88.9202 138.93 88.7902C139.06 88.6602 139.11 88.6102 139.18 88.4802C139.459 88.2838 139.711 88.0519 139.93 87.7902C140.12 87.4802 140.31 87.4802 140.56 87.7902C140.564 87.8879 140.543 87.9849 140.499 88.0723C140.455 88.1597 140.39 88.2347 140.31 88.2902C140.227 88.384 140.163 88.4926 140.12 88.6102C140.092 88.7052 140.043 88.793 139.978 88.8673C139.912 88.9415 139.831 89.0006 139.74 89.0402L139.55 89.2302C139.49 89.3002 139.36 89.3602 139.36 89.4202C139.36 89.4802 139.24 89.4802 139.18 89.5502C139.096 89.6505 138.99 89.7305 138.87 89.7841C138.751 89.8378 138.621 89.8638 138.49 89.8602C138.281 89.8915 138.084 89.9778 137.92 90.1102C137.852 90.1728 137.763 90.2074 137.67 90.2074C137.577 90.2074 137.488 90.1728 137.42 90.1102C136.99 89.9175 136.55 89.7505 136.1 89.6102C135.705 89.4723 135.35 89.2397 135.066 88.9329C134.782 88.6261 134.577 88.2544 134.47 87.8502C134.122 86.6926 134.057 85.4682 134.28 84.2802C134.374 83.761 134.437 83.2368 134.47 82.7102C134.53 82.3302 134.59 81.9502 134.66 81.5802C134.768 81.3665 134.79 81.1194 134.72 80.8902C134.66 80.8902 134.53 80.8202 134.53 80.9502C134.432 81.0411 134.348 81.1455 134.28 81.2602C134.03 81.7702 133.72 82.2602 133.4 82.8302C133.203 83.1784 133.077 83.5626 133.03 83.9602C133.09 84.2102 132.9 84.4002 132.84 84.5902C132.256 85.6293 131.771 86.7207 131.39 87.8502C131.08 88.7302 130.64 89.4802 130.27 90.3602C129.638 91.6274 129.071 92.9257 128.57 94.2502C128.45 94.6902 128.19 95.1902 128.01 95.7002C127.425 96.9896 126.733 98.2274 125.94 99.4002C125.94 99.5202 125.75 99.5902 125.62 99.7102C125.342 100.127 124.926 100.433 124.444 100.572C123.963 100.711 123.448 100.675 122.99 100.47C122.86 100.59 122.74 100.47 122.61 100.34C121.61 100.09 121.1 99.1502 120.85 97.8902C120.692 96.8112 120.628 95.7203 120.66 94.6302C120.73 93.0002 120.79 91.3702 120.91 89.7302C121.002 88.5892 121.193 87.4583 121.48 86.3502C121.627 84.8014 121.987 83.2803 122.55 81.8302C122.666 81.4228 122.813 81.0249 122.99 80.6402C123.43 79.5102 123.8 78.5002 124.3 77.5002C124.55 76.6802 124.81 76.5602 125.43 76.6802C125.96 76.714 126.486 76.7977 127 76.9302C127.473 77.0106 127.912 77.2299 128.26 77.5602C128.733 78.3296 129.286 79.0469 129.91 79.7002C130.194 80.1312 130.371 80.6236 130.426 81.1365C130.482 81.6495 130.415 82.1684 130.23 82.6502C129.91 83.9102 129.79 82.9702 129.47 84.2902C128.66 86.9202 127.15 88.9902 126.47 91.3802C125.52 94.4002 128.41 91.4502 128.71 90.3802Z" fill="#2C3847"/>
<path d="M163.36 88.5604C163.173 89.3518 162.833 90.0991 162.36 90.7604C162.18 90.8204 162.11 91.0104 161.99 91.0704C161.778 91.358 161.547 91.6319 161.3 91.8904C161.138 92.0024 161.007 92.1538 160.92 92.3304C160.751 92.6497 160.489 92.9109 160.17 93.0804C160.04 93.1286 159.928 93.216 159.85 93.3304C159.454 93.7477 159.036 94.1448 158.6 94.5204C158.256 94.8178 157.849 95.0333 157.41 95.1504C156.88 95.2213 156.355 95.3282 155.84 95.4704C155.364 95.6047 154.88 95.7082 154.39 95.7804H153.83C153.072 95.6192 152.351 95.321 151.7 94.9004C151.599 94.8276 151.492 94.764 151.38 94.7104C150.798 94.4911 150.281 94.1261 149.88 93.6504C149.41 93.8686 148.967 94.1404 148.56 94.4604C148.317 94.5854 148.086 94.7327 147.87 94.9004C147.822 94.9078 147.777 94.9286 147.74 94.9604C147.37 95.4704 146.86 95.5304 146.36 95.7204C145.941 95.861 145.497 95.9167 145.056 95.8841C144.615 95.8514 144.184 95.7312 143.79 95.5304C143.491 95.3553 143.176 95.208 142.85 95.0904C142.006 94.7785 141.271 94.2256 140.738 93.5004C140.205 92.7751 139.896 91.9094 139.85 91.0104C139.725 90.0414 139.9 89.0574 140.35 88.1904C140.757 87.3578 141.261 86.5758 141.85 85.8604C141.85 85.8004 141.92 85.7404 141.98 85.6804C142.821 84.4356 143.732 83.2403 144.71 82.1004C145.405 81.3386 146.207 80.6818 147.09 80.1504C147.271 80.0759 147.464 80.0352 147.66 80.0304C148.052 79.9542 148.45 79.9107 148.85 79.9004H149.04C149.471 80.0421 149.912 80.1491 150.36 80.2204C150.476 80.2886 150.606 80.3296 150.74 80.3404C151.05 80.4104 151.3 80.4104 151.43 80.6604C151.461 80.6943 151.504 80.7156 151.55 80.7204C151.86 80.7204 152.12 81.0304 152.43 81.0304C152.545 81.0358 152.655 81.0818 152.74 81.1604C153.147 81.4863 153.507 81.8665 153.81 82.2904C153.87 82.4804 153.93 82.6004 154 82.7904C154.083 83.0321 154.07 83.2963 153.964 83.5287C153.858 83.7612 153.667 83.9443 153.43 84.0404C152.874 84.3192 152.348 84.6543 151.86 85.0404V85.1004C151.108 85.7509 150.415 86.4671 149.79 87.2404C149.555 87.524 149.305 87.7944 149.04 88.0504C148.48 88.6804 148.04 89.3704 147.53 90.0504C147.35 90.3604 147.09 90.6804 146.91 90.9304C146.803 91.0362 146.718 91.1619 146.66 91.3004C146.296 91.9483 146.04 92.6506 145.9 93.3804C145.84 93.4404 145.9 93.5004 145.9 93.6304C145.993 93.5815 146.078 93.5173 146.15 93.4404C146.796 92.785 147.487 92.1768 148.22 91.6204C148.618 91.3303 148.957 90.9671 149.22 90.5504C149.364 90.3447 149.532 90.1568 149.72 89.9904C150.106 89.5542 150.464 89.0933 150.79 88.6104C151.22 87.9204 151.66 87.2304 152.1 86.4704C152.348 86.4109 152.608 86.4205 152.851 86.498C153.095 86.5756 153.312 86.7182 153.48 86.9104L153.86 87.2904C154.226 87.8267 154.421 88.4611 154.42 89.1104C154.407 89.2222 154.365 89.3288 154.3 89.4204C154.05 89.9904 153.73 90.6104 153.42 91.1804C153.235 91.5942 153.17 92.0513 153.23 92.5004C153.368 93.0411 153.559 93.567 153.8 94.0704C153.859 94.1653 153.942 94.2436 154.04 94.2978C154.138 94.3521 154.248 94.3804 154.36 94.3804C154.812 94.3343 155.255 94.2301 155.68 94.0704C156.09 93.8861 156.487 93.6757 156.87 93.4404C157.31 93.1904 157.75 92.9404 158.25 92.6204C158.57 92.3104 158.94 92.0604 159.25 91.7404C160.06 90.9304 161.32 88.8604 162.13 88.0404C162.2 87.9804 162.26 87.9804 162.32 87.9204C162.728 88.0135 163.093 88.2384 163.36 88.5604Z" fill="#2C3847"/>
<path d="M182.81 89.1898C182.638 89.6765 182.534 90.1846 182.5 90.6998C182.43 90.8798 182.06 91.0698 181.93 91.1998C181.81 91.5798 179.74 92.0798 179.55 92.0798C178.92 92.4498 177.29 91.3198 177.1 91.2598C177.1 91.2598 176.22 90.6298 176.16 90.5698C176.1 90.5098 175.09 89.5698 174.97 89.4398C174.4 88.3698 174.09 88.0598 173.52 87.0598C173.131 87.6242 172.815 88.2357 172.58 88.8798C172.08 89.8198 171.7 90.8198 171.08 91.8298C170.89 91.9498 170.82 92.1398 170.7 92.2698C170.483 92.8931 170.116 93.453 169.63 93.8998C169.264 94.4009 168.968 94.9492 168.75 95.5298C168.75 95.5898 168.69 95.7798 168.69 95.8398C168.689 96.2477 168.556 96.6443 168.31 96.9698C167.927 97.4038 167.61 97.8925 167.37 98.4198C167.075 99.2892 166.502 100.038 165.74 100.55C165.655 100.669 165.543 100.767 165.412 100.833C165.281 100.899 165.137 100.932 164.99 100.93C164.758 100.938 164.526 100.915 164.3 100.86C163.921 100.88 163.544 100.924 163.17 100.99C162.982 101.092 162.775 101.153 162.562 101.17C162.35 101.187 162.135 101.16 161.934 101.089C161.732 101.019 161.548 100.906 161.392 100.76C161.236 100.614 161.113 100.437 161.03 100.24C160.275 99.4808 159.459 98.7851 158.59 98.1598C158.005 97.4738 157.655 96.6189 157.59 95.7198C157.619 95.2557 157.683 94.7945 157.78 94.3398C158.03 93.3998 158.16 92.2698 158.41 91.2598C158.6 90.5098 158.72 89.7498 158.91 88.9398C159.35 87.1798 159.66 85.4898 160.1 83.8598C160.395 82.9131 160.625 81.9476 160.79 80.9698C160.82 80.3768 160.904 79.7877 161.04 79.2098C161.11 78.5898 161.04 78.8398 161.11 78.3298C161.144 78.1534 161.208 77.9842 161.3 77.8298C161.403 77.7765 161.52 77.7604 161.633 77.7841C161.746 77.8078 161.848 77.8699 161.92 77.9598C162.011 78.0958 162.119 78.22 162.24 78.3298C162.49 78.6498 162.36 78.7098 162.8 78.7098C162.877 78.7237 162.95 78.753 163.016 78.796C163.081 78.8389 163.137 78.8947 163.18 78.9598C163.513 79.4557 163.937 79.8834 164.43 80.2198C164.68 80.7198 165.12 81.0298 165.19 81.6598C164.978 81.6696 164.766 81.6494 164.56 81.5998C164.471 81.7605 164.419 81.9394 164.409 82.1229C164.398 82.3065 164.43 82.49 164.5 82.6598C164.755 83.3232 164.88 84.0292 164.87 84.7398C164.87 85.0498 164.94 85.3598 164.94 85.5498C165.146 86.3049 165.231 87.0881 165.19 87.8698V88.3698C165.25 88.9998 165.25 89.6298 165.25 90.2598C165.209 90.7404 165.229 91.2243 165.31 91.6998C165.339 92.0057 165.273 92.3131 165.12 92.5798L164.94 92.5198C164.87 92.1998 164.87 91.9498 164.81 91.6998C164.81 91.6398 164.68 91.5798 164.62 91.5098C164.56 91.4398 164.5 91.3898 164.43 91.5098C164.36 91.6298 164.31 91.6398 164.31 91.6998C164.31 92.3898 164.31 93.0198 164.37 93.6498C164.455 93.9761 164.475 94.3157 164.43 94.6498C164.398 94.7461 164.393 94.8493 164.416 94.9481C164.439 95.047 164.489 95.1375 164.56 95.2098C164.62 95.2098 164.81 95.2798 164.87 95.2098C164.93 95.1398 165 95.0898 164.94 94.9598C164.915 94.5549 164.977 94.1493 165.12 93.7698L165.25 93.6498C165.25 93.7098 165.31 93.7698 165.31 93.8998C165.413 94.2226 165.457 94.5614 165.44 94.8998C165.471 95.0291 165.511 95.156 165.56 95.2798C165.559 95.3496 165.584 95.4174 165.63 95.4698C165.31 95.8998 165.69 96.0298 165.75 96.3398C165.87 96.2748 165.978 96.1903 166.07 96.0898C167.052 94.9879 167.951 93.8147 168.76 92.5798L169.7 91.2598C170.132 90.6907 170.47 90.056 170.7 89.3798C170.842 88.8916 171.054 88.4267 171.33 87.9998C172.02 86.3698 172.14 87.4298 172.58 85.9998C172.51 85.3629 172.383 84.7337 172.2 84.1198C172.2 82.9298 171.89 82.9898 172.64 82.7998C173.178 82.8551 173.706 82.9829 174.21 83.1798C174.59 83.3598 174.28 83.4298 174.72 83.4298C174.934 83.4018 175.152 83.4439 175.34 83.5498C175.404 83.5798 175.46 83.6244 175.503 83.68C175.547 83.7356 175.576 83.8006 175.59 83.8698C175.59 83.9898 175.66 84.0498 175.72 84.2398C175.902 85.8294 176.348 87.3774 177.04 88.8198C177.6 89.2598 178.29 90.9598 179.55 90.7098C180.063 90.4918 180.587 90.3015 181.12 90.1398C181.68 90.0198 182.12 89.3298 182.68 89.0098C182.706 88.9873 182.736 88.9704 182.769 88.96C182.802 88.9497 182.836 88.9462 182.87 88.9498C182.94 89.0598 182.87 89.1298 182.81 89.1898ZM164.36 88.7498L164.42 88.8798C164.42 88.9398 164.49 88.8798 164.49 88.8798C164.521 88.7308 164.561 88.5839 164.61 88.4398V88.1198C164.55 88.0598 164.49 87.9998 164.42 88.0598C164.35 88.1198 164.36 88.2498 164.42 88.2498C164.488 88.308 164.552 88.3715 164.61 88.4398C164.565 88.569 164.477 88.6785 164.36 88.7498ZM164.49 89.3198C164.49 89.3012 164.483 89.2834 164.47 89.2703C164.456 89.2572 164.439 89.2498 164.42 89.2498C164.36 89.2498 164.36 89.3198 164.36 89.3198C164.36 89.3198 164.42 89.4398 164.42 89.4998C164.465 89.4505 164.49 89.3864 164.49 89.3198ZM164.55 89.8798V89.9398H164.61C164.61 89.8798 164.61 89.8798 164.55 89.8798ZM164.93 96.0898C164.86 96.2198 164.8 96.2198 164.8 96.2798C164.8 96.2957 164.806 96.311 164.818 96.3222C164.829 96.3335 164.844 96.3398 164.86 96.3398C164.897 96.308 164.942 96.2872 164.99 96.2798C164.93 96.2198 164.93 96.2198 164.93 96.0898ZM164.99 95.5298C165.017 95.522 165.041 95.5056 165.058 95.4831C165.075 95.4605 165.084 95.433 165.084 95.4048C165.084 95.3765 165.075 95.3491 165.058 95.3265C165.041 95.3039 165.017 95.2875 164.99 95.2798H164.93C164.93 95.3398 164.86 95.3998 164.86 95.5298C164.86 95.6598 164.93 95.5298 164.93 95.6498L164.99 95.5298Z" fill="#2C3847"/>
<path d="M185.07 88.3703C185.059 88.4404 185.03 88.5065 184.986 88.5625C184.943 88.6184 184.885 88.6624 184.82 88.6903C184.764 88.7204 184.716 88.765 184.683 88.8195C184.65 88.874 184.631 88.9364 184.63 89.0003C184.57 89.2503 184.5 89.3203 184.32 89.3803C184.14 89.4403 184.19 89.5003 184.13 89.8803C184.25 89.8803 184.32 89.8803 184.38 89.9403V90.0103H183.94C183.986 89.8444 184.006 89.6723 184 89.5003H183.88C183.81 89.9403 183.75 90.3803 183.69 90.8203C183.81 90.8803 183.88 90.9503 183.94 90.9503C183.99 91.365 184.01 91.7827 184 92.2003C184.011 92.5893 184.096 92.9727 184.25 93.3303C184.44 93.5803 184.94 94.9603 185.13 95.2103C186.01 96.0903 187.13 97.2103 188.13 97.2903C188.953 97.2421 189.772 97.1351 190.58 96.9703C192.155 96.4736 193.624 95.6867 194.91 94.6503C195.97 93.8303 196.98 92.8903 198.05 92.0103L198.23 91.8303C198.61 91.3903 198.99 91.0103 199.36 90.5703C200.055 89.8957 200.688 89.1593 201.25 88.3703C201.396 88.0345 201.664 87.7666 202 87.6203C201.899 88.1622 201.731 88.6895 201.5 89.1903C201.432 89.3786 201.322 89.5494 201.18 89.6903C200.814 90.0902 200.498 90.5335 200.24 91.0103C200.05 91.2603 199.8 91.5103 199.61 91.7603C199.55 91.8303 199.49 91.9503 199.36 92.1403C199.55 92.0803 199.68 92.0103 199.87 91.9503C199.8 92.3303 199.49 92.3903 199.43 92.7003C199.49 92.7703 199.49 92.8303 199.61 92.8903C199.443 93.1733 199.234 93.4296 198.99 93.6503C198.602 93.9702 198.244 94.3251 197.92 94.7103C197.362 95.306 196.753 95.8515 196.1 96.3403C195.827 96.5947 195.532 96.8254 195.22 97.0303C194.97 97.2203 194.72 97.3503 194.47 97.5403C194.079 97.7197 193.701 97.9268 193.34 98.1603C192.726 98.548 192.049 98.8256 191.34 98.9803L190.78 99.1703C190.046 99.4023 189.288 99.5499 188.52 99.6103C186.691 99.5322 184.879 99.2368 183.12 98.7303C180.92 97.8503 180.48 96.7803 179.48 95.9003C179.082 95.5439 178.779 95.0936 178.6 94.5903C178.328 93.7359 178.179 92.8468 178.16 91.9503C178.185 90.0159 178.636 88.1109 179.48 86.3703C179.67 85.9903 179.67 85.9903 179.61 85.4303C179.46 85.4908 179.326 85.5842 179.217 85.7036C179.108 85.823 179.027 85.9654 178.98 86.1203C178.778 86.6845 178.527 87.2299 178.23 87.7503C178.271 87.2644 178.418 86.7934 178.66 86.3703C179.149 85.2527 179.738 84.1817 180.42 83.1703C181.087 82.1261 181.865 81.1572 182.74 80.2803C183.573 79.3647 184.525 78.5643 185.57 77.9003C185.786 77.8059 185.996 77.699 186.2 77.5803C186.51 77.4603 186.82 77.3903 187.01 77.7103C187.2 78.0303 187.45 77.8303 187.58 77.9603C187.71 78.0903 187.83 78.3303 187.95 78.4603C188.58 78.7703 190.95 79.4003 191.53 79.7803C191.728 79.9497 191.879 80.1665 191.97 80.4103C192.212 80.9837 192.55 81.5114 192.97 81.9703C193.093 82.1404 193.178 82.3347 193.22 82.5403C193.38 83.2851 193.38 84.0554 193.22 84.8003C193.069 85.6704 192.75 86.5026 192.28 87.2503C192.013 87.6661 191.782 88.1044 191.59 88.5603C191.437 89.0064 191.225 89.4302 190.96 89.8203C190.846 90.0458 190.687 90.2456 190.492 90.4073C190.298 90.569 190.073 90.6891 189.83 90.7603C189.462 90.9444 189.047 91.0108 188.64 90.9503C188.45 90.8803 188.27 90.9503 188.14 90.7003C188.141 90.6916 188.141 90.6827 188.139 90.6742C188.136 90.6658 188.132 90.6579 188.126 90.6512C188.121 90.6445 188.114 90.6392 188.106 90.6356C188.098 90.6319 188.089 90.6301 188.08 90.6303C187.58 90.7003 187.26 90.1303 186.89 89.9403C186.818 89.8517 186.772 89.744 186.76 89.6303C186.89 89.3803 186.76 89.2503 186.7 89.0603C186.454 88.5262 186.181 88.0055 185.88 87.5003C185.82 87.3103 185.63 87.2503 185.44 87.4303C185.25 87.6103 185.07 88.0003 185.07 88.3703ZM179.07 94.0203C179.13 94.2103 179.19 94.3403 179.25 94.5203C179.31 94.7003 179.44 94.8403 179.32 95.0903C179.25 95.0303 179.19 95.0303 179.19 94.9603C178.919 94.2349 178.757 93.4733 178.71 92.7003C178.64 92.6403 178.71 92.5803 178.71 92.5203C178.669 91.5899 178.754 90.6583 178.96 89.7503C179.029 89.5711 179.07 89.3821 179.08 89.1903V88.7503C178.929 89.0311 178.805 89.3258 178.71 89.6303C178.64 89.9403 178.58 90.1903 178.52 90.5103C178.2 92.0086 178.376 93.5703 179.02 94.9603C179.167 95.2041 179.334 95.4349 179.52 95.6503C179.643 95.77 179.794 95.856 179.96 95.9003C179.96 95.9703 180.03 95.9003 180.15 95.9003C179.957 95.626 179.79 95.3348 179.65 95.0303C179.46 94.6503 179.46 94.2703 179.27 93.9603C179.241 93.9585 179.211 93.9629 179.184 93.9732C179.156 93.9836 179.131 93.9996 179.11 94.0203H179.07ZM179.07 90.0203C178.809 90.958 178.764 91.9428 178.94 92.9003C178.94 92.9703 179 92.9703 179.07 93.0303C179.13 92.3403 179.19 91.7103 179.25 91.0803C179.364 90.6679 179.343 90.2298 179.19 89.8303C179.17 89.8803 179.11 89.9403 179.11 90.0103L179.07 90.0203ZM186.97 85.0003C186.811 85.2222 186.664 85.4525 186.53 85.6903C186.28 86.1303 186.35 86.4403 186.66 86.6303C186.875 86.7367 187.066 86.8866 187.22 87.0703C187.6 87.5103 188.1 87.4403 188.6 87.3803C189.048 87.1855 189.405 86.8281 189.6 86.3803C190.04 85.3103 190.29 85.1203 190.67 84.0503C191.67 81.6703 189.67 82.2303 188.67 82.9903C188.04 83.5895 187.483 84.2608 187.01 84.9903L186.97 85.0003Z" fill="#2C3847"/>
<path d="M218.2 91.2C217.89 91.83 216.82 93.2 216.82 93.9C216.708 94.0201 216.58 94.1244 216.44 94.21C216.23 94.4279 216.06 94.682 215.94 94.96C215.813 95.202 215.666 95.4328 215.5 95.65C214.776 97.0878 213.8 98.3848 212.62 99.48C212.24 99.8 208.91 103 208.62 103.31C206.8 104.82 204.36 104.13 202.54 104.19C202.086 104.219 201.632 104.133 201.22 103.94C200.411 103.613 199.667 103.145 199.02 102.56C198.46 101.18 197.02 100.24 196.89 98.29C196.83 97.79 196.57 97.47 196.51 96.97C196.57 94.97 196.89 92.97 197.14 90.88C197.52 89.44 197.83 87.88 198.08 86.43C198.456 84.5162 199.131 82.6736 200.08 80.97C200.71 79.34 201.27 79.21 201.9 77.58C202.329 76.715 202.81 75.8768 203.34 75.07C203.795 74.1125 204.319 73.19 204.91 72.31C206.007 70.3744 207.312 68.5637 208.8 66.91C209.74 65.97 210.8 64.97 211.69 64.15C212.192 63.6889 212.762 63.3078 213.38 63.02C213.558 62.9119 213.75 62.8278 213.95 62.77C214.395 62.6696 214.859 62.6896 215.294 62.8278C215.729 62.9661 216.119 63.2178 216.425 63.5568C216.73 63.8959 216.94 64.3102 217.032 64.7572C217.125 65.2042 217.096 65.6676 216.95 66.1C216.82 66.85 216.76 67.6 216.57 68.29C216.467 68.8907 216.253 69.467 215.94 69.99C215.51 71.0697 214.964 72.0992 214.31 73.06C213.87 73.88 213.37 74.69 212.93 75.51C212.18 76.64 211.55 77.83 210.8 78.9C209.48 80.66 208.35 82.54 207.16 84.3C205.16 87.62 205.4 88.19 204.71 91.51C204.552 92.6327 204.489 93.7667 204.52 94.9C204.58 95.28 204.77 97.72 204.84 97.98C204.991 98.6796 205.244 99.3534 205.59 99.98C205.71 100.24 206.59 100.42 206.91 100.55C207.35 100.86 210.67 98.55 211.11 98.29C212.109 97.613 213.017 96.8097 213.81 95.9C214.657 94.9627 215.395 93.9328 216.01 92.83C217.13 91.32 217.51 90.07 218.7 88.44C219.58 88.31 219.08 89.63 218.2 91.2ZM208.2 79.9C209.704 77.5909 211.086 75.2042 212.34 72.75C213.03 71.43 213.6 70.11 214.29 68.8C214.584 67.8774 214.795 66.9303 214.92 65.97C215.04 65.66 215.04 65.47 214.73 65.6C214.479 65.6481 214.243 65.7543 214.04 65.91C213.151 66.2733 212.401 66.9109 211.9 67.73C211.46 68.23 211.15 68.8 210.65 69.3C210.126 69.9439 209.741 70.6897 209.52 71.49C209.21 72.12 208.89 72.87 208.58 73.49C208.096 74.8568 207.528 76.1926 206.88 77.49C206.63 78.11 206.44 78.8 206.19 79.43C205.44 81.56 205.75 80.5 205.06 82.63C204.88 83.13 205 84.63 205.82 83.7C206.71 82.29 207.35 81.35 208.16 79.9H208.2Z" fill="#2C3847"/>
<defs>
<filter id="filter0_d_2696_16339" x="0" y="0" width="324" height="197" filterUnits="userSpaceOnUse" color-interpolation-filters="sRGB">
<feFlood flood-opacity="0" result="BackgroundImageFix"/>
<feColorMatrix in="SourceAlpha" type="matrix" values="0 0 0 0 0 0 0 0 0 0 0 0 0 0 0 0 0 0 127 0" result="hardAlpha"/>
<feOffset dy="10"/>
<feGaussianBlur stdDeviation="15"/>
<feColorMatrix type="matrix" values="0 0 0 0 0.19 0 0 0 0 0.260533 0 0 0 0 0.343333 0 0 0 0.06 0"/>
<feBlend mode="normal" in2="BackgroundImageFix" result="effect1_dropShadow_2696_16339"/>
<feBlend mode="normal" in="SourceGraphic" in2="effect1_dropShadow_2696_16339" result="shape"/>
</filter>
</defs>
</svg>
