<svg width="324" height="197" viewBox="0 0 324 197" fill="none" xmlns="http://www.w3.org/2000/svg">
<g filter="url(#filter0_d_2696_16262)">
<rect x="30" y="20" width="264" height="137" fill="white"/>
</g>
<path d="M151.55 61.629C153.333 60.8659 155.337 60.7946 157.17 61.429C158.083 61.7432 158.945 62.1878 159.73 62.749C160.46 63.259 161.09 63.749 161.73 64.139C162.09 64.369 162.44 64.589 162.78 64.769C163.931 65.3802 165.207 65.718 166.509 65.7561C167.812 65.7943 169.105 65.5318 170.29 64.989C170.36 65.129 170.23 65.449 170.49 65.409C171.49 65.179 171.66 65.409 171.82 65.659C171.82 65.729 171.68 65.839 171.53 65.929C171.38 66.019 171.25 66.069 171.41 66.069C170.68 66.499 169.31 66.979 170.18 66.859C170.476 66.8321 170.764 66.7507 171.03 66.619C171.296 66.4704 171.588 66.3753 171.89 66.339C172.26 66.339 171.89 66.909 172.23 66.949C172.599 66.7344 172.956 66.5008 173.3 66.249C173.65 66.179 173.3 66.819 173.57 66.619C174.644 65.9696 175.535 65.0577 176.16 63.969C176.22 63.969 176.33 63.969 176.39 63.969C176.45 63.969 176.46 64.089 176.28 64.409C174.942 66.3237 173.06 67.793 170.878 68.6273C168.696 69.4615 166.314 69.6224 164.04 69.089C163.261 68.9041 162.506 68.6289 161.79 68.269C161.098 67.9328 160.445 67.5238 159.84 67.049C158.917 66.2792 157.93 65.59 156.89 64.989C156.02 64.5787 155.058 64.4062 154.1 64.489C153.151 64.5736 152.244 64.9198 151.48 65.489C150.697 66.057 150.079 66.8233 149.69 67.709C149.34 68.489 149.2 67.809 149.32 67.029C149.32 67.279 149.07 67.179 149.05 67.449C148.84 67.379 148.62 66.709 149.21 65.739C149.05 65.959 148.9 66.199 148.76 66.439C148.62 66.679 148.56 66.329 148.42 66.249C148.57 65.989 148.73 65.749 148.67 65.709L148.41 65.539C148.181 65.8787 147.98 66.2366 147.81 66.609C147.93 66.329 148.09 66.059 148.02 66.019L147.75 65.869C148.111 65.2133 148.566 64.6137 149.1 64.089L148.93 63.919C148.348 64.4417 147.87 65.0693 147.52 65.769C147.62 65.439 147.52 65.399 147.43 65.319C148.006 64.4597 148.677 63.6681 149.43 62.959C149.152 63.1719 148.885 63.3989 148.63 63.639C148.881 63.1344 149.288 62.7242 149.79 62.469C150.35 62.1372 150.939 61.8561 151.55 61.629Z" fill="#FD8D55"/>
<path d="M151.55 109.089C153.335 108.329 155.338 108.262 157.17 108.899C158.083 109.213 158.945 109.658 159.73 110.219C160.46 110.719 161.09 111.219 161.73 111.609C162.09 111.843 162.44 112.053 162.78 112.239C163.12 112.429 163.44 112.549 163.78 112.699C164.473 112.954 165.195 113.119 165.93 113.189C167.423 113.316 168.923 113.061 170.29 112.449C170.36 112.589 170.23 112.919 170.49 112.879C171.49 112.649 171.66 112.879 171.82 113.129C171.82 113.189 171.68 113.299 171.53 113.389C171.38 113.479 171.25 113.529 171.41 113.539C170.68 113.969 169.31 114.439 170.18 114.329C170.476 114.298 170.764 114.213 171.03 114.079C171.294 113.928 171.587 113.836 171.89 113.809C172.26 113.809 171.89 114.379 172.23 114.419C172.599 114.205 172.956 113.971 173.3 113.719C173.65 113.639 173.3 114.289 173.57 114.089C174.644 113.436 175.535 112.521 176.16 111.429C176.22 111.479 176.33 111.429 176.39 111.489C176.45 111.549 176.46 111.609 176.28 111.929C174.942 113.844 173.06 115.313 170.878 116.148C168.696 116.982 166.314 117.143 164.04 116.609C163.261 116.424 162.506 116.149 161.79 115.789C161.101 115.449 160.447 115.041 159.84 114.569C158.917 113.8 157.93 113.11 156.89 112.509C156.024 112.088 155.06 111.908 154.1 111.989C153.151 112.074 152.244 112.42 151.48 112.989C150.697 113.554 150.079 114.316 149.69 115.199C149.34 115.989 149.2 115.309 149.32 114.529C149.32 114.779 149.07 114.679 149.05 114.939C148.84 114.869 148.62 114.199 149.21 113.239C149.048 113.462 148.898 113.692 148.76 113.929C148.56 114.139 148.56 113.819 148.42 113.749C148.57 113.489 148.73 113.249 148.67 113.199L148.41 113.029C148.179 113.371 147.978 113.733 147.81 114.109C147.93 113.829 148.09 113.559 148.02 113.519L147.75 113.369C148.119 112.705 148.584 112.099 149.13 111.569L148.96 111.409C148.376 111.93 147.897 112.558 147.55 113.259C147.65 112.929 147.55 112.889 147.46 112.809C148.036 111.947 148.707 111.152 149.46 110.439C149.182 110.656 148.915 110.886 148.66 111.129C148.912 110.624 149.319 110.21 149.82 109.949C150.375 109.62 150.953 109.333 151.55 109.089Z" fill="#FD8D55"/>
<path d="M103.67 78.6995H107.48V78.8395C106.71 78.8395 106.75 79.0395 106.75 79.9895V88.2195C106.75 89.2795 106.87 89.5295 107.63 89.5295V89.6695H102.88V89.4895C103.61 89.4895 103.67 89.2395 103.67 88.1795V79.0795L99.67 89.7695H99.53L94.48 80.3895V85.4995C94.48 87.4995 95.05 89.4995 96.86 89.4995V89.6395H92V89.4895C93.66 89.4895 94.33 87.4895 94.33 85.4895V80.1895C93.73 79.1195 93.23 78.8695 92.79 78.8395V78.6995H97.23L101.01 85.8695L103.67 78.6995Z" fill="#2C3847"/>
<path d="M117.92 78.6995V78.8195C117.26 78.8195 116.92 78.8195 116.92 80.2095V87.9095C116.92 89.3895 117.27 89.5295 117.92 89.5295V89.6695H112.77V89.4895C113.43 89.4895 113.77 89.3495 113.77 87.8695V80.1695C113.77 78.7995 113.42 78.7795 112.77 78.7795V78.6595L117.92 78.6995Z" fill="#2C3847"/>
<path d="M133.21 85.9295L133.37 89.0795C132.221 89.587 130.975 89.8362 129.72 89.8095C126.38 89.8095 123.42 87.7095 123.42 84.1795C123.42 80.6495 126.42 78.5595 129.72 78.5595C130.978 78.4687 132.238 78.7137 133.37 79.2695L133.21 82.4195H133.1C132.63 79.1995 130.87 78.6995 129.73 78.6995C128 78.6995 127.26 79.9095 127.26 84.1795C127.26 88.4495 128.04 89.6695 129.73 89.6695C130.79 89.6695 132.57 89.0295 133.1 85.9295H133.21Z" fill="#2C3847"/>
<path d="M150.36 89.4895V89.6295H147.25C146.15 89.6295 145.8 88.9295 145.43 86.0295C145.23 84.4695 143.36 84.5695 143.36 84.5695H142.62V87.8695C142.62 89.3995 142.69 89.4895 143.34 89.4895V89.6295H138.68V89.4895C139.35 89.4895 139.49 89.4895 139.49 87.8695V80.1695C139.49 79.1695 139.36 78.7795 138.68 78.7795V78.6595H143.1C146.2 78.6595 148.99 79.0295 148.99 81.6595C148.99 83.9895 146.84 84.4795 145.34 84.4795C147.13 84.4795 148.04 84.8695 148.8 87.6695C148.874 88.0846 149.057 88.4723 149.332 88.7923C149.606 89.1124 149.961 89.3531 150.36 89.4895ZM145.36 81.6395C145.36 78.6395 144.95 78.7995 143.13 78.7995H142.64V84.4895H143.1C145.1 84.4895 145.34 84.4895 145.34 81.6795L145.36 81.6395Z" fill="#2C3847"/>
<path d="M166.47 84.2595C166.47 85.7685 165.87 87.2158 164.803 88.2829C163.736 89.35 162.289 89.9495 160.78 89.9495C159.271 89.9495 157.824 89.35 156.757 88.2829C155.689 87.2158 155.09 85.7685 155.09 84.2595C155.09 82.7504 155.689 81.3031 156.757 80.236C157.824 79.1689 159.271 78.5695 160.78 78.5695C162.289 78.5695 163.736 79.1689 164.803 80.236C165.87 81.3031 166.47 82.7504 166.47 84.2595ZM162.68 84.2595C162.68 79.9895 162.62 78.6995 160.78 78.6995C158.94 78.6995 158.85 79.9895 158.85 84.2595C158.85 88.5295 158.93 89.6695 160.78 89.6695C162.63 89.6695 162.68 88.5495 162.68 84.2595Z" fill="#2C3847"/>
<path d="M188.1 78.6994V78.8194C187.47 78.8194 186.52 79.3094 185.39 82.0494L182.66 89.6694H182.1C180.65 86.2894 179.71 84.1094 179.1 82.6694L176.6 89.6694H176.1C172.17 80.4894 171.97 80.0894 171.97 80.0894C171.44 78.8394 171.22 78.8494 170.82 78.8194V78.6994H175.68V78.8194C174.68 78.8194 175.48 80.6295 175.48 80.6295L177.83 85.9794L179.1 82.4894L178.1 80.0794C177.56 78.8294 177.35 78.8394 176.94 78.8094V78.6895H181.81V78.8094C180.81 78.8094 181.6 80.6194 181.6 80.6194L183.94 85.9794L185.34 82.0394C185.73 80.9294 185.39 78.8094 183.8 78.8094V78.6895L188.1 78.6994Z" fill="#2C3847"/>
<path d="M197.21 78.6995H197.29C201.23 87.6995 201.49 88.2495 201.49 88.2495C202.06 89.4995 202.59 89.5195 202.9 89.5495V89.6695H197.44V89.5495C198.69 89.5495 197.75 87.7195 197.75 87.7195L197.25 86.6495H194.25C193.94 87.3695 194.25 89.5495 196.09 89.5495V89.6695H191.6V89.5495C192.07 89.5495 192.91 89.3895 194.11 86.6495L197.21 78.6995ZM195.63 82.9995L194.25 86.4895H197.19L195.63 82.9995Z" fill="#2C3847"/>
<path d="M218.2 78.6995V78.8195C217.53 78.8195 216.54 79.3095 215.32 82.0495L212.25 89.6695H211.8C207.62 80.4895 207.4 80.0895 207.4 80.0895C206.84 78.8395 206.61 78.8495 206.17 78.8195V78.6995H211.36V78.8195C210.28 78.8195 211.14 80.6295 211.14 80.6295L213.56 86.0095L215.16 82.0095C215.63 80.8595 215.35 78.7795 213.48 78.7795V78.6595L218.2 78.6995Z" fill="#2C3847"/>
<path d="M232.42 86.6194V89.6694H223.31V89.4894C223.97 89.4894 224.22 88.5594 224.22 87.4894V80.7994C224.22 79.7994 224 78.7994 223.31 78.7994V78.6794H232.22V81.8694H232.1C232.1 78.8694 227.85 78.8694 227.85 78.8694H227.29V84.0894H228.55C228.792 84.0908 229.032 84.0441 229.256 83.9521C229.48 83.8601 229.683 83.7246 229.854 83.5535C230.025 83.3823 230.161 83.179 230.253 82.9551C230.345 82.7313 230.391 82.4915 230.39 82.2495H230.53V86.0694H230.39C230.387 85.5822 230.193 85.1158 229.848 84.7713C229.504 84.4268 229.037 84.2321 228.55 84.2294H227.29V89.4894H227.85C227.85 89.4894 232.31 89.6594 232.31 86.5794L232.42 86.6194Z" fill="#2C3847"/>
<path d="M129.5 95.6794H130.56V99.9995H129.5V98.2094H127.83V99.9995H126.78V95.6794H127.83V97.4095H129.5V95.6794Z" fill="#2C3847"/>
<path d="M137.86 99.9995L137.62 99.2795H136.1L135.86 99.9995H134.7L136.21 95.6595H137.49L138.99 99.9995H137.86ZM136.33 98.4895H137.33L136.82 96.9395L136.33 98.4895Z" fill="#2C3847"/>
<path d="M143.1 99.9995V95.6794H144.15V99.9995H143.1Z" fill="#2C3847"/>
<path d="M149.79 98.3194V99.9994H148.73V95.6794H150.44C150.864 95.6556 151.281 95.7912 151.61 96.0594C151.743 96.1773 151.849 96.3221 151.921 96.4842C151.994 96.6463 152.031 96.8219 152.03 96.9994C152.029 97.262 151.952 97.5187 151.81 97.7394C151.625 97.9877 151.36 98.1644 151.06 98.2394L152.12 99.9994H150.89L149.89 98.3194H149.79ZM149.79 96.4794V97.4794H150.44C150.509 97.4827 150.579 97.472 150.644 97.448C150.709 97.4239 150.769 97.387 150.82 97.3394C150.914 97.2357 150.964 97.0995 150.96 96.9594C150.962 96.8916 150.951 96.8239 150.927 96.7603C150.903 96.6968 150.867 96.6387 150.82 96.5894C150.771 96.5391 150.711 96.4997 150.646 96.4738C150.581 96.448 150.51 96.4363 150.44 96.4395L149.79 96.4794Z" fill="#2C3847"/>
<path d="M163.42 96.4895C163.305 96.4823 163.191 96.5179 163.1 96.5895C163.056 96.6251 163.02 96.6711 162.998 96.7234C162.975 96.7756 162.966 96.8327 162.97 96.8895C162.966 96.9482 162.975 97.0071 162.996 97.0622C163.017 97.1174 163.049 97.1675 163.09 97.2095C163.177 97.2919 163.279 97.3565 163.39 97.3995L163.81 97.5195L164.27 97.6595C164.417 97.7153 164.557 97.7856 164.69 97.8695C164.823 97.9537 164.927 98.0756 164.99 98.2195C165.074 98.3868 165.115 98.5723 165.11 98.7595C165.11 98.9387 165.07 99.1158 164.994 99.2782C164.918 99.4405 164.807 99.5843 164.67 99.6995C164.338 99.9695 163.918 100.108 163.49 100.089C163.069 100.109 162.653 99.9852 162.31 99.7395C162.161 99.6205 162.042 99.4678 161.964 99.2939C161.886 99.12 161.85 98.9299 161.86 98.7395H162.98C162.977 98.8094 162.989 98.8792 163.015 98.9442C163.04 99.0093 163.079 99.0683 163.129 99.1173C163.179 99.1663 163.239 99.2043 163.305 99.2288C163.37 99.2533 163.44 99.2637 163.51 99.2595C163.575 99.2644 163.64 99.2564 163.702 99.2358C163.764 99.2151 163.821 99.1824 163.87 99.1395C163.912 99.0995 163.945 99.0514 163.967 98.998C163.99 98.9447 164.001 98.8873 164 98.8295C164.002 98.7192 163.963 98.6122 163.89 98.5295C163.801 98.4448 163.696 98.38 163.58 98.3395L163.16 98.2195C163.004 98.1786 162.85 98.1285 162.7 98.0695C162.559 98.0129 162.422 97.946 162.29 97.8695C162.16 97.7789 162.054 97.659 161.98 97.5195C161.897 97.3553 161.856 97.1733 161.86 96.9895C161.848 96.7987 161.882 96.6078 161.961 96.4335C162.039 96.2592 162.159 96.1067 162.31 95.9895C162.639 95.7373 163.045 95.6067 163.46 95.6195C163.861 95.6006 164.258 95.7129 164.59 95.9395C164.74 96.0579 164.859 96.2105 164.937 96.3846C165.015 96.5586 165.051 96.7489 165.04 96.9395H163.9C163.887 96.8071 163.835 96.6816 163.75 96.5795C163.655 96.51 163.537 96.4779 163.42 96.4895Z" fill="#2C3847"/>
<path d="M172.32 99.9995L172.08 99.2795H170.53L170.29 99.9995H169.16L170.67 95.6595H171.95L173.45 99.9995H172.32ZM170.79 98.4895H171.79L171.28 96.9395L170.79 98.4895Z" fill="#2C3847"/>
<path d="M177.59 95.6794H178.65V99.1994H179.96V99.9995H177.59V95.6794Z" fill="#2C3847"/>
<path d="M184.56 99.4195C184.15 98.9915 183.922 98.4219 183.922 97.8295C183.922 97.2371 184.15 96.6676 184.56 96.2395C184.768 96.034 185.015 95.8723 185.286 95.764C185.557 95.6558 185.848 95.6033 186.14 95.6095C186.729 95.6095 187.293 95.8434 187.71 96.2597C188.126 96.6761 188.36 97.2407 188.36 97.8295C188.36 98.4183 188.126 98.983 187.71 99.3993C187.293 99.8156 186.729 100.05 186.14 100.05C185.848 100.056 185.557 100.003 185.286 99.895C185.015 99.7867 184.768 99.625 184.56 99.4195ZM186.97 98.7295C187.184 98.48 187.295 98.1581 187.28 97.8295C187.293 97.4983 187.182 97.1741 186.97 96.9195C186.746 96.7026 186.447 96.5814 186.135 96.5814C185.823 96.5814 185.524 96.7026 185.3 96.9195C185.088 97.1741 184.977 97.4983 184.99 97.8295C184.975 98.1581 185.086 98.48 185.3 98.7295C185.524 98.9464 185.823 99.0677 186.135 99.0677C186.447 99.0677 186.746 98.9464 186.97 98.7295Z" fill="#2C3847"/>
<path d="M195.47 95.6595H196.53V99.9995H195.47L193.71 97.2695V99.9995H192.66V95.6595H193.71L195.47 98.3995V95.6595Z" fill="#2C3847"/>
<defs>
<filter id="filter0_d_2696_16262" x="0" y="0" width="324" height="197" filterUnits="userSpaceOnUse" color-interpolation-filters="sRGB">
<feFlood flood-opacity="0" result="BackgroundImageFix"/>
<feColorMatrix in="SourceAlpha" type="matrix" values="0 0 0 0 0 0 0 0 0 0 0 0 0 0 0 0 0 0 127 0" result="hardAlpha"/>
<feOffset dy="10"/>
<feGaussianBlur stdDeviation="15"/>
<feColorMatrix type="matrix" values="0 0 0 0 0 0 0 0 0 0 0 0 0 0 0 0 0 0 0.06 0"/>
<feBlend mode="normal" in2="BackgroundImageFix" result="effect1_dropShadow_2696_16262"/>
<feBlend mode="normal" in="SourceGraphic" in2="effect1_dropShadow_2696_16262" result="shape"/>
</filter>
</defs>
</svg>
