<svg width="324" height="197" viewBox="0 0 324 197" fill="none" xmlns="http://www.w3.org/2000/svg">
<g filter="url(#filter0_d_2696_16268)">
<rect x="30" y="20" width="264" height="137" fill="white"/>
</g>
<path d="M98.63 115.081L98.23 115.291L98.31 115.421L98.63 115.081Z" fill="#FD8D55"/>
<path d="M98.13 113.182L98 113.252C98.0349 113.277 98.0625 113.312 98.08 113.352L98.13 113.182Z" fill="#FD8D55"/>
<path d="M98.31 115.431C98.6976 115.881 98.975 116.415 99.12 116.991L98.24 117.441C98.17 117.841 98.54 118.011 98.69 118.291C98.47 118.411 98.25 118.521 98.33 118.661C98.38 119.111 98.74 119.231 99.21 119.101C99.32 117.021 101.43 115.201 98.31 115.431Z" fill="#FD8D55"/>
<path d="M99.47 113.381L98.31 113.981C98.2947 114.365 98.419 114.741 98.66 115.041C99.0853 114.578 99.3668 114.001 99.47 113.381Z" fill="#FD8D55"/>
<path d="M188.42 66.0117C188.37 65.9317 188.37 65.8717 188.64 65.8917L188.42 66.0117C188.42 66.1017 188.53 66.2117 188.42 66.3117C189.154 65.6948 189.933 65.1332 190.75 64.6317C190.75 64.4217 190.82 64.2117 190.84 64.0117C188.74 65.2217 186.6 66.3417 185.24 68.0117C186.52 67.3617 187.24 66.6717 188.42 66.0117Z" fill="#FD8D55"/>
<path d="M190.6 63.0716L190.81 62.9516C190.55 62.9316 190.55 62.9816 190.6 63.0716Z" fill="#FD8D55"/>
<path d="M154.08 86.2712C152.906 87.111 151.864 88.1223 150.99 89.2712C153.27 87.5612 155.72 86.0212 157.34 84.4912C156.27 85.0912 155.18 85.7412 154.08 86.2712Z" fill="#FD8D55"/>
<path d="M146.14 94.1909C147.704 93.6347 149.087 92.6633 150.14 91.3809C148.9 92.1909 147.66 93.0009 146.42 93.7809C146.31 93.9209 146.21 94.0509 146.14 94.1909Z" fill="#FD8D55"/>
<path d="M147.49 92.3515C148.853 91.5716 150.043 90.5239 150.99 89.2715C149.726 90.1818 148.554 91.2134 147.49 92.3515Z" fill="#FD8D55"/>
<path d="M170.34 63.8213C170.813 63.2224 171.346 62.673 171.93 62.1813C171.93 61.9113 172.05 61.5613 172.16 61.1113L171.99 61.2113C171.1 61.9913 170.19 62.7613 169.26 63.5313C168.932 63.9053 168.647 64.3145 168.41 64.7513C169.06 64.4513 169.7 64.1513 170.34 63.8213Z" fill="#FD8D55"/>
<path d="M171.93 62.1809C171.54 64.5509 173.17 61.3109 171.93 62.1809V62.1809Z" fill="#FD8D55"/>
<path d="M170.22 74.4014L170.07 74.4814L169.68 74.8114L170.22 74.4014Z" fill="#FD8D55"/>
<path d="M155.92 76.7416C156.76 76.2316 157.57 75.6816 158.35 75.1016C156.714 76.0675 155.171 77.1823 153.74 78.4316C153.95 78.3216 154.25 78.3416 154.47 78.2316C154.809 77.6125 155.31 77.0975 155.92 76.7416Z" fill="#FD8D55"/>
<path d="M176.36 69.5107C174.16 71.1107 172.06 72.7907 170.07 74.5107C165.648 76.7393 161.545 79.551 157.87 82.8707C154.96 85.8707 148.68 88.7607 146.36 92.8707C146.75 92.743 147.128 92.5824 147.49 92.3907C147.088 92.8394 146.721 93.3173 146.39 93.8207C140.86 97.3507 135.39 100.621 129.44 103.721C128.56 104.181 128.12 104.951 127.25 105.401L124.7 106.821C124.715 106.857 124.744 106.885 124.78 106.901C121.27 108.971 117.86 111.101 114.37 113.531C112.69 114.581 110.87 115.361 109.12 116.281C108.46 116.621 108.12 116.061 107.65 116.141C105.661 116.246 103.694 116.613 101.8 117.231L101.58 116.801C101.341 116.988 101.07 117.131 100.78 117.221C100.89 115.141 103 113.311 99.88 113.551C99.99 113.431 100.1 113.321 100.19 113.211H100.24C100.667 112.75 100.945 112.172 101.04 111.551L99.89 112.151C99.8732 111.923 99.7935 111.705 99.66 111.521C99.6552 111.464 99.6552 111.407 99.66 111.351L99.97 111.191C99.9853 111.058 99.9853 110.924 99.97 110.791C100.65 109.661 102.07 108.511 101.46 108.091C101.07 107.911 100.46 108.551 99.73 109.171C99.6503 109.161 99.5697 109.161 99.49 109.171C100.49 108.451 98.97 108.171 99.55 107.691C100.43 107.231 101.23 106.631 102.11 106.171C105.488 104.435 108.752 102.484 111.88 100.331L112.32 100.041C113.878 99.0071 115.52 98.1072 117.23 97.3507C117.18 97.5014 117.12 97.6484 117.05 97.7907C118.461 97.2116 119.802 96.4771 121.05 95.6007C124.034 93.2099 127.174 91.0217 130.45 89.0507C134.06 87.0507 137.45 84.8707 140.92 82.4407C139.582 83.5768 138.165 84.6161 136.68 85.5507C135.97 85.9007 135.27 86.2607 134.61 86.6507C135.321 86.3241 136.012 85.9568 136.68 85.5507C139.41 84.2007 142.27 82.9107 143.68 80.5507C143.96 80.5507 144.04 80.6907 144.25 80.5507C145.79 79.7507 147.39 79.0907 148.41 77.8407C148.34 77.6907 149 77.3507 148.63 77.1807C149.87 76.3507 151.4 75.5507 152.57 74.5807C153.107 74.1343 153.561 73.596 153.91 72.9907C158.21 69.7707 162.46 66.5707 167.15 63.2007C168.34 62.4107 169.78 61.6407 171.06 60.9707C169.43 62.4307 167.7 63.8307 165.93 65.2107C164.043 65.9057 162.358 67.0605 161.03 68.5707C160.75 68.8907 160.47 69.2007 160.18 69.5007C162.13 68.0807 164.06 66.6607 165.93 65.2107C167.08 64.6807 168.28 64.2107 169.42 63.5907L169.36 63.6607C168.57 64.3007 167.77 64.9407 166.96 65.5707C165.284 66.2239 163.755 67.2028 162.46 68.4507C162.316 68.6015 162.182 68.7619 162.06 68.9307C161.78 69.2507 161.5 69.5607 161.21 69.8607C162.41 68.9907 163.61 68.1107 164.78 67.2307C165.51 66.6807 166.24 66.1307 166.96 65.5707L168.51 64.8807C168.467 64.9384 168.433 65.0025 168.41 65.0707C168.04 65.4407 167.68 67.7407 168.56 67.8207C171.91 66.0207 176.29 62.8707 176.37 63.0107C176.88 63.4707 171.49 67.2307 171.79 67.2607C172.09 67.2907 172.5 67.0407 172.84 66.9207C172.6 67.1907 172.36 67.4707 172.15 67.7507C171.57 68.2307 170.62 68.5507 170.33 69.0607C169.24 70.7107 167.33 71.3507 165.88 72.8307C165.01 73.8307 163.99 75.0807 162.98 76.3407C163.12 76.6207 162.39 76.8207 162.76 76.9907C161.52 77.6407 160.09 78.3907 160 79.4907L159.92 79.5607C159.806 79.6389 159.708 79.7371 159.63 79.8507C157.5 80.7807 156.48 82.3207 154.9 83.8507C154.288 84.2689 153.654 84.6529 153 85.0007C153.545 84.803 154.06 84.5304 154.53 84.1907L154.9 83.8507C156.46 82.7907 157.85 81.5907 159.27 80.4507C159.379 80.2476 159.499 80.0506 159.63 79.8607L159.99 79.7107C159.985 79.6408 159.985 79.5706 159.99 79.5007C161.29 78.3007 162.92 77.2607 163.99 76.1707C166.301 74.5365 168.786 73.1647 171.4 72.0807C170.29 72.9607 169.21 73.8607 168.16 74.7507C169.53 73.7507 170.81 72.7507 172.04 71.7507L172.68 71.4307L173.99 70.7407C173.55 70.8907 173.12 71.0607 172.69 71.2307C173.42 70.6407 174.14 70.0507 174.84 69.4407C178.905 66.4211 183.26 63.8117 187.84 61.6507C187.84 61.8707 187.84 62.1007 187.84 62.3207C185.74 63.5307 183.6 64.6507 182.24 66.3207C183.48 65.6807 184.24 64.9807 185.38 64.3207C185.38 64.4007 185.49 64.5107 185.38 64.6107C186.112 63.9939 186.891 63.4355 187.71 62.9407C187.63 63.4507 187.51 63.9407 187.39 64.5007C186.898 65.0033 186.327 65.4221 185.7 65.7407C182.98 67.4707 180.27 68.8007 177.7 70.6107C175.17 71.8707 172.7 73.1207 170.23 74.4207C172.43 72.7407 174.45 71.1607 176.36 69.5107ZM104.81 111.741C105 111.561 105.2 111.371 105.39 111.171H105.24C105.134 111.233 105.042 111.315 104.968 111.413C104.894 111.511 104.841 111.622 104.81 111.741ZM110 109.191C108.136 110.018 106.38 111.069 104.77 112.321C104.766 112.361 104.766 112.401 104.77 112.441C106.605 111.494 108.355 110.39 110 109.141V109.191ZM117.55 108.981H117.49V109.041L117.55 108.981ZM141.87 90.5007C140.49 92.1207 138.3 93.2707 136.26 94.7007C135.6 95.0507 135.26 95.9607 134.37 96.4107C133.37 97.1307 132.84 97.7607 132.03 98.3607L132.84 98.2907C131.23 98.9607 130.84 100.291 129.12 100.781C129.154 100.9 129.151 101.027 129.111 101.144C129.072 101.262 128.998 101.365 128.9 101.441C127.9 102.151 126.64 102.441 125.9 103.191C124.9 103.778 123.95 104.447 123.06 105.191C122.84 105.311 122.62 105.961 122.26 106.341C121.9 106.721 121.26 106.991 120.73 107.341L120.85 107.421C121.298 107.202 121.721 106.933 122.11 106.621C123.28 105.621 124.66 104.561 125.9 103.731C129.04 101.731 131.81 99.5607 134.58 97.3907C135.16 96.9007 135.67 96.2807 136.26 95.7907C137.93 94.1907 140.41 93.0707 141.21 91.3907C141.36 91.0807 141.8 90.8507 141.87 90.4507V90.5007ZM141.11 83.0907C139.127 84.8935 136.885 86.39 134.46 87.5307C132.7 88.4507 128.11 91.9407 129.88 93.1807C130.43 88.9107 144.33 85.4807 141.11 83.0407V83.0907ZM158.02 70.9207C157.224 71.6621 156.341 72.3035 155.39 72.8307L158.02 70.9207ZM151.7 81.5207C154.03 79.0407 157.02 77.2907 159.57 75.2307C161.57 73.6607 164.32 73.1107 165.77 71.0807C165.7 70.9407 165.63 70.8007 165.55 70.6607L165.41 70.9207C164.59 71.2407 163.86 71.3307 163.15 71.5507L163.24 71.4607L163.06 71.5807C162.555 71.737 162.086 71.9919 161.68 72.3307L161.07 72.9007C158.404 74.4438 155.941 76.3151 153.74 78.4707C152.42 79.7007 151.48 81.0907 150.17 82.3207C150.715 82.1267 151.23 81.8574 151.7 81.5207Z" fill="#FD8D55"/>
<path d="M172.14 71.2914C173 70.6214 173.86 69.9614 174.75 69.2914C175.4 68.7314 176.04 68.1614 176.67 67.5714C179.79 64.9714 184.03 63.0715 187.67 60.7515C187.566 60.2708 187.327 59.8301 186.98 59.4814C182.64 61.1714 178.98 64.0714 174.72 65.9814L174.64 66.0815C173.34 67.8515 170.34 69.0815 168.52 70.9115C166.7 72.7415 164.73 74.3315 162.92 76.1915C166.04 74.5515 168.89 72.6714 172.14 71.2914Z" fill="#FD8D55"/>
<path d="M150.11 91.3812C150.93 90.8512 151.74 90.3112 152.56 89.7612C154.81 88.1612 156.73 86.6112 158.66 84.9512C157.093 85.8712 155.493 86.7612 153.86 87.6212C152.443 88.6962 151.181 89.9615 150.11 91.3812Z" fill="#FD8D55"/>
<path d="M160.22 83.5912C159.69 84.0612 159.22 84.5112 158.66 84.9512C160.99 83.5912 163.27 82.1812 165.54 80.7612C169.12 78.1512 172.75 75.6112 176.25 72.8312C176.65 72.5212 177.06 72.2312 177.47 71.9512C170.15 75.5812 162.85 79.1912 157.64 84.1912C157.55 84.2912 157.44 84.3912 157.34 84.4912C160.21 82.8612 163 81.1412 165.76 79.4112C163.89 80.7412 162.04 82.1512 160.22 83.5912Z" fill="#FD8D55"/>
<path d="M171.31 71.9416L171.95 71.6216L172.6 71.1016L172.14 71.2916L171.31 71.9416Z" fill="#FD8D55"/>
<path d="M163.15 71.5508H163.06L161.06 72.8708C160.21 73.6408 159.3 74.3908 158.34 75.1108C160.077 74.1168 161.692 72.9219 163.15 71.5508Z" fill="#FD8D55"/>
<path d="M155.3 71.3408L154.43 71.8008L154.16 72.2608L154.8 71.9708L155.3 71.3408Z" fill="#FD8D55"/>
<path d="M143.58 80.4017C147.17 77.8117 150.5 75.3317 153.81 72.8617C153.93 72.6717 154.05 72.4717 154.16 72.2617C151.699 73.363 149.464 74.9127 147.57 76.8317C147.21 77.2017 146.78 77.9717 146.34 78.2017C144.413 79.4522 142.575 80.8355 140.84 82.3417C141.72 81.7317 142.6 81.1017 143.5 80.4517L143.58 80.4017Z" fill="#FD8D55"/>
<path d="M224.8 60.161L225.24 59.931C225.217 59.8823 225.19 59.8355 225.16 59.791L224.8 60.161Z" fill="#FD8D55"/>
<path d="M225.26 62.0911L225.4 62.0111C225.365 61.9827 225.335 61.949 225.31 61.9111C225.298 61.9723 225.281 62.0325 225.26 62.0911Z" fill="#FD8D55"/>
<path d="M225.16 59.7912C224.767 59.3449 224.489 58.8094 224.35 58.2312L225.35 57.7112C225.45 57.3012 225.06 57.1512 224.91 56.8712C225.15 56.7412 225.4 56.6112 225.32 56.4712C225.32 56.0112 224.89 55.9112 224.32 56.0712C224.13 58.2112 221.7 60.1912 225.16 59.7912Z" fill="#FD8D55"/>
<path d="M223.8 61.9512L225.09 61.2712C225.09 60.8812 225.09 60.4612 224.76 60.2012C224.283 60.6837 223.951 61.2898 223.8 61.9512Z" fill="#FD8D55"/>
<path d="M123.92 115.371C123.92 115.451 123.92 115.511 123.68 115.501L123.92 115.371C123.92 115.281 123.81 115.171 123.92 115.061C123.087 115.743 122.205 116.361 121.28 116.911C121.23 117.131 121.19 117.341 121.16 117.561C123.52 116.201 125.93 114.941 127.5 113.151C126.07 113.881 125.25 114.631 123.92 115.371Z" fill="#FD8D55"/>
<path d="M121.39 118.512L121.15 118.642C121.44 118.652 121.44 118.592 121.39 118.512Z" fill="#FD8D55"/>
<path d="M162.57 92.7412C163.889 91.8229 165.076 90.7296 166.1 89.4912C163.52 91.3712 160.76 93.0812 158.91 94.7412C160.12 94.0512 161.34 93.3812 162.57 92.7412Z" fill="#FD8D55"/>
<path d="M171.7 84.1709C169.972 84.822 168.428 85.8823 167.2 87.2609L171.4 84.5909C171.47 84.4509 171.58 84.3109 171.7 84.1709Z" fill="#FD8D55"/>
<path d="M170.1 86.1211C168.577 86.9935 167.222 88.1314 166.1 89.4811C167.531 88.4828 168.87 87.3583 170.1 86.1211Z" fill="#FD8D55"/>
<path d="M143.7 116.641C143.159 117.298 142.545 117.892 141.87 118.411C141.81 118.701 141.71 119.061 141.57 119.521L141.77 119.421C142.77 118.561 143.77 117.721 144.87 116.891C145.243 116.489 145.578 116.054 145.87 115.591C145.09 115.931 144.36 116.281 143.7 116.641Z" fill="#FD8D55"/>
<path d="M141.82 118.411C142.37 115.971 140.43 119.411 141.82 118.411V118.411Z" fill="#FD8D55"/>
<path d="M144.3 105.741L144.47 105.651L144.91 105.291L144.3 105.741Z" fill="#FD8D55"/>
<path d="M160.09 102.561C159.15 103.131 158.23 103.741 157.35 104.381C159.192 103.305 160.942 102.077 162.58 100.711C162.33 100.841 162.01 100.831 161.76 100.961C161.346 101.625 160.771 102.175 160.09 102.561Z" fill="#FD8D55"/>
<path d="M137.33 111.131C139.81 109.361 142.19 107.531 144.47 105.691C149.417 103.174 154.043 100.072 158.25 96.451C161.59 93.2411 168.62 89.901 171.36 85.571C170.928 85.7264 170.507 85.9101 170.1 86.1211C170.562 85.6446 170.987 85.133 171.37 84.5911C177.61 80.6811 183.82 77.0211 190.45 73.5311C191.45 73.0111 191.95 72.1911 192.93 71.6811L195.84 70.041C195.834 70.0236 195.823 70.008 195.809 69.9958C195.795 69.9835 195.778 69.975 195.76 69.9711C199.76 67.6511 203.55 65.281 207.5 62.601C209.39 61.421 211.43 60.5311 213.4 59.4911C214.13 59.1011 214.4 59.6711 215 59.5511C217.206 59.3398 219.378 58.863 221.47 58.1311L221.69 58.5511C221.96 58.3486 222.26 58.1899 222.58 58.0811C222.36 60.2211 219.97 62.2111 223.4 61.8011C223.26 61.9211 223.15 62.0511 223.04 62.1611H222.99C222.496 62.6404 222.149 63.251 221.99 63.9211L223.29 63.231C223.292 63.4656 223.369 63.6934 223.51 63.8811C223.51 63.9311 223.51 63.9911 223.46 64.0511L223.1 64.231C223.084 64.3639 223.084 64.4982 223.1 64.6311C222.29 65.8411 220.68 67.0911 221.33 67.4911C221.75 67.6611 222.44 66.961 223.28 66.291C223.366 66.3014 223.454 66.3014 223.54 66.291C222.38 67.081 224.06 67.2911 223.4 67.8111C222.4 68.3311 221.51 68.9911 220.52 69.5011C216.733 71.4684 213.061 73.6486 209.52 76.0311L209.03 76.351C207.271 77.4936 205.426 78.4967 203.51 79.351C203.58 79.191 203.66 79.0311 203.74 78.8811C202.173 79.5497 200.678 80.3773 199.28 81.351C195.904 84.0236 192.371 86.4913 188.7 88.7411C184.64 91.0211 180.83 93.4111 176.9 96.0911C178.426 94.8481 180.03 93.7025 181.7 92.6611C182.5 92.2611 183.28 91.8611 184.03 91.4311C183.233 91.801 182.455 92.2116 181.7 92.6611C178.64 94.2011 175.44 95.661 173.81 98.231C173.49 98.231 173.42 98.101 173.17 98.231C171.45 99.141 169.66 99.901 168.48 101.231C168.55 101.371 167.82 101.761 168.21 101.911C166.81 102.831 165.09 103.741 163.76 104.791C163.155 105.271 162.634 105.849 162.22 106.501C157.34 110.031 152.53 113.501 147.22 117.261C145.88 118.141 144.22 119.001 142.82 119.761C144.68 118.181 146.64 116.641 148.65 115.131C150.749 114.32 152.641 113.053 154.19 111.421C154.51 111.081 154.83 110.751 155.19 110.421C152.99 111.981 150.8 113.551 148.68 115.131C147.39 115.741 146.05 116.321 144.78 116.981L144.84 116.911L147.57 114.811C149.439 114.057 151.159 112.977 152.65 111.621C152.81 111.451 152.97 111.281 153.11 111.101C153.43 110.761 153.75 110.431 154.11 110.101C152.75 111.101 151.4 112.031 150.11 113.001L147.64 114.811L145.91 115.611C145.956 115.548 145.996 115.481 146.03 115.411C146.45 115.011 146.95 112.631 146.03 112.591C142.26 114.591 137.31 118.091 137.23 117.951C136.69 117.511 142.79 113.351 142.47 113.341L141.29 113.751C141.57 113.451 141.85 113.161 142.09 112.861C142.75 112.331 143.81 111.951 144.15 111.411C145.43 109.661 147.54 108.901 149.21 107.301C150.21 106.231 151.39 104.891 152.57 103.551C152.42 103.271 153.23 103.021 152.84 102.861C154.23 102.131 155.84 101.291 155.99 100.151L156.08 100.071C156.207 99.9876 156.319 99.8828 156.41 99.761C158.79 98.691 159.99 97.0611 161.79 95.4111C162.48 94.9611 163.18 94.5311 163.94 94.1311C163.328 94.3619 162.747 94.6675 162.21 95.041L161.79 95.4111C160.03 96.5811 158.45 97.8911 156.84 99.1311C156.74 99.2911 156.57 99.551 156.41 99.761L156 99.9311C156.005 100.004 156.005 100.078 156 100.151C154.52 101.451 152.67 102.611 151.45 103.781C148.834 105.589 146.044 107.13 143.12 108.381C144.38 107.381 145.61 106.441 146.8 105.461C145.25 106.591 143.8 107.671 142.4 108.741L141.69 109.111L140.21 109.881C140.71 109.701 141.21 109.511 141.66 109.311C140.83 109.961 140.01 110.611 139.22 111.311C134.619 114.627 129.737 117.534 124.63 120.001C124.638 119.77 124.662 119.539 124.7 119.311C127.06 117.961 129.46 116.691 131.03 114.901C129.64 115.631 128.81 116.381 127.49 117.121C127.49 117.041 127.37 116.931 127.49 116.821C126.651 117.492 125.769 118.106 124.85 118.661C124.96 118.141 125.12 117.591 125.28 117.041C125.788 116.475 126.374 115.983 127.02 115.581C130.08 113.661 133.13 112.141 136.09 110.151C138.92 108.731 141.74 107.311 144.47 105.841C141.79 107.611 139.49 109.341 137.33 111.131ZM217.85 63.981C217.63 64.171 217.41 64.3811 217.19 64.5911H217.36C217.587 64.4482 217.759 64.2334 217.85 63.981ZM212.03 66.8711C214.119 65.9291 216.098 64.7586 217.93 63.3811C217.937 63.3414 217.937 63.3007 217.93 63.261C215.875 64.3141 213.903 65.5209 212.03 66.8711ZM203.75 67.4911H203.81C203.812 67.4678 203.812 67.4443 203.81 67.4211L203.75 67.4911ZM176.17 87.7411C177.76 86.0011 180.17 84.7411 182.53 83.1311C183.27 82.7411 183.71 81.7911 184.69 81.2711C185.85 80.4811 186.43 79.8111 187.34 79.1511L186.45 79.261C188.25 78.491 188.79 77.1211 190.66 76.5011C190.629 76.3747 190.637 76.242 190.684 76.1205C190.73 75.999 190.813 75.8945 190.92 75.821C192.08 75.031 193.46 74.661 194.29 73.821C195.416 73.1572 196.492 72.4119 197.51 71.5911C197.76 71.4611 198.02 70.7711 198.44 70.3711C198.86 69.9711 199.59 69.651 200.17 69.291L200.04 69.2211C199.537 69.4685 199.058 69.7632 198.61 70.101C197.29 71.161 195.71 72.3511 194.31 73.2711C190.78 75.5011 187.63 77.8711 184.49 80.2711C183.83 80.8011 183.24 81.4711 182.58 82.0011C180.66 83.7311 177.88 85.0011 176.93 86.7811C176.76 87.1011 176.27 87.3611 176.17 87.7411ZM176.65 95.321C178.922 93.3503 181.448 91.6923 184.16 90.3911C186.16 89.3911 191.33 85.5311 189.45 84.3911C188.64 88.7411 173.23 93.011 176.7 95.351L176.65 95.321ZM157.51 108.741C158.429 107.93 159.436 107.222 160.51 106.631L157.51 108.741ZM164.95 97.4711C162.28 100.141 158.95 102.091 156.01 104.341C153.78 106.061 150.7 106.781 149.01 108.931L149.24 109.361L149.41 109.091C150.31 108.721 151.13 108.581 151.91 108.311L151.81 108.421L152.01 108.281C152.572 108.095 153.097 107.811 153.56 107.441L154.27 106.821C157.258 105.094 160.045 103.042 162.58 100.701C164.07 99.371 165.18 97.8911 166.67 96.5611C166.062 96.7973 165.484 97.1062 164.95 97.481V97.4711Z" fill="#FD8D55"/>
<path d="M142.04 109.071C141.04 109.801 140.04 110.531 139.04 111.251C138.3 111.861 137.57 112.481 136.85 113.121C133.31 115.961 128.56 118.121 124.5 120.701C124.583 121.189 124.825 121.636 125.19 121.971C130.03 119.971 134.24 116.831 138.96 114.641L139.04 114.541C140.57 112.651 143.91 111.251 145.99 109.251C148.07 107.251 150.32 105.531 152.4 103.531C148.89 105.401 145.7 107.481 142.04 109.071Z" fill="#FD8D55"/>
<path d="M167.17 87.2617L164.41 89.0617C161.87 90.8217 159.68 92.5117 157.49 94.3217C159.26 93.3217 161.05 92.3217 162.88 91.3217C164.476 90.1549 165.917 88.7907 167.17 87.2617Z" fill="#FD8D55"/>
<path d="M155.7 95.8013L157.48 94.3213C154.85 95.8413 152.28 97.4113 149.73 99.0013C145.67 101.871 141.57 104.671 137.59 107.721C137.14 108.051 136.68 108.371 136.22 108.721C144.42 104.601 152.6 100.501 158.55 95.0913L158.9 94.7713C155.67 96.6013 152.54 98.5113 149.42 100.441C151.54 98.9013 153.7 97.3913 155.7 95.8013Z" fill="#FD8D55"/>
<path d="M142.98 108.361L142.26 108.721L141.52 109.291L142.04 109.071L142.98 108.361Z" fill="#FD8D55"/>
<path d="M151.91 108.321H152.01C152.75 107.831 153.5 107.321 154.27 106.861C155.27 106.021 156.27 105.201 157.35 104.411C155.408 105.525 153.585 106.835 151.91 108.321Z" fill="#FD8D55"/>
<path d="M160.51 108.121L161.51 107.601L161.83 107.111L161.12 107.451L160.51 108.121Z" fill="#FD8D55"/>
<path d="M173.82 98.1908C169.75 101.041 165.97 103.761 162.23 106.481C162.08 106.681 161.94 106.901 161.81 107.111C164.552 105.866 167.069 104.177 169.26 102.111C169.67 101.711 170.19 100.891 170.68 100.631C172.848 99.247 174.929 97.7308 176.91 96.0908C175.91 96.7608 174.91 97.4508 173.91 98.1708L173.82 98.1908Z" fill="#FD8D55"/>
<path d="M124.24 90.2509V97.9409H119.43V78.1709H127.23C129.176 78.0552 131.091 78.6926 132.58 79.9508C133.187 80.4856 133.671 81.1446 134.001 81.8831C134.33 82.6215 134.497 83.4222 134.49 84.2308C134.484 85.4202 134.137 86.583 133.49 87.5809C132.682 88.7497 131.465 89.5737 130.08 89.8909L134.92 97.9409H129.29L124.85 90.2509H124.24ZM124.24 81.8309V86.5909H127.24C127.558 86.6093 127.876 86.5609 128.174 86.449C128.472 86.337 128.743 86.164 128.97 85.9409C129.183 85.714 129.349 85.4466 129.457 85.1546C129.565 84.8627 129.614 84.5519 129.6 84.2409C129.613 83.9237 129.562 83.6071 129.451 83.3099C129.339 83.0127 129.169 82.741 128.95 82.5108C128.729 82.2839 128.462 82.1061 128.167 81.9889C127.873 81.8718 127.557 81.8179 127.24 81.8309H124.24Z" fill="#2C3847"/>
<path d="M149.92 78.1208V81.7408H142.77V85.9908H149.07V89.7408H142.77V94.3308H149.92V97.9908H137.92V78.1208H149.92Z" fill="#2C3847"/>
<path d="M152.42 81.8308V78.1708H168.02V81.8308H162.62V97.9408H157.8V81.8308H152.42Z" fill="#2C3847"/>
<path d="M175.43 90.2509V97.9409H170.61V78.1709H178.41C180.356 78.0552 182.271 78.6926 183.76 79.9508C184.368 80.4844 184.854 81.1431 185.183 81.8818C185.513 82.6206 185.679 83.4219 185.67 84.2308C185.669 85.421 185.322 86.5852 184.67 87.5809C183.865 88.749 182.652 89.5732 181.27 89.8909L186.11 97.9409H180.48L176.03 90.2509H175.43ZM175.43 81.8309V86.5909H178.43C178.748 86.6093 179.066 86.5609 179.364 86.449C179.662 86.337 179.933 86.164 180.16 85.9409C180.375 85.7145 180.542 85.4474 180.652 85.1555C180.762 84.8636 180.812 84.5526 180.8 84.2409C180.811 83.9239 180.759 83.6079 180.647 83.3111C180.536 83.0142 180.367 82.7423 180.15 82.5108C179.927 82.2836 179.658 82.1058 179.362 81.9886C179.066 81.8715 178.748 81.8177 178.43 81.8309H175.43Z" fill="#2C3847"/>
<path d="M190.92 95.2608C189.034 93.3166 187.979 90.7144 187.979 88.0058C187.979 85.2972 189.034 82.695 190.92 80.7508C191.871 79.8179 192.998 79.0844 194.236 78.5933C195.475 78.1022 196.798 77.8633 198.13 77.8908C199.786 77.9113 201.411 78.3375 202.864 79.1319C204.317 79.9263 205.553 81.0648 206.464 82.4476C207.375 83.8304 207.933 85.4155 208.089 87.064C208.245 88.7125 207.995 90.3742 207.36 91.9036C206.726 93.4329 205.725 94.7834 204.448 95.8366C203.17 96.8899 201.654 97.6139 200.031 97.9452C198.409 98.2765 196.73 98.205 195.141 97.7371C193.553 97.2691 192.104 96.4188 190.92 95.2608ZM201.92 92.1408C202.846 90.9595 203.349 89.5019 203.349 88.0008C203.349 86.4998 202.846 85.0421 201.92 83.8608C200.905 82.8665 199.541 82.3096 198.12 82.3096C196.699 82.3096 195.335 82.8665 194.32 83.8608C193.4 85.045 192.901 86.5016 192.901 88.0008C192.901 89.5001 193.4 90.9567 194.32 92.1408C195.335 93.1351 196.699 93.692 198.12 93.692C199.541 93.692 200.905 93.1351 201.92 92.1408Z" fill="#2C3847"/>
<path d="M148.5 65.7417V63.7417H157.27V65.7417H154.27V74.7917H151.56V65.7417H148.5Z" fill="#2C3847"/>
<path d="M165.7 63.7417H168.4V74.8517H165.7V70.2517H161.41V74.8517H158.7V63.7417H161.41V68.1917H165.7V63.7417Z" fill="#2C3847"/>
<path d="M177.38 63.6816V65.7416H173.38V68.1317H176.92V70.1816H173.38V72.7416H177.38V74.7916H170.7V63.6816H177.38Z" fill="#2C3847"/>
<path d="M133.87 107.972C133.707 107.966 133.547 108.019 133.42 108.122C133.363 108.173 133.318 108.236 133.288 108.307C133.259 108.378 133.246 108.455 133.25 108.532C133.246 108.612 133.258 108.692 133.285 108.768C133.313 108.844 133.355 108.913 133.41 108.972C133.529 109.086 133.673 109.171 133.83 109.222C134.017 109.288 134.207 109.345 134.4 109.392C134.613 109.443 134.824 109.507 135.03 109.582C135.232 109.66 135.426 109.757 135.61 109.872C135.789 109.99 135.931 110.156 136.02 110.352C136.138 110.58 136.196 110.835 136.19 111.092C136.189 111.339 136.132 111.583 136.025 111.806C135.918 112.03 135.763 112.226 135.57 112.382C135.116 112.757 134.538 112.949 133.95 112.922C133.373 112.95 132.804 112.777 132.34 112.432C132.134 112.27 131.971 112.061 131.863 111.822C131.755 111.584 131.706 111.323 131.72 111.062H133.26C133.27 111.199 133.316 111.33 133.395 111.443C133.473 111.555 133.581 111.645 133.706 111.701C133.831 111.757 133.969 111.779 134.105 111.763C134.242 111.747 134.371 111.695 134.48 111.612C134.539 111.559 134.586 111.494 134.617 111.422C134.648 111.349 134.663 111.271 134.66 111.192C134.663 111.115 134.651 111.037 134.623 110.965C134.596 110.893 134.554 110.827 134.5 110.772C134.378 110.661 134.235 110.576 134.08 110.522C133.893 110.455 133.703 110.398 133.51 110.352C133.29 110.292 133.08 110.232 132.87 110.152C132.672 110.071 132.482 109.974 132.3 109.862C132.121 109.745 131.976 109.583 131.88 109.392C131.772 109.164 131.718 108.914 131.72 108.662C131.711 108.407 131.763 108.154 131.871 107.923C131.979 107.691 132.139 107.489 132.34 107.332C132.793 106.987 133.351 106.81 133.92 106.832C134.47 106.803 135.014 106.954 135.47 107.262C135.677 107.425 135.841 107.636 135.949 107.876C136.057 108.116 136.105 108.379 136.09 108.642H134.52C134.513 108.458 134.438 108.283 134.31 108.152C134.253 108.093 134.185 108.046 134.109 108.015C134.033 107.984 133.952 107.97 133.87 107.972Z" fill="#2C3847"/>
<path d="M142.34 108.012V106.912H147.03V108.012H145.41V112.862H143.96V108.012H142.34Z" fill="#2C3847"/>
<path d="M153.29 110.462V106.912H154.7V110.462C154.681 110.758 154.774 111.05 154.96 111.282C155.06 111.382 155.181 111.46 155.314 111.51C155.447 111.56 155.588 111.581 155.73 111.572C155.873 111.582 156.017 111.562 156.152 111.512C156.286 111.462 156.408 111.383 156.51 111.282C156.704 111.054 156.801 110.76 156.78 110.462V106.912H158.23V110.462C158.245 110.942 158.116 111.415 157.86 111.822C157.638 112.183 157.315 112.472 156.93 112.652C156.549 112.833 156.132 112.925 155.71 112.922C155.065 112.936 154.439 112.703 153.96 112.272C153.726 112.035 153.544 111.751 153.429 111.439C153.313 111.127 153.266 110.794 153.29 110.462Z" fill="#2C3847"/>
<path d="M167.02 106.912C167.874 106.882 168.707 107.179 169.35 107.742C169.651 108.009 169.889 108.34 170.048 108.709C170.207 109.079 170.283 109.479 170.27 109.882C170.282 110.285 170.206 110.687 170.047 111.058C169.888 111.429 169.65 111.762 169.35 112.032C168.707 112.595 167.874 112.891 167.02 112.862H164.92V106.862L167.02 106.912ZM166.37 111.762H167.02C167.261 111.774 167.501 111.735 167.725 111.647C167.949 111.559 168.152 111.424 168.32 111.252C168.65 110.878 168.819 110.389 168.79 109.892C168.818 109.391 168.65 108.9 168.32 108.522C168.152 108.349 167.949 108.214 167.725 108.126C167.501 108.038 167.261 107.999 167.02 108.012H166.37V111.762Z" fill="#2C3847"/>
<path d="M176.6 112.862V106.862H178.05V112.862H176.6Z" fill="#2C3847"/>
<path d="M185.28 112.052C184.708 111.47 184.388 110.687 184.388 109.872C184.388 109.056 184.708 108.273 185.28 107.692C185.565 107.412 185.902 107.192 186.273 107.044C186.644 106.896 187.041 106.824 187.44 106.832C187.839 106.824 188.236 106.896 188.607 107.044C188.978 107.192 189.315 107.412 189.6 107.692C190.165 108.277 190.48 109.058 190.48 109.872C190.48 110.685 190.165 111.466 189.6 112.052C189.019 112.609 188.245 112.92 187.44 112.92C186.635 112.92 185.861 112.609 185.28 112.052ZM188.58 111.112C188.876 110.768 189.03 110.325 189.01 109.872C189.029 109.416 188.876 108.969 188.58 108.622C188.271 108.328 187.861 108.164 187.435 108.164C187.009 108.164 186.599 108.328 186.29 108.622C185.997 108.97 185.847 109.417 185.87 109.872C185.846 110.324 185.997 110.767 186.29 111.112C186.595 111.413 187.006 111.582 187.435 111.582C187.864 111.582 188.275 111.413 188.58 111.112Z" fill="#2C3847"/>
<defs>
<filter id="filter0_d_2696_16268" x="0" y="0" width="324" height="197" filterUnits="userSpaceOnUse" color-interpolation-filters="sRGB">
<feFlood flood-opacity="0" result="BackgroundImageFix"/>
<feColorMatrix in="SourceAlpha" type="matrix" values="0 0 0 0 0 0 0 0 0 0 0 0 0 0 0 0 0 0 127 0" result="hardAlpha"/>
<feOffset dy="10"/>
<feGaussianBlur stdDeviation="15"/>
<feColorMatrix type="matrix" values="0 0 0 0 0.19 0 0 0 0 0.260533 0 0 0 0 0.343333 0 0 0 0.06 0"/>
<feBlend mode="normal" in2="BackgroundImageFix" result="effect1_dropShadow_2696_16268"/>
<feBlend mode="normal" in="SourceGraphic" in2="effect1_dropShadow_2696_16268" result="shape"/>
</filter>
</defs>
</svg>
