<svg width="49" height="50" viewBox="0 0 49 50" fill="none" xmlns="http://www.w3.org/2000/svg">
<path d="M16.4543 4.93059C15.1836 4.93059 14.167 5.94717 14.167 7.21788V11.4875L4.15374 1.47424C3.28965 0.61015 1.81562 0.61015 0.951533 1.47424C0.0874447 2.33833 0.0874447 3.81236 0.951533 4.67645L10.9648 14.6897H6.69518C5.42446 14.6897 4.40789 15.7063 4.40789 16.977C4.40789 18.2477 5.42446 19.2643 6.69518 19.2643H16.4543C17.725 19.2643 18.7416 18.2477 18.7416 16.977V7.21788C18.7416 6.60794 18.4874 6.04882 18.0808 5.59136C17.6742 5.13391 17.0642 4.93059 16.4543 4.93059Z" fill="#F29494"/>
<path d="M16.4543 30.7002H6.69518C6.08523 30.7002 5.52612 30.9543 5.06866 31.361C4.6112 31.7676 4.40789 32.3267 4.40789 32.9875C4.40789 34.2582 5.42446 35.2748 6.69518 35.2748H10.9648L0.951533 45.2372C0.0874447 46.1013 0.0874447 47.5753 0.951533 48.4394C1.81562 49.3035 3.28965 49.3035 4.15374 48.4394L14.167 38.4262V42.6958C14.167 43.9665 15.1836 44.9831 16.4543 44.9831C17.725 44.9831 18.7416 43.9665 18.7416 42.6958V32.9367C18.6908 31.7168 17.6742 30.7002 16.4543 30.7002Z" fill="#F29494"/>
<path d="M37.904 35.224H42.1736C43.4443 35.224 44.4609 34.2074 44.4609 32.9367C44.4609 31.666 43.4443 30.6494 42.1736 30.6494H32.4145C31.1438 30.6494 30.1272 31.666 30.1272 32.9367V42.6958C30.1272 43.3058 30.3813 43.8649 30.788 44.3223C31.1946 44.729 31.7537 44.9831 32.4145 44.9831C33.6852 44.9831 34.7018 43.9665 34.7018 42.6958V38.4262L44.715 48.4395C45.5791 49.3036 47.0532 49.3036 47.9172 48.4395C48.7813 47.5754 48.7813 46.1013 47.9172 45.2373L37.904 35.224Z" fill="#F29494"/>
<path d="M32.4145 19.213H42.1736C42.7836 19.213 43.3427 18.9589 43.8001 18.5522C44.2068 18.1456 44.4609 17.5865 44.4609 16.9257C44.4609 15.655 43.4443 14.6384 42.1736 14.6384H37.904L47.9172 4.62518C48.7813 3.76109 48.7813 2.28706 47.9172 1.42297C47.0532 0.55888 45.5791 0.55888 44.715 1.42297L34.7018 11.4871V7.21744C34.7018 5.94673 33.6852 4.93015 32.4145 4.93015C31.1438 4.93015 30.1272 5.94673 30.1272 7.21744V16.9766C30.178 18.1964 31.1946 19.213 32.4145 19.213Z" fill="#F29494"/>
<path d="M24.4344 29.8871C27.1574 29.8871 29.3648 27.6797 29.3648 24.9568C29.3648 22.2338 27.1574 20.0264 24.4344 20.0264C21.7114 20.0264 19.504 22.2338 19.504 24.9568C19.504 27.6797 21.7114 29.8871 24.4344 29.8871Z" fill="#F29494"/>
</svg>
