<svg width="58" height="50" viewBox="0 0 58 50" fill="none" xmlns="http://www.w3.org/2000/svg">
<path d="M28.5308 0.789303C28.3128 0.817225 28.1014 0.883283 27.9063 0.984458L1.05299 14.7234C0.745553 14.8804 0.48748 15.1193 0.307251 15.4138C0.127022 15.7082 0.0316443 16.0467 0.0316443 16.392C0.0316443 16.7372 0.127022 17.0757 0.307251 17.3701C0.48748 17.6646 0.745553 17.9035 1.05299 18.0605L27.9063 31.7994C28.1718 31.9363 28.4662 32.0077 28.765 32.0077C29.0637 32.0077 29.3581 31.9363 29.6236 31.7994L56.4769 18.0605C56.7844 17.9035 57.0424 17.6646 57.2227 17.3701C57.4029 17.0757 57.4983 16.7372 57.4983 16.392C57.4983 16.0467 57.4029 15.7082 57.2227 15.4138C57.0424 15.1193 56.7844 14.8804 56.4769 14.7234L29.6236 0.984458C29.2874 0.810501 28.9064 0.742462 28.5308 0.789303ZM28.765 4.77046L51.5005 16.4017L28.765 28.0134L6.02947 16.4017L28.765 4.77046ZM1.87264 23.2517C1.4513 23.2547 1.04329 23.3997 0.714505 23.6632C0.38572 23.9267 0.155354 24.2934 0.0606075 24.704C-0.0341385 25.1145 0.0122672 25.5451 0.19233 25.926C0.372393 26.3069 0.675602 26.616 1.05299 26.8034L27.9063 40.5424C28.1718 40.6793 28.4662 40.7507 28.765 40.7507C29.0637 40.7507 29.3581 40.6793 29.6236 40.5424L56.4769 26.8034C56.6969 26.6912 56.8926 26.5366 57.0527 26.3486C57.2129 26.1606 57.3343 25.9427 57.4101 25.7077C57.4858 25.4726 57.5145 25.2249 57.4943 24.9787C57.4742 24.7326 57.4056 24.4928 57.2926 24.2732C57.1796 24.0536 57.0243 23.8585 56.8357 23.699C56.6472 23.5395 56.4289 23.4189 56.1936 23.3439C55.9583 23.2689 55.7105 23.2411 55.4644 23.2621C55.2183 23.2831 54.9788 23.3525 54.7596 23.4663L28.765 36.7563L2.77035 23.4663C2.4937 23.321 2.18509 23.2472 1.87264 23.2517ZM1.87264 31.9945C1.45129 31.9976 1.04327 32.1426 0.714473 32.4061C0.385678 32.6696 0.155305 33.0363 0.0605575 33.4469C-0.0341899 33.8575 0.0122202 34.288 0.192293 34.6689C0.372366 35.0499 0.675588 35.359 1.05299 35.5464L27.9063 49.2853C28.1718 49.4222 28.4662 49.4936 28.765 49.4936C29.0637 49.4936 29.3581 49.4222 29.6236 49.2853L56.4769 35.5464C56.6961 35.4336 56.8909 35.2788 57.0501 35.0908C57.2094 34.9027 57.3301 34.6852 57.4054 34.4505C57.4806 34.2158 57.5088 33.9686 57.4885 33.723C57.4682 33.4774 57.3997 33.2382 57.2869 33.0191C57.1741 32.7999 57.0193 32.6052 56.8313 32.4459C56.6432 32.2866 56.4257 32.1659 56.191 32.0907C55.9563 32.0155 55.7091 31.9873 55.4635 32.0076C55.2179 32.0279 54.9787 32.0964 54.7596 32.2092L28.765 45.4993L2.77035 32.2092C2.4937 32.0639 2.18509 31.9901 1.87264 31.9945Z" fill="#F2AE72"/>
</svg>
