<svg width="134" height="156" viewBox="0 0 134 156" fill="none" xmlns="http://www.w3.org/2000/svg">
<path d="M80.2817 106.666C76.115 111.019 72.9004 117.313 70.2531 122.636C68.9232 125.294 71.9857 128.461 74.4132 126.171C76.8407 123.882 78.7445 121.643 80.8389 119.298C83.0533 117.129 85.0284 114.728 86.7301 112.137C88.9124 108.2 83.7861 103.048 80.2817 106.666Z" fill="#D4D5EB"/>
<path d="M56.7027 117.276C53.2242 120.928 50.4085 125.158 48.3818 129.777C46.6063 133.764 52.9137 136.408 55.1496 132.909C57.2713 129.621 59.7872 126.605 62.6412 123.928C67.0745 120.009 60.6842 113.103 56.7027 117.276Z" fill="#D4D5EB"/>
<path d="M80.1004 84.278C75.2903 89.0615 71.7677 95.7549 68.1314 101.446C65.2191 106.004 71.7918 109.853 75.043 105.862C79.0554 100.955 84.162 95.8172 87.0196 90.137C89.1584 85.8565 84.0622 80.3556 80.1004 84.278Z" fill="#D4D5EB"/>
<path d="M58.1535 91.3702C56.2079 93.2107 54.5244 95.3098 53.1503 97.6087L48.455 104.079C46.096 107.359 51.1669 111.774 53.9653 108.74L59.3656 102.895C61.3521 101.095 63.0867 99.036 64.5227 96.7726C65.0241 95.9119 65.2065 94.9021 65.038 93.9204C64.8696 92.9386 64.361 92.0475 63.6013 91.4031C62.8417 90.7588 61.8795 90.4024 60.8834 90.3964C59.8873 90.3903 58.9209 90.7351 58.1535 91.3702Z" fill="#D4D5EB"/>
<path d="M34.0873 118.276C31.4659 121.746 28.4307 124.884 25.049 127.619C21.1713 130.806 26.2903 136.216 30.1697 133.328C34.2443 130.282 37.9289 126.746 41.1405 122.8C44.5665 118.728 37.3721 113.904 34.0873 118.276Z" fill="#D4D5EB"/>
<path d="M77.2748 59.3575C73.5603 64.4025 72.0919 70.9002 68.6912 76.058C68.3907 76.5683 68.2801 77.1683 68.3789 77.7521C68.4777 78.336 68.7796 78.8661 69.2312 79.2491C69.6829 79.632 70.2553 79.8431 70.8474 79.8452C71.4396 79.8472 72.0134 79.64 72.4677 79.2602C74.8987 76.9376 77.6866 75.2641 80.0747 72.844C82.5464 70.6133 84.6971 68.0508 86.4655 65.2298C87.1214 64.0148 87.2934 62.5968 86.947 61.2603C86.6005 59.9238 85.7614 58.7678 84.5979 58.0244C83.4345 57.281 82.0328 57.0053 80.6745 57.2526C79.3162 57.4998 78.1017 58.2518 77.2748 59.3575Z" fill="#D4D5EB"/>
<path d="M59.5791 64.7125C57.398 67.4992 55.4602 70.4679 53.7867 73.586C53.4549 74.2 53.3677 74.9169 53.5427 75.5926C53.7177 76.2683 54.1419 76.8527 54.7301 77.2285C55.3183 77.6043 56.0268 77.7437 56.7135 77.6185C57.4002 77.4934 58.0141 77.113 58.4319 76.5539C60.5641 73.7293 62.444 70.7228 64.0499 67.569C65.13 65.1375 61.3192 62.7026 59.5791 64.7125Z" fill="#D4D5EB"/>
<path d="M31.8531 95.5063C26.6296 100.704 22.3613 106.781 19.2434 113.458C17.4738 117.325 23.53 119.704 25.7836 116.479C29.2801 111.322 33.4118 106.627 38.0811 102.502C42.7334 98.4596 36.0706 91.2386 31.8531 95.5063Z" fill="#D4D5EB"/>
<path d="M33.3889 69.6898C28.2275 74.9226 23.874 80.8945 20.4713 87.4093C19.9437 88.235 19.7658 89.2365 19.9766 90.1935C20.1874 91.1504 20.7697 91.9844 21.5954 92.5119C22.4211 93.0395 23.4226 93.2175 24.3795 93.0067C25.3364 92.7959 26.1704 92.2135 26.698 91.3878C30.7664 86.2006 34.9455 81.2245 39.3931 76.3497C43.1934 72.1311 37.4894 65.5228 33.3889 69.6898Z" fill="#D4D5EB"/>
<path d="M64.44 29.9023C59.2643 35.561 55.0097 41.9977 51.8316 48.9768C49.7084 53.4252 55.7352 57.6617 58.4942 53.2338C62.3378 47.0261 66.8241 41.4044 71.0423 35.4887C73.8878 31.5019 67.8832 26.2974 64.44 29.9023Z" fill="#D4D5EB"/>
<path d="M82.0599 25.0259C78.6322 29.4299 74.9894 33.7315 71.9692 38.431C69.3433 42.5406 74.9508 47.3511 78.5715 44.0174C82.7212 40.2676 86.2599 35.8819 90.0045 31.7505C90.532 31.2429 90.9472 30.6304 91.2231 29.9523C91.499 29.2742 91.6295 28.5457 91.6062 27.814C91.5829 27.0823 91.4062 26.3637 91.0877 25.7045C90.7693 25.0454 90.316 24.4604 89.7572 23.9874C89.1984 23.5144 88.5466 23.164 87.8439 22.9588C87.1412 22.7536 86.4033 22.6981 85.6778 22.796C84.9523 22.8939 84.2554 23.1429 83.6322 23.527C83.009 23.9112 82.4734 24.4218 82.0599 25.0259Z" fill="#D4D5EB"/>
<path d="M109.915 57.625C104.547 62.8416 100.683 70.1238 96.6029 76.373C93.4201 81.3544 100.504 85.3367 104.075 81.1472C108.582 75.767 114.244 70.2824 117.48 64.0373C119.877 59.3253 114.211 53.4255 109.915 57.625Z" fill="#D4D5EB"/>
<path d="M108.369 26.227C105.693 29.3136 103.238 32.5862 101.025 36.0203C98.4232 39.3836 96.0406 42.9108 93.8919 46.5801C91.8674 50.4075 96.4968 55.1017 100.011 51.7701C102.825 48.8677 105.453 45.7905 107.879 42.557C110.742 39.3875 113.375 36.0181 115.759 32.4746C118.488 27.9571 112.298 22.0552 108.369 26.227Z" fill="#D4D5EB"/>
</svg>
