<svg width="49" height="50" viewBox="0 0 49 50" fill="none" xmlns="http://www.w3.org/2000/svg">
<path d="M35.8471 37.8831L28.0685 32.6918V24.8313L35.8471 19.6401L43.6257 24.8313V32.6918L35.8471 37.8831ZM30.5249 31.3326L35.8471 34.9681L41.1693 31.4145V26.1742L35.8471 22.6042L30.5249 26.1578V31.3326Z" fill="#635C73"/>
<path d="M37.0753 29.8589H34.6189V36.4093H37.0753V29.8589Z" fill="#635C73"/>
<path d="M35.8473 31.3323L28.6091 26.5177L29.9847 24.4707L35.8473 28.3846L41.71 24.4707L43.0856 26.5177L35.8473 31.3323Z" fill="#635C73"/>
<path d="M25.6122 18.3955H23.1558V47.8724H25.6122V18.3955Z" fill="#635C73"/>
<path d="M37.0753 39.6846H34.6189V44.5974H37.0753V39.6846Z" fill="#635C73"/>
<path d="M14.1489 15.1201H11.6925V44.597H14.1489V15.1201Z" fill="#635C73"/>
<path d="M48.5386 49.4939L35.8472 45.8748L24.3839 49.15L12.9207 45.8748L0.229248 49.4939V17.4624L12.9207 13.8433L24.3839 17.1185L30.1974 15.4481L30.8688 17.8226L24.3839 19.6731L12.9207 16.3979L2.68566 19.3129V46.2351L12.9207 43.3201L24.3839 46.5954L35.8472 43.3201L46.0822 46.2351V19.3129L40.8255 17.8226L41.4969 15.4481L48.5386 17.4624V49.4939Z" fill="#635C73"/>
<path d="M35.8471 18.2481L35.1429 17.7569C34.4224 17.2492 28.0685 12.6967 28.0685 8.55353C28.0685 6.49051 28.888 4.51198 30.3468 3.05321C31.8056 1.59443 33.7841 0.774902 35.8471 0.774902C37.9101 0.774902 39.8886 1.59443 41.3474 3.05321C42.8062 4.51198 43.6257 6.49051 43.6257 8.55353C43.6257 12.6967 37.2718 17.2492 36.5513 17.7569L35.8471 18.2481ZM35.8471 3.24769C34.4356 3.24769 33.0818 3.80842 32.0837 4.80653C31.0856 5.80464 30.5249 7.15836 30.5249 8.5699C30.5249 10.535 33.5381 13.4827 35.8471 15.235C38.1561 13.4827 41.1693 10.5187 41.1693 8.5699C41.1693 7.15836 40.6086 5.80464 39.6105 4.80653C38.6124 3.80842 37.2586 3.24769 35.8471 3.24769Z" fill="#635C73"/>
<path d="M35.8472 9.99485C36.4986 9.99485 37.1234 9.73605 37.5841 9.27538C38.0448 8.81472 38.3036 8.18992 38.3036 7.53844C38.3036 6.88696 38.0448 6.26216 37.5841 5.8015C37.1234 5.34083 36.4986 5.08203 35.8472 5.08203C35.1957 5.08203 34.5709 5.34083 34.1102 5.8015C33.6495 6.26216 33.3907 6.88696 33.3907 7.53844C33.3907 8.18992 33.6495 8.81472 34.1102 9.27538C34.5709 9.73605 35.1957 9.99485 35.8472 9.99485Z" fill="#635C73"/>
</svg>
