<svg width="24" height="24" viewBox="0 0 24 24" fill="none" xmlns="http://www.w3.org/2000/svg">
<path d="M12 2C6.477 2 2 6.477 2 12C2 16.4435 4.9005 20.2055 8.91 21.508H15.09C19.0995 20.2055 22 16.4435 22 12C22 6.477 17.523 2 12 2Z" fill="#8B93A7"/>
<path opacity="0.05" d="M15.005 20.9979L15 18.099C15 17.6295 14.89 17.1709 14.679 16.7555C17.4995 16.189 18.872 14.5214 18.872 11.6669C18.872 10.5394 18.5395 9.54395 17.884 8.70695C17.934 8.54845 17.971 8.38445 17.994 8.21645C18.088 7.53195 17.9825 7.08445 17.8975 6.72445L17.884 6.66645C17.791 6.26845 17.6795 5.98445 17.675 5.97245L17.6195 5.83145L17.564 5.69045L17.413 5.67445L17.2615 5.65845C17.2615 5.65845 17.162 5.64795 17.011 5.64795C16.8015 5.64795 16.491 5.66895 16.1975 5.76845L16.0995 5.80145C15.7295 5.92595 15.38 6.04395 14.891 6.33595C14.748 6.42145 14.5915 6.51895 14.424 6.62795C13.667 6.44045 12.8525 6.34495 12 6.34495C11.139 6.34495 10.3175 6.44095 9.55551 6.63045C9.38601 6.52045 9.22851 6.42195 9.08451 6.33595C8.59551 6.04395 8.24601 5.92645 7.87601 5.80145L7.77801 5.76845C7.48551 5.66895 7.17451 5.64795 6.96501 5.64795C6.81401 5.64795 6.71451 5.65845 6.71451 5.65845L6.56351 5.67445L6.41351 5.68995L6.35751 5.83045L6.30101 5.97195C6.29601 5.98495 6.18451 6.26895 6.09151 6.66745L6.07801 6.72495C5.99301 7.08445 5.88751 7.53245 5.98151 8.21645C6.00551 8.38945 6.04401 8.55895 6.09651 8.72195C5.45401 9.55495 5.12851 10.5449 5.12851 11.6669C5.12851 14.5144 6.50251 16.181 9.32701 16.752C9.23001 16.946 9.15451 17.1509 9.10101 17.3639C9.00251 17.3974 8.91201 17.42 8.83201 17.4325C8.71301 17.4504 8.58851 17.4594 8.46251 17.4594C8.11951 17.4594 7.85001 17.3924 7.74501 17.3299C7.58851 17.2369 7.30901 16.9664 7.03801 16.5709C6.80651 16.2334 6.44551 15.7919 6.04201 15.6074C5.69301 15.4479 5.32351 15.3564 5.02751 15.3564C4.95851 15.3564 4.89501 15.3614 4.83951 15.3704C4.58101 15.4114 4.36501 15.5534 4.24751 15.7604C4.14601 15.9389 4.13001 16.1469 4.20351 16.3309C4.31301 16.6049 4.62901 16.8234 4.87501 16.9584C4.99601 17.0249 5.25751 17.268 5.41001 17.5129C5.52451 17.6969 5.57751 17.828 5.65101 18.009C5.69451 18.1165 5.74251 18.2334 5.80751 18.3749C6.04251 18.8859 6.77601 19.3369 6.85901 19.3864C7.26201 19.6279 7.93951 19.7055 8.43751 19.728L8.49901 19.7294H8.49951C8.61951 19.7294 8.78451 19.7179 9.00151 19.6939V21.0004C9.00251 21.2649 8.73301 21.3249 8.37651 21.3194L8.65001 21.4115C9.69751 21.7859 10.8225 22 12 22C13.1775 22 14.3025 21.7859 15.3515 21.412L15.703 21.2809C15.3475 21.2689 15.008 21.2109 15.005 20.9979Z" fill="#8B93A7"/>
<path opacity="0.07" d="M15.3905 21.3984C15.1875 21.422 14.75 21.3439 14.75 21.0009V18.099C14.75 17.552 14.586 17.0234 14.282 16.5729C17.2395 16.0944 18.6215 14.5264 18.6215 11.6669C18.6215 10.5484 18.2785 9.56995 17.602 8.75595C17.6705 8.57345 17.7185 8.38095 17.746 8.18245C17.8335 7.54445 17.738 7.13945 17.654 6.78195L17.6405 6.72395C17.5515 6.34345 17.4465 6.07545 17.442 6.06445L17.3865 5.92345L17.235 5.90745C17.235 5.90745 17.146 5.89795 17.0105 5.89795C16.82 5.89795 16.5385 5.91645 16.2775 6.00545L16.1795 6.03845C15.8225 6.15895 15.485 6.27245 15.019 6.55045C14.853 6.64945 14.668 6.76595 14.4685 6.89745C13.702 6.69695 12.8725 6.59495 12 6.59495C11.119 6.59495 10.2825 6.69745 9.51049 6.89995C9.30899 6.76745 9.12299 6.65045 8.95599 6.55045C8.48999 6.27245 8.15249 6.15845 7.79549 6.03845L7.69749 6.00545C7.43699 5.91695 7.15499 5.89795 6.96449 5.89795C6.82899 5.89795 6.73999 5.90745 6.73999 5.90745L6.58899 5.92345L6.53249 6.06495C6.52799 6.07595 6.42299 6.34395 6.33399 6.72445L6.32049 6.78245C6.23599 7.13995 6.14049 7.54445 6.22849 8.18245C6.25649 8.38595 6.30649 8.58295 6.37749 8.76945C5.71399 9.57945 5.37799 10.5529 5.37799 11.6669C5.37799 14.5184 6.76099 16.0859 9.72099 16.5699C9.52349 16.8649 9.38549 17.1974 9.31449 17.5519C9.14949 17.6169 8.99999 17.6599 8.86899 17.6799C8.73749 17.7 8.60049 17.7099 8.46199 17.7099C8.11699 17.7099 7.78549 17.6454 7.61699 17.5454C7.39699 17.4149 7.08849 17.0884 6.83099 16.7129C6.65599 16.4579 6.30749 16.0044 5.93699 15.8354C5.61949 15.6904 5.28799 15.6069 5.02649 15.6069C4.97149 15.6069 4.92149 15.6109 4.87749 15.6179C4.69449 15.6469 4.54349 15.7439 4.46349 15.8849C4.39949 15.997 4.38899 16.1264 4.43399 16.2389C4.52349 16.4629 4.85499 16.6639 4.99349 16.7399C5.16099 16.8319 5.45299 17.1119 5.62049 17.3819C5.74599 17.5839 5.80549 17.7304 5.88099 17.9155C5.92349 18.0199 5.96999 18.1339 6.03299 18.2714C6.19849 18.6309 6.70949 19.0075 6.98549 19.1729C7.36249 19.3989 8.06249 19.4619 8.44649 19.4789L8.50199 19.4799C8.65149 19.4799 8.90199 19.4574 9.24949 19.4124V21.0009C9.24949 21.3904 8.75399 21.4059 8.63249 21.4059C8.61699 21.4059 8.88399 21.4979 8.88399 21.4979C9.86549 21.8199 10.911 22 12 22C13.089 22 14.1345 21.82 15.1155 21.4985C15.1155 21.4985 15.406 21.3965 15.3905 21.3984Z" fill="#8B93A7"/>
<path d="M18.3721 11.667C18.3721 10.512 17.9811 9.55401 17.3136 8.80301C17.3861 8.64051 17.4616 8.42251 17.4991 8.14851C17.5851 7.52351 17.4836 7.14851 17.3976 6.78151C17.3116 6.41451 17.2101 6.15651 17.2101 6.15651C17.2101 6.15651 16.7491 6.10951 16.3586 6.24251C15.9681 6.37551 15.6321 6.47701 15.1476 6.76601C14.9211 6.90101 14.6931 7.04901 14.5126 7.16901C13.7411 6.95501 12.8926 6.84501 12.0001 6.84501C11.0996 6.84501 10.2436 6.95551 9.46664 7.17101C9.28564 7.05051 9.05614 6.90151 8.82814 6.76551C8.34364 6.47651 8.00764 6.37501 7.61714 6.24201C7.22664 6.10901 6.76564 6.15601 6.76564 6.15601C6.76564 6.15601 6.66414 6.41401 6.57814 6.78101C6.49214 7.14801 6.39064 7.52301 6.47664 8.14801C6.51514 8.42901 6.59314 8.65101 6.66764 8.81451C6.01264 9.56101 5.62864 10.513 5.62864 11.6665C5.62864 14.658 7.24464 16.0235 10.1891 16.384C9.84564 16.747 9.61514 17.212 9.53764 17.7295C9.34414 17.8145 9.12114 17.8945 8.90664 17.9265C8.35464 18.01 7.77114 17.9265 7.49014 17.76C7.20914 17.5935 6.87564 17.2185 6.62564 16.8535C6.41464 16.5455 6.11014 16.188 5.83414 16.062C5.46964 15.8955 5.11514 15.833 4.91764 15.864C4.71964 15.8955 4.62614 16.041 4.66764 16.1455C4.70914 16.2495 4.90714 16.406 5.11564 16.5205C5.32414 16.635 5.64714 16.9475 5.83464 17.2495C6.04364 17.5865 6.08464 17.781 6.26164 18.166C6.38614 18.437 6.81214 18.7755 7.11564 18.9575C7.37614 19.114 7.89664 19.203 8.45964 19.2285C8.65414 19.2375 9.11364 19.1805 9.50114 19.1255V21.0005C9.50114 21.32 9.20864 21.563 8.90564 21.507C9.87814 21.834 10.9166 22 12.0001 22C13.0831 22 14.1216 21.834 15.0951 21.508C14.7926 21.5635 14.5001 21.3205 14.5001 21.001V18.099C14.5001 17.4345 14.2366 16.834 13.8136 16.3865C16.7366 16.0355 18.3721 14.7025 18.3721 11.667ZM5.61964 16.3635C5.54264 16.324 5.50114 16.251 5.52714 16.1995C5.55314 16.148 5.63714 16.1385 5.71414 16.178C5.79114 16.2175 5.83264 16.2905 5.80664 16.342C5.78064 16.3935 5.69664 16.403 5.61964 16.3635ZM6.22564 16.741C6.18514 16.785 6.09814 16.771 6.03114 16.71C5.96414 16.649 5.94264 16.5635 5.98314 16.5195C6.02364 16.4755 6.11064 16.4895 6.17764 16.5505C6.24464 16.6115 6.26614 16.697 6.22564 16.741ZM6.60264 17.366C6.55164 17.402 6.46514 17.3685 6.40964 17.291C6.35414 17.2135 6.35064 17.121 6.40164 17.085C6.45264 17.049 6.53914 17.0825 6.59464 17.16C6.64964 17.2375 6.65364 17.33 6.60264 17.366ZM7.14414 17.8365C7.10964 17.8925 7.01164 17.895 6.92564 17.8425C6.83964 17.79 6.79764 17.702 6.83214 17.646C6.86664 17.59 6.96464 17.5875 7.05064 17.64C7.13664 17.6925 7.17864 17.7805 7.14414 17.8365ZM7.65614 18.297C7.54964 18.284 7.47064 18.2175 7.47964 18.1485C7.48814 18.0795 7.58164 18.0345 7.68764 18.0475C7.79414 18.0605 7.87314 18.127 7.86414 18.196C7.85564 18.2645 7.76264 18.31 7.65614 18.297ZM8.48164 18.4165C8.36814 18.41 8.27964 18.345 8.28414 18.272C8.28864 18.199 8.38414 18.1445 8.49764 18.151C8.61114 18.1575 8.69964 18.2225 8.69514 18.2955C8.69064 18.369 8.59514 18.423 8.48164 18.4165ZM9.26064 18.3385C9.13964 18.3385 9.04164 18.2755 9.04164 18.198C9.04164 18.1205 9.13964 18.0575 9.26064 18.0575C9.38164 18.0575 9.47964 18.1205 9.47964 18.198C9.47964 18.2755 9.38114 18.3385 9.26064 18.3385Z" fill="white"/>
</svg>
