<svg width="120" height="37" viewBox="0 0 120 37" fill="none" xmlns="http://www.w3.org/2000/svg">
<path d="M40.895 9.322C41.687 9.322 42.257 9.133 42.605 8.755C42.953 8.377 43.127 7.849 43.127 7.171C43.127 6.871 43.082 6.598 42.992 6.352C42.902 6.106 42.764 5.896 42.578 5.722C42.398 5.542 42.167 5.404 41.885 5.308C41.609 5.212 41.279 5.164 40.895 5.164H39.311V9.322H40.895ZM40.895 2.887C41.819 2.887 42.611 2.998 43.271 3.22C43.937 3.436 44.483 3.736 44.909 4.12C45.341 4.504 45.659 4.957 45.863 5.479C46.067 6.001 46.169 6.565 46.169 7.171C46.169 7.825 46.064 8.425 45.854 8.971C45.644 9.517 45.323 9.985 44.891 10.375C44.459 10.765 43.91 11.071 43.244 11.293C42.584 11.509 41.801 11.617 40.895 11.617H39.311V16H36.269V2.887H40.895ZM53.7283 10.987L52.5133 7.396C52.4233 7.168 52.3273 6.901 52.2253 6.595C52.1233 6.283 52.0213 5.947 51.9193 5.587C51.8293 5.953 51.7333 6.292 51.6313 6.604C51.5293 6.916 51.4333 7.186 51.3433 7.414L50.1373 10.987H53.7283ZM58.5613 16H56.2033C55.9393 16 55.7263 15.94 55.5643 15.82C55.4023 15.694 55.2793 15.535 55.1953 15.343L54.4213 13.057H49.4353L48.6613 15.343C48.5953 15.511 48.4753 15.664 48.3013 15.802C48.1333 15.934 47.9233 16 47.6713 16H45.2953L50.3713 2.887H53.4853L58.5613 16ZM64.4533 11.014V16H61.4113V11.014L56.6593 2.887H59.3413C59.6053 2.887 59.8123 2.95 59.9623 3.076C60.1183 3.196 60.2473 3.352 60.3493 3.544L62.2033 7.36C62.3593 7.66 62.5003 7.942 62.6263 8.206C62.7523 8.464 62.8633 8.719 62.9593 8.971C63.0493 8.713 63.1513 8.455 63.2653 8.197C63.3853 7.933 63.5233 7.654 63.6793 7.36L65.5153 3.544C65.5573 3.466 65.6083 3.388 65.6683 3.31C65.7283 3.232 65.7973 3.163 65.8753 3.103C65.9593 3.037 66.0523 2.986 66.1543 2.95C66.2623 2.908 66.3793 2.887 66.5053 2.887H69.2053L64.4533 11.014ZM88.0949 2.887L84.0449 16H81.2909L78.8249 7.873C78.7769 7.747 78.7319 7.609 78.6899 7.459C78.6479 7.303 78.6059 7.141 78.5639 6.973C78.5219 7.141 78.4799 7.303 78.4379 7.459C78.3959 7.609 78.3509 7.747 78.3029 7.873L75.8009 16H73.0469L68.9969 2.887H71.5529C71.8169 2.887 72.0359 2.947 72.2099 3.067C72.3899 3.187 72.5069 3.346 72.5609 3.544L74.3609 10.384C74.4149 10.6 74.4689 10.837 74.5229 11.095C74.5769 11.347 74.6309 11.611 74.6849 11.887C74.7929 11.323 74.9249 10.822 75.0809 10.384L77.2049 3.544C77.2589 3.376 77.3729 3.226 77.5469 3.094C77.7269 2.956 77.9429 2.887 78.1949 2.887H79.0949C79.3589 2.887 79.5719 2.95 79.7339 3.076C79.8959 3.196 80.0189 3.352 80.1029 3.544L82.2089 10.384C82.3649 10.804 82.4969 11.281 82.6049 11.815C82.6529 11.545 82.7009 11.293 82.7489 11.059C82.8029 10.819 82.8569 10.594 82.9109 10.384L84.7109 3.544C84.7589 3.37 84.8729 3.217 85.0529 3.085C85.2329 2.953 85.4489 2.887 85.7009 2.887H88.0949ZM95.406 10.987L94.191 7.396C94.101 7.168 94.005 6.901 93.903 6.595C93.801 6.283 93.699 5.947 93.597 5.587C93.507 5.953 93.411 6.292 93.309 6.604C93.207 6.916 93.111 7.186 93.021 7.414L91.815 10.987H95.406ZM100.239 16H97.881C97.617 16 97.404 15.94 97.242 15.82C97.08 15.694 96.957 15.535 96.873 15.343L96.099 13.057H91.113L90.339 15.343C90.273 15.511 90.153 15.664 89.979 15.802C89.811 15.934 89.601 16 89.349 16H86.973L92.049 2.887H95.163L100.239 16ZM109.175 13.57V16H101.273V2.887H104.315V13.57H109.175ZM118.632 13.57V16H110.73V2.887H113.772V13.57H118.632ZM39.329 23.227V26.548H43.811V28.897H39.329V34H36.269V20.887H44.711V23.227H39.329ZM50.5143 34H47.4543V20.887H50.5143V34ZM65.4822 20.887V34H63.8982C63.6642 34 63.4662 33.964 63.3042 33.892C63.1482 33.814 62.9922 33.682 62.8362 33.496L56.6532 25.675C56.6772 25.909 56.6922 26.137 56.6982 26.359C56.7102 26.575 56.7162 26.779 56.7162 26.971V34H54.0342V20.887H55.6362C55.7682 20.887 55.8792 20.893 55.9692 20.905C56.0592 20.917 56.1402 20.941 56.2122 20.977C56.2842 21.007 56.3532 21.052 56.4192 21.112C56.4852 21.172 56.5602 21.253 56.6442 21.355L62.8812 29.23C62.8512 28.978 62.8302 28.735 62.8182 28.501C62.8062 28.261 62.8002 28.036 62.8002 27.826V20.887H65.4822ZM75.9463 28.987L74.7313 25.396C74.6413 25.168 74.5453 24.901 74.4433 24.595C74.3413 24.283 74.2393 23.947 74.1373 23.587C74.0473 23.953 73.9513 24.292 73.8493 24.604C73.7473 24.916 73.6513 25.186 73.5613 25.414L72.3553 28.987H75.9463ZM80.7793 34H78.4213C78.1573 34 77.9443 33.94 77.7823 33.82C77.6203 33.694 77.4973 33.535 77.4133 33.343L76.6393 31.057H71.6533L70.8793 33.343C70.8133 33.511 70.6933 33.664 70.5193 33.802C70.3513 33.934 70.1413 34 69.8893 34H67.5133L72.5893 20.887H75.7033L80.7793 34ZM94.2512 20.887V34H92.6672C92.4332 34 92.2352 33.964 92.0732 33.892C91.9172 33.814 91.7612 33.682 91.6052 33.496L85.4222 25.675C85.4462 25.909 85.4612 26.137 85.4672 26.359C85.4792 26.575 85.4852 26.779 85.4852 26.971V34H82.8032V20.887H84.4052C84.5372 20.887 84.6482 20.893 84.7382 20.905C84.8282 20.917 84.9092 20.941 84.9812 20.977C85.0532 21.007 85.1222 21.052 85.1882 21.112C85.2542 21.172 85.3292 21.253 85.4132 21.355L91.6502 29.23C91.6202 28.978 91.5992 28.735 91.5872 28.501C91.5752 28.261 91.5692 28.036 91.5692 27.826V20.887H94.2512ZM106.623 30.607C106.695 30.607 106.767 30.622 106.839 30.652C106.911 30.676 106.98 30.721 107.046 30.787L108.252 32.056C107.724 32.746 107.061 33.268 106.263 33.622C105.471 33.97 104.532 34.144 103.446 34.144C102.45 34.144 101.556 33.976 100.764 33.64C99.9784 33.298 99.3094 32.83 98.7574 32.236C98.2114 31.636 97.7914 30.928 97.4974 30.112C97.2034 29.29 97.0564 28.399 97.0564 27.439C97.0564 26.461 97.2154 25.564 97.5334 24.748C97.8514 23.926 98.2984 23.218 98.8744 22.624C99.4504 22.03 100.14 21.568 100.944 21.238C101.748 20.908 102.633 20.743 103.599 20.743C104.091 20.743 104.553 20.788 104.985 20.878C105.423 20.962 105.831 21.082 106.209 21.238C106.587 21.388 106.935 21.571 107.253 21.787C107.571 22.003 107.853 22.237 108.099 22.489L107.073 23.866C107.007 23.95 106.929 24.028 106.839 24.1C106.749 24.166 106.623 24.199 106.461 24.199C106.353 24.199 106.251 24.175 106.155 24.127C106.059 24.079 105.957 24.022 105.849 23.956C105.741 23.884 105.621 23.809 105.489 23.731C105.363 23.647 105.21 23.572 105.03 23.506C104.856 23.434 104.649 23.374 104.409 23.326C104.175 23.278 103.899 23.254 103.581 23.254C103.077 23.254 102.615 23.347 102.195 23.533C101.781 23.719 101.421 23.992 101.115 24.352C100.815 24.706 100.581 25.144 100.413 25.666C100.251 26.182 100.17 26.773 100.17 27.439C100.17 28.111 100.26 28.708 100.44 29.23C100.626 29.752 100.875 30.193 101.187 30.553C101.505 30.907 101.874 31.177 102.294 31.363C102.714 31.549 103.164 31.642 103.644 31.642C103.92 31.642 104.172 31.63 104.4 31.606C104.628 31.576 104.841 31.531 105.039 31.471C105.237 31.405 105.423 31.321 105.597 31.219C105.771 31.111 105.948 30.976 106.128 30.814C106.2 30.754 106.278 30.706 106.362 30.67C106.446 30.628 106.533 30.607 106.623 30.607ZM113.63 23.227V26.287H117.752V28.537H113.63V31.66H119.012V34H110.57V20.887H119.012V23.227H113.63Z" fill="#7073BE"/>
<rect width="27" height="37" rx="4" fill="#7073BE"/>
<path d="M13.2423 18.0488C14.1103 18.0488 14.8897 17.9274 15.5803 17.6848C16.271 17.4421 16.8543 17.1061 17.3303 16.6768C17.8157 16.2474 18.1843 15.7434 18.4363 15.1648C18.6977 14.5768 18.8283 13.9374 18.8283 13.2468C18.8283 11.7254 18.3617 10.5541 17.4283 9.73276C16.495 8.91142 15.0997 8.50076 13.2423 8.50076H9.56032V18.0488H13.2423ZM13.2423 7.36676C15.5663 7.36676 17.3163 7.87542 18.4923 8.89276C19.6777 9.91009 20.2703 11.3614 20.2703 13.2468C20.2703 14.1148 20.107 14.9128 19.7803 15.6408C19.4537 16.3688 18.987 16.9988 18.3803 17.5308C17.7737 18.0534 17.0363 18.4641 16.1683 18.7628C15.3003 19.0521 14.325 19.1968 13.2423 19.1968H9.56032V27.1768H8.11832V7.36676H13.2423Z" fill="white"/>
</svg>
