<svg width="24" height="24" viewBox="0 0 24 24" fill="none" xmlns="http://www.w3.org/2000/svg">
<path d="M22.1458 3.14492C21.7858 2.83964 21.2204 2.79596 20.6358 3.03068H20.6348C20.0199 3.2774 3.22953 10.4793 2.54601 10.7736C2.42169 10.8168 1.33593 11.2219 1.44777 12.1243C1.54761 12.9379 2.42025 13.2748 2.52681 13.3137L6.79544 14.7753C7.07865 15.718 8.12265 19.1961 8.35353 19.9392C8.49753 20.4024 8.73224 21.011 9.14361 21.1363C9.50457 21.2755 9.86361 21.1483 10.0959 20.9659L12.7057 18.5452L16.9186 21.8308L17.019 21.8908C17.305 22.0176 17.5791 22.0809 17.8407 22.0809C18.0428 22.0809 18.2367 22.043 18.422 21.9672C19.0532 21.708 19.3057 21.1065 19.3321 21.0384L22.479 4.6814C22.671 3.8078 22.4041 3.36332 22.1458 3.14492ZM10.5601 15.36L9.12009 19.2L7.68009 14.4L18.7201 6.23996L10.5601 15.36Z" fill="#2F80ED"/>
</svg>
