<svg width="22" height="18" viewBox="0 0 22 18" fill="none" xmlns="http://www.w3.org/2000/svg">
<path d="M21.4 2.54963C20.6344 2.88963 19.812 3.11843 18.9488 3.22163C19.8304 2.69363 20.5064 1.85763 20.8248 0.860828C20.0008 1.34963 19.0872 1.70483 18.1144 1.89683C17.336 1.06723 16.2272 0.548828 15 0.548828C12.6432 0.548828 10.7328 2.46003 10.7328 4.81603C10.7328 5.15043 10.7712 5.47683 10.8432 5.78803C7.29684 5.61043 4.15284 3.91123 2.04724 1.32883C1.68084 1.95923 1.47044 2.69203 1.47044 3.47523C1.47044 4.95523 2.22324 6.26163 3.36804 7.02643C2.66884 7.00403 2.01044 6.81203 1.43524 6.49283C1.43524 6.51123 1.43524 6.52803 1.43524 6.54643C1.43524 8.61443 2.90564 10.3392 4.85844 10.7304C4.50084 10.828 4.12324 10.88 3.73364 10.88C3.45924 10.88 3.19124 10.8528 2.93124 10.804C3.47444 12.4992 5.05044 13.7336 6.91764 13.768C5.45764 14.9128 3.61764 15.5952 1.61764 15.5952C1.27364 15.5952 0.933643 15.5752 0.599243 15.5352C2.48804 16.7456 4.73044 17.452 7.14084 17.452C14.9904 17.452 19.2816 10.9496 19.2816 5.31043C19.2816 5.12563 19.2776 4.94163 19.2696 4.75843C20.104 4.15603 20.828 3.40483 21.4 2.54963Z" fill="#56CCF2"/>
</svg>
