<svg width="206" height="32" viewBox="0 0 206 32" fill="none" xmlns="http://www.w3.org/2000/svg">
<path d="M205.565 20.6417C205.565 26.8388 201.929 31.8813 194.3 31.8813C187.016 31.8813 183.078 26.8386 183.078 20.6417C183.078 14.4021 186.779 9.35938 194.3 9.35938C201.929 9.35938 205.565 14.4021 205.565 20.6417ZM199.719 20.6417C199.719 16.7523 197.073 15.6414 194.3 15.6414C191.569 15.6414 188.923 16.7523 188.923 20.6417C188.923 24.5308 191.569 25.5989 194.3 25.5989C197.073 25.5989 199.719 24.5308 199.719 20.6417Z" fill="url(#paint0_linear_2696_16196)"/>
<path d="M158.135 20.6419C158.135 14.4023 163.17 9.35958 169.357 9.35958C171.32 9.35958 173.155 9.87263 174.776 10.7268V0.427224C174.776 0.170937 174.947 0 175.203 0H180.196C180.409 0 180.623 0.171174 180.623 0.427224V20.6419C180.623 26.839 175.587 31.8816 169.357 31.8816C163.17 31.8816 158.135 26.839 158.135 20.6419ZM169.357 25.5991C172.131 25.5991 174.777 24.531 174.777 20.6419C174.777 16.7526 172.131 15.6416 169.357 15.6416C166.626 15.6416 163.981 16.7526 163.981 20.6419C163.981 24.531 166.626 25.5991 169.357 25.5991Z" fill="url(#paint1_linear_2696_16196)"/>
<path d="M105.298 31.8813H100.306C100.05 31.8813 99.8796 31.7102 99.8796 31.4539V20.6417C99.8796 16.7523 97.2335 15.6414 94.4601 15.6414C91.7291 15.6414 89.0838 16.7523 89.0838 20.6417V31.4539C89.0838 31.7102 88.8702 31.8813 88.657 31.8813H83.6643C83.4084 31.8813 83.2375 31.7102 83.2375 31.4539V20.6417C83.2375 16.7523 80.5922 15.6414 77.8188 15.6414C75.0878 15.6414 72.442 16.7523 72.442 20.6417V31.4539C72.442 31.7102 72.2291 31.8813 72.0156 31.8813H67.023C66.7671 31.8813 66.5962 31.7102 66.5962 31.4539V20.6417C66.5962 14.4021 70.5243 9.35938 77.8188 9.35938C81.1468 9.35938 84.0911 10.7698 86.1395 13.0342C88.2304 10.7695 91.1747 9.35938 94.4601 9.35938C101.771 9.35938 105.725 14.4021 105.725 20.6417V31.4539C105.725 31.7104 105.512 31.8813 105.298 31.8813Z" fill="url(#paint2_linear_2696_16196)"/>
<path d="M130.735 20.6417C130.735 26.8388 127.099 31.8813 119.47 31.8813C112.186 31.8813 108.248 26.8386 108.248 20.6417C108.248 14.4021 111.949 9.35938 119.47 9.35938C127.099 9.35938 130.735 14.4021 130.735 20.6417ZM124.889 20.6417C124.889 16.7523 122.244 15.6414 119.47 15.6414C116.739 15.6414 114.093 16.7523 114.093 20.6417C114.093 24.5308 116.739 25.5989 119.47 25.5989C122.244 25.5989 124.889 24.5308 124.889 20.6417Z" fill="url(#paint3_linear_2696_16196)"/>
<path d="M155.252 31.8813H150.26C150.004 31.8813 149.833 31.7102 149.833 31.4539V20.6417C149.833 16.7523 147.188 15.6414 144.414 15.6414C141.683 15.6414 139.038 16.7523 139.038 20.6417V31.4539C139.038 31.7102 138.824 31.8813 138.611 31.8813H133.618C133.362 31.8813 133.191 31.7102 133.191 31.4539V20.6417C133.191 14.4021 136.964 9.35938 144.414 9.35938C151.878 9.35938 155.679 14.4021 155.679 20.6417V31.4539C155.679 31.7104 155.466 31.8813 155.252 31.8813Z" fill="url(#paint4_linear_2696_16196)"/>
<path d="M38.7021 31.8813H33.7102C33.4536 31.8813 33.2834 31.7102 33.2834 31.4539V20.6417C33.2834 16.7523 30.6373 15.6414 27.8639 15.6414C25.1329 15.6414 22.4876 16.7523 22.4876 20.6417V31.4539C22.4876 31.7102 22.274 31.8813 22.0608 31.8813H17.0681C16.8122 31.8813 16.6413 31.7102 16.6413 31.4539V20.6417C16.6413 16.7523 13.996 15.6414 11.2226 15.6414C8.49158 15.6414 5.84577 16.7523 5.84577 20.6417V31.4539C5.84577 31.7102 5.63296 31.8813 5.41944 31.8813H0.426804C0.170911 31.8813 0 31.7102 0 31.4539V20.6417C0 14.4021 3.92811 9.35938 11.2226 9.35938C14.5506 9.35938 17.4949 10.7698 19.5433 13.0342C21.6342 10.7695 24.5785 9.35938 27.8639 9.35938C35.175 9.35938 39.1289 14.4021 39.1289 20.6417V31.4539C39.1289 31.7104 38.9154 31.8813 38.7021 31.8813Z" fill="url(#paint5_linear_2696_16196)"/>
<path d="M64.1394 20.6417C64.1394 26.8388 60.5034 31.8813 52.8745 31.8813C45.5901 31.8813 41.6519 26.8386 41.6519 20.6417C41.6519 14.4021 45.3532 9.35938 52.8745 9.35938C60.5034 9.35938 64.1394 14.4021 64.1394 20.6417ZM58.2932 20.6417C58.2932 16.7523 55.6479 15.6414 52.8745 15.6414C50.1434 15.6414 47.4974 16.7523 47.4974 20.6417C47.4974 24.5308 50.1434 25.5989 52.8745 25.5989C55.6479 25.5989 58.2932 24.5308 58.2932 20.6417Z" fill="url(#paint6_linear_2696_16196)"/>
<defs>
<linearGradient id="paint0_linear_2696_16196" x1="194.321" y1="9.35938" x2="194.321" y2="31.8813" gradientUnits="userSpaceOnUse">
<stop stop-color="#FFBA00"/>
<stop offset="1" stop-color="#FF2E00"/>
</linearGradient>
<linearGradient id="paint1_linear_2696_16196" x1="169.379" y1="0" x2="169.379" y2="31.8816" gradientUnits="userSpaceOnUse">
<stop stop-color="#FFBA00"/>
<stop offset="1" stop-color="#FF2E00"/>
</linearGradient>
<linearGradient id="paint2_linear_2696_16196" x1="86.1608" y1="9.35938" x2="86.1608" y2="31.8813" gradientUnits="userSpaceOnUse">
<stop stop-color="#FF30AE"/>
<stop offset="1" stop-color="#D1003A"/>
</linearGradient>
<linearGradient id="paint3_linear_2696_16196" x1="119.491" y1="9.35938" x2="119.491" y2="31.8813" gradientUnits="userSpaceOnUse">
<stop stop-color="#FF30AE"/>
<stop offset="1" stop-color="#D1003A"/>
</linearGradient>
<linearGradient id="paint4_linear_2696_16196" x1="144.435" y1="9.35938" x2="144.435" y2="31.8813" gradientUnits="userSpaceOnUse">
<stop stop-color="#FF30AE"/>
<stop offset="1" stop-color="#D1003A"/>
</linearGradient>
<linearGradient id="paint5_linear_2696_16196" x1="19.5643" y1="9.35938" x2="19.5643" y2="31.8813" gradientUnits="userSpaceOnUse">
<stop stop-color="#00D7E5"/>
<stop offset="1" stop-color="#0066AE"/>
</linearGradient>
<linearGradient id="paint6_linear_2696_16196" x1="52.8958" y1="9.35938" x2="52.8958" y2="31.8813" gradientUnits="userSpaceOnUse">
<stop stop-color="#00D7E5"/>
<stop offset="1" stop-color="#0066AE"/>
</linearGradient>
</defs>
</svg>
