<svg width="207" height="35" viewBox="0 0 207 35" fill="none" xmlns="http://www.w3.org/2000/svg">
<path d="M81.2111 3.1368C81.2111 1.40244 82.6088 -0.000267029 84.3294 -0.000267029C86.0559 -0.000267029 87.4591 1.40244 87.4591 3.1368C87.4591 4.86921 86.0559 6.27344 84.3294 6.27344C82.6088 6.27344 81.2111 4.86899 81.2111 3.1368Z" fill="#273B7D"/>
<path d="M130.506 24.004C130.506 22.269 131.903 20.8645 133.624 20.8645C135.349 20.8645 136.752 22.269 136.752 24.004C136.752 25.7347 135.349 27.1406 133.624 27.1406C131.903 27.1406 130.506 25.7349 130.506 24.004Z" fill="#499FDD"/>
<path d="M29.9339 22.6487C27.2431 22.6487 25.3732 20.5086 25.3732 17.4502C25.3732 14.3924 27.2431 12.2536 29.9339 12.2536C32.6401 12.2536 34.5306 14.3924 34.5306 17.4502C34.5306 20.557 32.6795 22.6489 29.9339 22.6489V22.6487ZM29.9339 7.68467C24.2412 7.68467 20.1099 11.7928 20.1099 17.4502C20.1099 23.1076 24.2412 27.2148 29.9339 27.2148C35.6479 27.2148 39.7965 23.1076 39.7965 17.4502C39.7965 11.7928 35.6479 7.68467 29.9339 7.68467ZM75.1593 17.9385C74.938 17.5215 74.6842 17.1684 74.414 16.8882L74.2419 16.7052L74.423 16.5313C74.6843 16.2554 74.9515 15.9283 75.2091 15.5491L80.2327 8.06972H74.1342L70.3597 13.9204C70.146 14.2342 69.7146 14.3924 69.0689 14.3924H68.2086V3.33121C68.2086 1.11875 66.8324 0.817596 65.3457 0.817596H62.8005L62.8048 26.9272H68.2086V19.0954H68.7148C69.3308 19.0954 69.7503 19.1667 69.9427 19.5021L72.9236 25.1373C73.7563 26.6664 74.5862 26.9272 76.1473 26.9272H80.2885L77.2042 21.8178L75.1593 17.9385ZM101.393 7.64283C98.6441 7.64283 96.8903 8.86575 95.9075 9.89997L95.5793 10.2323L95.4635 9.78033C95.1748 8.67246 94.2017 8.06296 92.7372 8.06296H90.3153L90.3305 26.9207H95.6975V18.2292C95.6975 17.3794 95.8078 16.642 96.0322 15.9693C96.6296 13.9331 98.2961 12.667 100.379 12.667C102.054 12.667 102.709 13.5524 102.709 15.8407V24.0538C102.709 26.007 103.611 26.9207 105.562 26.9207H108.116L108.108 14.9268C108.108 10.1617 105.787 7.64283 101.394 7.64283H101.393ZM84.3999 8.07124H81.856L81.8734 22.6518H81.8717V26.925H84.5871C84.6212 26.925 84.6486 26.9287 84.6828 26.9287L85.9476 26.925H87.2065V26.9176H87.2153L87.2262 10.934C87.2262 9.00543 86.3056 8.07124 84.4018 8.07124H84.3999ZM51.0152 22.6487C48.3246 22.6487 46.451 20.5086 46.451 17.4502C46.451 14.3924 48.3246 12.2536 51.0152 12.2536C53.7157 12.2536 55.6115 14.3924 55.6115 17.4502C55.6115 20.557 53.761 22.6489 51.0152 22.6489V22.6487ZM51.0152 7.68467C45.3168 7.68467 41.1846 11.7928 41.1846 17.4502C41.1846 23.1076 45.3168 27.2148 51.0152 27.2148C56.7233 27.2148 60.8786 23.1076 60.8786 17.4502C60.8786 11.7928 56.7233 7.68467 51.0152 7.68467Z" fill="#273B7D"/>
<path d="M166.058 22.6487C163.369 22.6487 161.494 20.5086 161.494 17.4502C161.494 14.3924 163.369 12.2536 166.058 12.2536C168.759 12.2536 170.656 14.3924 170.656 17.4502C170.656 20.557 168.804 22.6489 166.058 22.6489V22.6487ZM166.058 7.68467C160.361 7.68467 156.229 11.7928 156.229 17.4502C156.229 23.1076 160.361 27.2148 166.058 27.2148C171.767 27.2148 175.921 23.1076 175.921 17.4502C175.921 11.7928 171.767 7.68467 166.058 7.68467Z" fill="#499FDD"/>
<path d="M119.424 21.8191C116.49 21.8191 115.445 19.2551 115.445 16.8524C115.445 15.7938 115.713 12.3436 119.142 12.3436C120.846 12.3436 123.118 12.8328 123.118 17.03C123.118 20.9888 121.108 21.8191 119.424 21.8191ZM125.904 8.02042C124.886 8.02042 124.102 8.42726 123.709 9.16991L123.561 9.45821L123.312 9.24203C122.446 8.49111 120.892 7.6005 118.37 7.6005C113.351 7.6005 109.973 11.3756 109.973 16.9936C109.973 22.6049 113.469 26.5264 118.471 26.5264C120.18 26.5264 121.53 26.1272 122.6 25.3155L123.014 25.0039V25.5282C123.014 28.0468 121.388 29.4362 118.44 29.4362C117.007 29.4362 115.703 29.0869 114.831 28.77C113.692 28.426 113.025 28.7108 112.563 29.8548L112.137 30.9104L111.534 32.4523L111.908 32.6515C113.795 33.6543 116.251 34.2529 118.471 34.2529C123.042 34.2529 128.379 31.9097 128.379 25.3155L128.398 8.02042H125.905" fill="#273B7D"/>
<path d="M9.94677 22.434L5.57782 22.4296V17.1982C5.57782 16.0801 6.01061 15.4987 6.9673 15.3649H9.94677C12.0734 15.3649 13.4474 16.7084 13.4489 18.8814C13.4474 21.1115 12.1075 22.4327 9.94677 22.434ZM5.57782 8.32156V6.94479C5.57782 5.73973 6.08695 5.16663 7.20421 5.09297H9.43974C11.357 5.09297 12.5054 6.24224 12.5054 8.16466C12.5054 9.63078 11.7193 11.3414 9.51026 11.3414H5.57782V8.32156ZM15.5266 13.5427L14.7367 13.0982L15.4262 12.5077C16.2279 11.8171 17.5722 10.2649 17.5722 7.58284C17.5722 3.47889 14.3939 0.83017 9.47467 0.83017H3.86087V0.828644H3.22171C1.76329 0.88225 0.596396 2.07009 0.580078 3.53991V26.8337H3.15637C3.1629 26.835 3.16509 26.8337 3.16726 26.835L9.58555 26.8337C15.0539 26.8337 18.5835 23.8526 18.5835 19.235C18.5835 16.7491 17.4427 14.6236 15.5254 13.5427" fill="#273B7D"/>
<path d="M199.897 7.70461C197.67 7.70461 195.517 8.74907 194.135 10.5006L193.746 10.9942L193.441 10.442C192.447 8.6266 190.736 7.70461 188.357 7.70461C185.863 7.70461 184.189 9.0986 183.412 9.92732L182.904 10.4791L182.708 9.75343C182.424 8.70897 181.496 8.13368 180.089 8.13368H177.833L177.812 26.9184H182.937V18.6262C182.937 17.8999 183.027 17.181 183.209 16.4296C183.699 14.4259 185.043 12.2707 187.303 12.4863C188.697 12.6201 189.378 13.6989 189.378 15.7826V26.9184H194.54V18.6262C194.54 17.7186 194.624 17.0391 194.829 16.3573C195.244 14.4444 196.648 12.4834 198.828 12.4834C200.407 12.4834 200.99 13.3784 200.99 15.7826V24.1723C200.99 26.0703 201.835 26.9184 203.729 26.9184H206.142L206.146 14.9262C206.146 10.1356 204.04 7.70461 199.896 7.70461H199.897ZM153.262 20.3963C153.247 20.4148 151.041 22.7441 148.137 22.7441C145.492 22.7441 142.819 21.1182 142.819 17.4889C142.819 14.3553 144.891 12.1653 147.857 12.1653C148.821 12.1653 149.916 12.5109 150.088 13.0923L150.113 13.1903C150.508 14.5085 151.704 14.5791 151.939 14.5791L154.747 14.5821V12.1237C154.747 8.88091 150.629 7.70483 147.857 7.70483C141.931 7.70483 137.631 11.8373 137.631 17.5283C137.631 23.2169 141.884 27.3438 147.749 27.3438C152.837 27.3438 155.604 23.9938 155.63 23.9604L155.778 23.7789L153.554 20.0842L153.262 20.3965" fill="#499FDD"/>
</svg>
