<svg width="206" height="52" viewBox="0 0 206 52" fill="none" xmlns="http://www.w3.org/2000/svg">
<path d="M122.903 32.397H123.064L128.402 16.6846H135.518L126.461 39.8482H118.859L109.317 16.6846H117.08L122.903 32.397Z" fill="#37474D"/>
<path d="M81.4992 22.3546H74.5446V29.9678C74.5446 30.6157 74.5446 31.1017 74.7063 31.7496C74.7063 32.2356 74.8681 32.7215 75.1916 33.0455C75.3533 33.3695 75.8385 33.6934 76.3237 33.8554C76.8089 34.0174 77.4558 34.1794 78.2645 34.1794C78.7497 34.1794 79.2349 34.1794 79.8819 34.0174C80.5288 34.0174 81.014 33.6934 81.4992 33.5315V39.5248C80.6905 39.8488 79.7201 40.0108 78.7497 40.1728C77.7793 40.3348 76.9706 40.3348 76.0002 40.3348C74.7063 40.3348 73.4125 40.1728 72.2803 40.0108C71.1482 39.6868 70.1778 39.3629 69.3691 38.8769C68.5604 38.391 67.9135 37.581 67.4283 36.7711C66.9431 35.9612 66.7814 34.8273 66.7814 33.5315V22.5166H61.7676V16.8471H66.7814V9.88184H74.5446V16.6852H81.4992V22.3546Z" fill="#37474D"/>
<path d="M83.6018 16.685H90.7181V20.4107C91.5268 18.9528 92.3355 17.9809 93.4676 17.171C94.438 16.5231 95.8936 16.0371 97.3492 16.0371H98.6431C99.1283 16.0371 99.4518 16.1991 99.7753 16.1991V22.6784C99.2901 22.5165 98.8049 22.3545 98.3197 22.3545C97.8345 22.3545 97.3492 22.1925 96.7023 22.1925C95.4084 22.1925 94.2763 22.3545 93.4676 22.8404C92.6589 23.1644 92.012 23.8123 91.6885 24.4603C91.2033 25.1082 91.0416 25.9181 90.8799 26.89C90.7181 27.8619 90.7181 28.8338 90.7181 29.9677V39.5247H83.6018V16.685Z" fill="#37474D"/>
<path d="M104.951 14.4171C105.922 14.4171 106.892 14.0931 107.539 13.2832C108.348 12.4733 108.671 11.6633 108.671 10.6914C108.671 9.71954 108.348 8.74764 107.539 8.0997C106.731 7.28979 105.922 6.96582 104.951 6.96582C103.981 6.96582 103.011 7.28979 102.364 8.0997C101.555 8.90962 101.232 9.71954 101.232 10.6914C101.232 11.6633 101.555 12.6352 102.364 13.2832C103.011 13.9311 103.819 14.4171 104.951 14.4171Z" fill="#37474D"/>
<path d="M101.392 16.6846H108.509V39.6862H101.392V16.6846Z" fill="#37474D"/>
<path d="M147.649 29.6436H145.708C144.899 29.6436 144.091 29.8056 143.444 29.9676C142.635 30.1296 141.988 30.4535 141.503 30.9395C141.018 31.4254 140.694 32.0734 140.694 32.7213C140.694 33.5312 141.018 34.1791 141.826 34.6651C142.473 35.1511 143.282 35.313 144.091 35.313C144.738 35.313 145.385 35.1511 146.032 34.9891C146.679 34.8271 147.325 34.5031 147.811 34.1791C148.296 33.8552 148.781 33.3692 148.943 32.8833C149.266 32.3973 149.428 31.7494 149.428 30.9395V29.4816H147.649V29.6436ZM149.266 36.9329C148.458 38.2287 147.325 39.0387 146.032 39.5246C144.738 40.0106 143.282 40.3345 141.826 40.3345C140.694 40.3345 139.724 40.1725 138.754 39.8486C137.783 39.5246 136.813 39.0387 136.166 38.5527C135.357 37.9048 134.872 37.2568 134.387 36.2849C133.901 35.475 133.74 34.3411 133.74 33.2072C133.74 31.9114 134.063 30.7775 134.548 29.8056C135.034 28.8337 135.681 28.1858 136.489 27.5378C137.298 26.8899 138.268 26.4039 139.4 26.08C140.533 25.756 141.665 25.432 142.797 25.2701C143.929 25.1081 145.061 24.9461 146.193 24.9461H149.428C149.428 23.6502 148.943 22.6783 148.134 21.8684C147.164 21.0585 146.193 20.7345 144.899 20.7345C143.767 20.7345 142.635 21.0585 141.665 21.5444C140.694 22.0304 139.886 22.6783 139.077 23.4882L135.357 19.6006C136.651 18.3048 138.268 17.4948 140.047 16.8469C141.826 16.199 143.606 15.875 145.546 15.875C147.649 15.875 149.266 16.199 150.722 16.6849C152.016 17.1709 153.148 17.9808 153.957 18.9527C154.765 19.9246 155.25 21.2205 155.574 22.6783C155.897 24.1362 156.059 25.918 156.059 27.6998V39.3626H149.59V36.9329H149.266Z" fill="#37474D"/>
<path d="M204.742 23.3265C204.095 21.8687 203.286 20.5728 202.316 19.4389C201.345 18.305 200.051 17.4951 198.596 17.0091C197.14 16.3612 195.684 16.1992 194.067 16.1992C192.45 16.1992 190.994 16.5232 189.539 17.0091C188.083 17.6571 186.951 18.467 185.819 19.4389C184.848 20.5728 183.878 21.7067 183.393 23.3265C182.746 24.7844 182.422 26.4042 182.422 28.348C182.422 30.2918 182.746 31.9116 183.393 33.3695C184.04 34.8274 184.848 36.1232 185.819 37.2571C186.789 38.391 188.083 39.2009 189.539 39.6869C190.994 40.3348 192.45 40.4968 194.067 40.4968C195.684 40.4968 197.14 40.1728 198.596 39.6869C200.051 39.2009 201.183 38.229 202.316 37.2571C203.286 36.1232 204.256 34.9893 204.742 33.3695C205.389 31.9116 205.712 30.2918 205.712 28.348C205.712 26.4042 205.389 24.7844 204.742 23.3265ZM197.949 32.3976C196.978 33.5315 195.846 34.0174 194.229 34.0174C192.612 34.0174 191.318 33.5315 190.509 32.3976C189.539 31.2637 189.215 29.9678 189.215 28.186C189.215 26.4042 189.7 25.1083 190.509 23.9744C191.479 22.8406 192.612 22.3546 194.229 22.3546C195.846 22.3546 197.14 22.8406 197.949 23.9744C198.919 25.1083 199.243 26.4042 199.243 28.186C199.243 29.9678 198.757 31.4257 197.949 32.3976Z" fill="#37474D"/>
<path d="M174.82 16.8464V19.9241C174.82 19.9241 174.335 19.1142 173.85 18.7902C173.365 18.3043 172.88 17.9803 172.071 17.6563C171.424 17.3324 170.615 17.0084 169.807 16.8464C168.998 16.6844 168.027 16.5225 167.057 16.5225C165.44 16.5225 163.984 16.8464 162.69 17.4944C161.396 18.1423 160.264 18.9522 159.456 20.2481C158.647 21.382 158.162 22.5159 157.838 24.1357C157.515 25.5935 157.353 27.0514 157.353 28.6712C157.353 30.4531 157.676 32.0729 158 33.5307C158.485 34.9886 158.97 36.1225 159.779 37.2564C160.749 38.3903 162.043 39.2002 163.337 39.6861C164.793 40.3341 166.248 40.496 168.027 40.496C169.16 40.496 170.292 40.1721 171.424 39.8481C172.718 39.3622 173.85 38.5522 174.173 37.4184V39.6861C174.173 41.306 173.85 42.6018 172.88 43.7357C171.909 44.8696 170.454 45.3555 168.189 45.3555C166.734 45.3555 165.763 45.3555 164.308 45.0316C163.014 44.7076 161.396 44.0597 160.264 43.2498L156.868 48.2713C158.647 49.5671 160.426 50.377 162.367 51.025C164.308 51.5109 166.41 51.6729 168.351 51.6729C172.88 51.6729 176.114 50.539 178.217 48.2713C180.481 46.0035 181.29 42.7638 181.29 38.3903V16.8464H174.82ZM173.203 32.3969C172.233 33.5307 171.1 34.0167 169.483 34.0167C167.866 34.0167 166.572 33.5307 165.763 32.3969C164.793 31.263 164.469 29.9671 164.469 28.1853C164.469 26.4035 164.955 25.1076 165.763 23.9737C166.734 22.8398 167.866 22.3539 169.483 22.3539C171.1 22.3539 172.394 22.8398 173.203 23.9737C174.173 25.1076 174.497 26.4035 174.497 28.1853C174.497 29.9671 174.012 31.425 173.203 32.3969Z" fill="#37474D"/>
<path d="M19.8795 44.0601C-0.660809 33.6931 2.41215 15.227 7.74939 6.96582C6.29378 8.42367 4.9999 10.0435 3.70603 11.8253C2.25041 14.2551 -1.30775 20.8964 0.794803 29.1576C2.73562 37.4187 8.55807 43.0882 13.2484 46.1659C20.6882 51.0254 27.9662 52.1593 32.98 51.8353C40.5815 51.3493 45.5953 46.9758 48.1831 42.9262C49.6387 40.4964 50.4473 38.2287 50.6091 37.4187C49.8004 38.5526 40.0963 54.1031 19.8795 44.0601Z" fill="#C93F1F"/>
<path d="M33.6269 43.5729C33.3035 43.5729 32.98 43.5729 32.4948 43.7349C28.2897 43.7349 23.5994 42.277 20.3647 40.6572C17.9387 39.3613 14.704 37.2555 12.278 34.0158C0.147854 18.3034 15.9978 2.26705 20.3647 0.323242C19.556 0.485226 18.5856 0.64721 17.4535 0.971177C14.8657 1.7811 11.1458 3.7249 7.74938 6.96457C7.26418 7.61251 6.77897 8.42243 6.29377 9.07036C4.67642 11.5001 1.44173 17.8175 3.22081 25.9167C5.16163 34.0158 10.8223 39.5233 15.3509 42.439C22.629 47.2985 29.5836 48.2704 34.5973 47.9464C42.0371 47.4605 46.8892 43.0869 49.3152 39.3613C49.8004 38.7134 50.1239 38.0654 50.4473 37.4175C50.4473 37.0935 50.6091 36.9315 50.6091 36.9315C50.7708 36.2836 50.9325 34.9877 51.0943 34.6638C51.5795 31.4241 51.256 28.1844 50.7708 25.4307C49.9621 31.1001 45.4335 42.439 33.6269 43.5729Z" fill="#F39200"/>
<path d="M46.8892 15.5506C46.404 14.7407 45.757 13.7687 45.757 13.6068C45.1101 12.7968 44.4632 11.8249 43.978 11.177C42.6841 9.55718 40.4198 9.39519 38.8025 10.6911C37.1851 11.9869 37.0234 14.2547 38.1555 15.8745C39.6111 17.6564 40.4198 19.1142 41.3902 21.382C41.8754 22.3539 42.6841 24.6217 43.1693 27.3754C43.4928 29.8051 43.8162 34.6646 41.2285 38.5522C40.4198 39.8481 38.3173 42.6018 34.2739 43.4117C34.1121 43.4117 33.7887 43.5737 33.4652 43.5737H34.7591C41.2285 43.0878 45.5953 39.3622 47.6979 35.9605C49.3152 33.3688 49.9621 30.777 49.9621 30.777C50.1239 30.1291 50.2856 29.1572 50.2856 28.8332C50.4473 27.6993 50.6091 26.5655 50.4474 25.4316C50.1239 24.1357 49.9621 23.0018 49.6387 22.0299C49.1535 19.6002 48.0213 17.4944 46.8892 15.5506Z" fill="#007DB0"/>
<path d="M10.6602 30.9389C10.175 29.805 9.68984 28.5091 9.36637 27.2133C8.88117 25.4314 8.71943 20.5719 11.4689 16.5223C14.5419 12.1488 17.9383 9.39505 25.8633 9.23307C28.4511 9.23307 30.3919 7.9372 30.7153 5.34546C31.0388 2.75372 29.2597 0.485951 26.5102 0.161984C25.5398 0 24.5694 0 23.599 0C23.599 0 22.3051 0 20.3643 0.323967C17.1296 1.61984 12.7628 4.53554 9.85157 9.23307C8.5577 11.3389 5.48474 16.8463 7.26382 24.1356C8.23423 28.1852 10.175 31.4248 12.4393 34.0166C11.7924 33.0447 11.1455 32.0728 10.6602 30.9389Z" fill="#007DB0"/>
</svg>
