<svg width="54" height="54" viewBox="0 0 54 54" fill="none" xmlns="http://www.w3.org/2000/svg">
<path d="M10.9696 47.2498H43.0291C43.9614 47.2498 44.7165 46.4946 44.7165 45.5622V33.7494C44.7165 32.8171 43.9614 32.0619 43.0291 32.0619H10.9696C10.0373 32.0619 9.28223 32.8171 9.28223 33.7494V45.5622C9.28223 46.4945 10.0373 47.2498 10.9696 47.2498Z" fill="#53D5BB"/>
<path d="M18.0893 19.5065L16.5643 28.402C16.3285 29.7758 17.7777 30.8312 19.0131 30.1802L26.9995 25.9814L34.9859 30.1802C36.2309 30.8319 37.6691 29.768 37.4347 28.402L35.9097 19.5065L42.3712 13.2077C43.3698 12.2341 42.8178 10.5311 41.4358 10.3294L32.5055 9.03211L28.5128 0.939277C27.8936 -0.313303 26.1053 -0.312881 25.4862 0.939277L21.4935 9.03211L12.5632 10.3294C11.1831 10.5309 10.6278 12.2329 11.6278 13.2077L18.0893 19.5065Z" fill="#53D5BB"/>
<path d="M50.8782 46.4061L53.7741 41.3371C54.4158 40.2146 53.6044 38.8121 52.3092 38.8121H48.6182C48.327 38.8121 48.0909 39.0483 48.0909 39.3395V45.5623C48.0909 48.3584 45.8246 50.6249 43.0288 50.6249H38.4941C38.2029 50.6249 37.9668 50.8611 37.9668 51.1523V52.3125C37.9668 53.2445 38.7222 54 39.6541 54H52.3092C53.6021 54 54.4169 52.5996 53.7741 51.475L50.8782 46.4061Z" fill="#53D5BB"/>
<path d="M5.90771 45.5623V39.3395C5.90771 39.0483 5.67159 38.8121 5.38041 38.8121H1.68934C0.39652 38.8121 -0.418362 40.2126 0.224517 41.3371L3.12042 46.4061L0.224517 51.475C-0.417202 52.5976 0.3942 54 1.68934 54H14.3444C15.2764 54 16.0318 53.2445 16.0318 52.3125V51.1523C16.0318 50.8611 15.7957 50.6249 15.5045 50.6249H10.9697C8.17402 50.6249 5.90771 48.3583 5.90771 45.5623Z" fill="#53D5BB"/>
</svg>
