<svg width="54" height="54" viewBox="0 0 54 54" fill="none" xmlns="http://www.w3.org/2000/svg">
<path d="M20.0309 11.8983V8.15188C19.0102 7.96284 18.0503 7.45025 17.3124 6.67488L17.3056 6.66772C16.0216 7.5298 14.5697 8.02675 13.0629 8.17244V11.8983C13.0629 13.9173 14.6254 15.5593 16.5469 15.5593C18.4684 15.5593 20.0309 13.9173 20.0309 11.8983Z" fill="#FEAE29"/>
<path d="M21.7737 11.6439C22.2917 11.3261 22.6447 10.742 22.6447 10.0677C22.6447 9.3933 22.2917 8.8092 21.7737 8.49146V11.6439Z" fill="#FEAE29"/>
<path d="M16.4951 5.03746L17.5282 4.31349L18.5438 5.38068C19.1647 6.03226 20.0238 6.40677 20.9016 6.40677C21.5391 6.40677 22.129 6.60072 22.6436 6.91579V6.40677C22.6436 2.87402 19.9077 0 16.5466 0C13.1855 0 10.4496 2.87402 10.4496 6.40677V6.91579C10.9642 6.60072 11.5541 6.40677 12.1916 6.40677C13.7282 6.40677 15.2167 5.93261 16.4951 5.03746Z" fill="#FEAE29"/>
<path d="M14.8054 17.0693V17.3898C14.8054 18.3993 15.5867 19.2203 16.5474 19.2203C17.5082 19.2203 18.2894 18.3993 18.2894 17.3898V17.0693C17.7434 17.2727 17.159 17.3898 16.5474 17.3898C15.9359 17.3898 15.3515 17.2727 14.8054 17.0693Z" fill="#FEAE29"/>
<path d="M0 25.6272H33.0955V27.4577H0V25.6272Z" fill="#FEAE29"/>
<path d="M25.2563 22.6727C25.2563 21.534 24.575 20.5016 23.5611 20.1016L19.8126 18.6246C19.3273 20.0351 18.0531 21.0509 16.5463 21.0509C15.0395 21.0509 13.7653 20.0351 13.2809 18.6246L9.5328 20.1016C8.5172 20.5016 7.8363 21.534 7.8363 22.6727V23.7966H25.2563V22.6727Z" fill="#FEAE29"/>
<path d="M11.3206 11.644V8.49243C10.8022 8.81018 10.4496 9.39428 10.4496 10.0687C10.4496 10.743 10.8022 11.3262 11.3206 11.644Z" fill="#FEAE29"/>
<path d="M52.5942 40.2712L50.1449 34.7797H51.3872V32.9492H42.5534C42.3174 31.9946 41.727 31.1983 40.9352 30.7125V27.4577L39.1931 25.6272L37.4511 27.4577V30.7125C36.6592 31.1974 36.0689 31.9946 35.8329 32.9492H26.9991V34.7797H28.2418L25.7926 40.2712H24.3861L25.2571 45.7628H33.9671L34.8381 40.2712H33.4321L30.9828 34.7797H35.8337C36.0698 35.7343 36.6601 36.5307 37.452 37.0165V50.339H36.581C35.6185 50.339 34.839 51.1582 34.839 52.1695V54H43.549V52.1695C43.549 51.1582 42.7694 50.339 41.807 50.339H40.936V37.0165C41.7279 36.5316 42.3182 35.7343 42.5542 34.7797H47.4047L44.9555 40.2712H43.5482L44.4192 45.7628H53.1292L54.0002 40.2712H52.5942ZM27.7157 40.2712L29.6121 36.0208L31.5081 40.2712H27.7157ZM39.1931 35.695C38.2324 35.695 37.4511 34.874 37.4511 33.8645C37.4511 32.8549 38.2324 32.034 39.1931 32.034C40.1539 32.034 40.9352 32.8549 40.9352 33.8645C40.9352 34.874 40.1539 35.695 39.1931 35.695ZM48.7742 36.0208L50.6701 40.2712H46.8778L48.7742 36.0208Z" fill="#FEAE29"/>
<path d="M24.6853 38.4406L25.2578 37.1576V31.1186H31.3548V29.2881H1.74072V47.5931H23.7824L22.3305 38.4406H24.6853Z" fill="#FEAE29"/>
</svg>
