<svg width="40" height="54" viewBox="0 0 40 54" fill="none" xmlns="http://www.w3.org/2000/svg">
<path d="M15.7672 22.4996C21.9871 22.4996 27.0294 17.4629 27.0294 11.2498C27.0294 5.03671 21.9871 0 15.7672 0C9.54725 0 4.505 5.03671 4.505 11.2498C4.505 17.4629 9.54725 22.4996 15.7672 22.4996Z" fill="#FF4268"/>
<path d="M12.7448 45.384C10.7976 41.4921 11.9565 36.203 15.3915 33.3433C16.9818 32.0332 18.9814 31.3211 21.0428 31.3307C23.1576 31.3818 25.222 31.9868 27.0292 33.0851C28.4164 32.2646 29.9438 31.7079 31.5341 31.4432V29.2495C31.5322 27.4599 30.8196 25.7442 29.5528 24.4788C28.286 23.2133 26.5683 22.5016 24.7768 22.4996H6.75731C4.96575 22.5016 3.24813 23.2133 1.98131 24.4788C0.714488 25.7442 0.0019377 27.4599 0 29.2495V47.2492C0 47.8459 0.23731 48.4182 0.659723 48.8402C1.08214 49.2621 1.65505 49.4992 2.25243 49.4992H16.0486C14.7149 48.331 13.5967 46.9381 12.7448 45.384Z" fill="#FF4268"/>
<path d="M37.2265 35.0707C35.9505 34.0059 32.4677 32.0237 27.0298 35.7401C21.5907 32.0232 18.1084 34.0071 16.833 35.0707C14.214 37.2538 13.2854 41.4269 14.7602 44.3777C17.1253 49.1026 26.1401 53.6852 26.5224 53.8782C26.6796 53.9573 26.8532 53.9985 27.0292 53.9985C27.2052 53.9985 27.3788 53.9573 27.536 53.8782C27.9184 53.6852 36.9332 49.1021 39.2982 44.3777C40.7753 41.4286 39.8456 37.2538 37.2265 35.0707ZM33.7871 42.7493C33.3416 42.7493 32.9061 42.6173 32.5357 42.3701C32.1653 42.1229 31.8766 41.7715 31.7061 41.3604C31.5356 40.9492 31.491 40.4968 31.5779 40.0604C31.6648 39.6239 31.8794 39.223 32.1944 38.9084C32.5094 38.5937 32.9107 38.3794 33.3477 38.2926C33.7846 38.2058 34.2375 38.2503 34.649 38.4206C35.0606 38.5909 35.4124 38.8793 35.6599 39.2493C35.9074 39.6193 36.0395 40.0543 36.0395 40.4993C36.0395 41.0961 35.8022 41.6683 35.3798 42.0903C34.9574 42.5122 34.3845 42.7493 33.7871 42.7493Z" fill="#FF4268"/>
</svg>
