<svg width="48" height="54" viewBox="0 0 48 54" fill="none" xmlns="http://www.w3.org/2000/svg">
<path d="M35.0251 35.407V50.2757H36.9183V35.407C36.6166 35.3892 36.302 35.3792 35.9717 35.3792C35.6415 35.3792 35.3269 35.3892 35.0251 35.407Z" fill="#7073BE"/>
<path d="M35.0251 33.5434C35.3295 33.5275 35.643 33.5172 35.9717 33.5172C36.3005 33.5172 36.614 33.5275 36.9183 33.5434V32.5862C36.9183 32.3393 36.8186 32.1024 36.6411 31.9278C36.4636 31.7532 36.2228 31.6552 35.9717 31.6552C35.7207 31.6552 35.4799 31.7532 35.3024 31.9278C35.1249 32.1024 35.0251 32.3393 35.0251 32.5862V33.5434Z" fill="#7073BE"/>
<path d="M32.1853 10.2413H30.2921V24.2068H32.1853V10.2413Z" fill="#7073BE"/>
<path d="M42.5976 52.1379H29.3452C29.0943 52.1382 28.8536 52.2364 28.6762 52.4109C28.4987 52.5855 28.3989 52.8221 28.3986 53.069V54H43.5442V53.069C43.5439 52.8221 43.4441 52.5855 43.2666 52.4109C43.0892 52.2364 42.8486 52.1382 42.5976 52.1379Z" fill="#7073BE"/>
<path d="M8.24202 21.6864L10.8045 24.2069H28.3978V5.58618H12.3057V8.37928C12.3057 9.12006 12.0065 9.8305 11.4739 10.3543C10.9413 10.8781 10.219 11.1724 9.46586 11.1724C8.71269 11.1724 7.99038 10.8781 7.45781 10.3543C6.92525 9.8305 6.62606 9.12006 6.62606 8.37928V7.44825H8.51926V8.37928C8.51926 8.62621 8.61899 8.86302 8.79651 9.03762C8.97403 9.21223 9.2148 9.31032 9.46586 9.31032C9.71691 9.31032 9.95768 9.21223 10.1352 9.03762C10.3127 8.86302 10.4125 8.62621 10.4125 8.37928V5.58618H2.83966V21.4138H7.57266C7.69697 21.4138 7.82006 21.4378 7.93491 21.4846C8.04976 21.5314 8.15412 21.6 8.24202 21.6864ZM25.558 22.3448H12.3057V20.4827H25.558V22.3448ZM24.6114 7.44825H26.5046V9.31032H24.6114V7.44825ZM9.46586 13.0345H25.558V14.8965H9.46586V13.0345ZM5.67946 13.0345H7.57266V14.8965H5.67946V13.0345ZM5.67946 16.7586H25.558V18.6207H5.67946V16.7586Z" fill="#7073BE"/>
<path d="M33.131 35.647C32.1144 35.8613 31.1196 36.1658 30.1589 36.5567C29.5875 36.7921 28.9988 36.9849 28.398 37.1334V42.8276H30.2912V44.6897H24.6116V42.8276H26.5048V37.1699C24.9002 36.9295 24.0482 36.142 23.9422 36.0377L25.2809 34.721L25.2701 34.7105C25.2998 34.7378 26.0139 35.3793 27.4514 35.3793C28.0075 35.3793 28.6553 35.1326 29.4747 34.8207C30.4142 34.4627 31.5826 34.0197 33.131 33.7534V32.5862C33.1317 32.0088 33.3141 31.4458 33.653 30.9744C33.992 30.503 34.4709 30.1463 35.0242 29.9533V26.069H10.4126C10.2883 26.069 10.1652 26.0449 10.0503 25.9981C9.93549 25.9513 9.83113 25.8828 9.74323 25.7963L7.18078 23.2759H0V44.6897C0.000594977 45.1833 0.200248 45.6566 0.555163 46.0057C0.910077 46.3548 1.39127 46.5511 1.8932 46.5517H33.131V35.647Z" fill="#7073BE"/>
<path d="M45.4372 37.17C47.0418 36.9295 47.8938 36.142 47.9998 36.0377L46.6611 34.721L46.6719 34.7105C46.6423 34.7379 45.9282 35.3794 44.4906 35.3794C43.9345 35.3794 43.2867 35.1326 42.4673 34.8207C41.5278 34.4628 40.3594 34.0197 38.811 33.7534V35.647C39.8276 35.8614 40.8224 36.1659 41.7831 36.5568C42.3546 36.7922 42.9432 36.9849 43.544 37.1334V42.8276H41.6508V44.6897H47.3304V42.8276H45.4372V37.17Z" fill="#7073BE"/>
<path d="M8.51949 1.86207C9.02141 1.86265 9.50261 2.05902 9.85753 2.4081C10.2124 2.75718 10.4121 3.23046 10.4127 3.72414H12.3059C12.3059 2.73643 11.907 1.78919 11.1969 1.09077C10.4868 0.392363 9.52371 0 8.51949 0C7.51528 0 6.55219 0.392363 5.8421 1.09077C5.13202 1.78919 4.73309 2.73643 4.73309 3.72414H6.62629C6.62689 3.23046 6.82654 2.75718 7.18145 2.4081C7.53637 2.05902 8.01757 1.86265 8.51949 1.86207Z" fill="#7073BE"/>
</svg>
