<svg width="64" height="64" viewBox="0 0 64 64" fill="none" xmlns="http://www.w3.org/2000/svg">
<path d="M31.9996 39.6955L31.7756 40.6032L30.0326 47.6646L31.9996 55.9148L33.9666 47.6646L32.2237 40.6032L31.9996 39.6955Z" fill="#53D5BB"/>
<path d="M63.9813 61.8631L61.0683 41.1853C60.4459 36.7674 57.0813 33.2478 52.6959 32.427L45.2857 31.0403C44.7448 31.7278 44.1486 32.3763 43.5002 32.9778C42.6792 33.7394 41.7897 34.415 40.8419 34.9974L39.5123 40.5742L33.9272 63.9996H62.1246C62.6674 63.9996 63.1837 63.7642 63.5398 63.3544C63.8959 62.9447 64.0569 62.4007 63.9813 61.8631Z" fill="#53D5BB"/>
<path d="M23.1575 34.9974C22.21 34.415 21.3207 33.7396 20.4997 32.978C19.8512 32.3765 19.2548 31.7279 18.7138 31.0402L11.3036 32.427C6.91826 33.2478 3.55354 36.7675 2.93116 41.1853L0.0183089 61.8631C-0.0573156 62.4007 0.103558 62.9447 0.459681 63.3544C0.815804 63.7642 1.33205 63.9996 1.87492 63.9996H30.0722L24.4873 40.5742L23.1575 34.9974Z" fill="#53D5BB"/>
<path d="M45.1715 20.5741V18.8124H43.2965C40.156 18.8124 37.5323 17.4995 35.7089 15.0157C35.6081 14.8785 35.5128 14.7415 35.4224 14.6054C32.8047 17.357 28.8567 18.7479 23.6371 18.7479H18.8279V20.574C18.8279 24.3845 20.4549 27.8214 23.0499 30.2287C24.043 31.1499 25.1778 31.9202 26.4178 32.5027L28.1348 39.7044L29.6571 33.5369C30.4174 33.6739 31.2003 33.7457 31.9995 33.7457C32.7988 33.7457 33.5817 33.6739 34.342 33.5369L35.8643 39.7044L37.5813 32.5027C38.8214 31.92 39.9562 31.1498 40.9495 30.2284C43.5446 27.8213 45.1715 24.3843 45.1715 20.5741Z" fill="#53D5BB"/>
<path d="M23.6371 14.998C28.9859 14.998 32.4054 13.3732 34.0912 10.0307C34.4475 9.32419 35.2085 8.91731 35.9943 9.01406C36.7796 9.11069 37.4198 9.68993 37.5941 10.4618C37.5944 10.4628 37.8991 11.7047 38.8007 12.889C39.9142 14.3515 41.3847 15.0625 43.2963 15.0625H45.1713V13.1719C45.1715 5.90884 39.2626 0 31.9997 0C24.7367 0 18.8279 5.90884 18.8279 13.1718V14.9979H23.6371V14.998Z" fill="#53D5BB"/>
</svg>
