<svg width="64" height="64" viewBox="0 0 64 64" fill="none" xmlns="http://www.w3.org/2000/svg">
<path d="M1.87499 63.9996H35.8748C36.9104 63.9996 37.7497 63.1602 37.7497 62.1246V60.1246C37.7497 58.0533 36.071 56.3746 33.9998 56.3746V54.133C33.9998 51.1647 31.5847 48.7497 28.6165 48.7497H9.13324C6.165 48.7497 3.74997 51.1647 3.74997 54.133V56.3746C1.6787 56.3746 0 58.0533 0 60.1246V62.1246C0 63.1598 0.839838 63.9996 1.87499 63.9996Z" fill="#FEAE29"/>
<path d="M23.4661 41.2928C24.7122 42.9466 27.0638 43.2771 28.7176 42.0306C30.3719 40.7845 30.7019 38.4329 29.4559 36.7787L18.1718 21.8046C16.9252 20.1503 14.5741 19.8203 12.9203 21.0664C11.266 22.3129 10.9355 24.664 12.182 26.3183L23.4661 41.2928Z" fill="#FEAE29"/>
<path d="M50.4202 20.9813C51.6667 22.6351 54.0178 22.9657 55.6721 21.7191C57.3259 20.4731 57.6564 18.122 56.4099 16.4677L45.1258 1.49369C43.8797 -0.1606 41.5281 -0.491165 39.8743 0.755409C38.2205 2.00198 37.89 4.35304 39.1365 6.00733L50.4202 20.9813Z" fill="#FEAE29"/>
<path d="M42.195 31.8748C44.9665 29.7864 47.0471 27.1932 48.3483 24.4627L35.2185 7.039C32.2351 7.53753 29.1693 8.82219 26.3973 10.911C23.6258 12.9994 21.5453 15.5927 20.244 18.3226L33.3738 35.7473C36.3572 35.2488 39.4231 33.9636 42.195 31.8748Z" fill="#FEAE29"/>
<path d="M47.2577 32.3631C46.3846 33.2528 45.4652 34.1058 44.4515 34.8699C43.4374 35.6336 42.3636 36.2825 41.2684 36.8768L43.7132 40.1214L49.7029 35.6082L47.2577 32.3631Z" fill="#FEAE29"/>
<path d="M51.9604 38.6028L45.9707 43.1159L57.2548 58.0904C58.5014 59.7447 60.8524 60.0748 62.5062 58.8287C64.1605 57.5821 64.4906 55.2311 63.2445 53.5768L51.9604 38.6028Z" fill="#FEAE29"/>
</svg>
