<svg width="64" height="53" viewBox="0 0 64 53" fill="none" xmlns="http://www.w3.org/2000/svg">
<path d="M60.2496 15.1249V11.3749H37.2794C36.7129 9.78643 35.4633 8.53682 33.8748 7.97032V0H30.1248V7.97032C28.5363 8.53682 27.2867 9.78643 26.7202 11.3749H3.74998V15.1249H8.43794L0 35.7498C0 40.9189 4.20585 45.1247 9.37494 45.1247H13.1249C18.294 45.1247 22.4999 40.9189 22.4999 35.7498L14.0238 15.1249H26.7203C27.2868 16.7134 28.5364 17.963 30.1249 18.5295V45.3302C26.4606 46.0801 23.5618 48.9589 22.8147 52.6246H41.1851C40.438 48.9589 37.5393 46.0801 33.8749 45.3302V18.5295C35.4634 17.963 36.713 16.7134 37.2795 15.1249H49.9378L41.4997 35.7498C41.4997 40.9189 45.7056 45.1247 50.8747 45.1247H54.6246C59.7937 45.1247 63.9996 40.9189 63.9996 35.7498L55.5235 15.1249H60.2496ZM17.8119 33.8748H4.68797L11.2499 18.1241L17.8119 33.8748ZM59.3116 33.8748H46.1877L52.7497 18.1241L59.3116 33.8748Z" fill="#FF4268"/>
</svg>
