<svg width="50" height="50" viewBox="0 0 50 50" fill="none" xmlns="http://www.w3.org/2000/svg">
<circle cx="25" cy="25" r="24.5" fill="#666666" stroke="#EFF2F7"/>
<path d="M29.8201 20.565C30.6006 20.565 31.2018 20.7366 31.6584 20.959C30.785 22.0178 29.9593 23.6043 29.9593 25.7486C29.9593 28.3276 31.1322 30.1086 32.2834 31.201C32.4594 31.368 32.635 31.5193 32.8062 31.6559C32.5934 32.1048 32.3358 32.6055 32.0416 33.0996C31.5973 33.846 31.121 34.4901 30.6542 34.9243C30.1709 35.3738 29.9062 35.4099 29.8462 35.4099C29.5481 35.4099 29.2457 35.3162 28.5265 35.0475C28.5067 35.0402 28.4866 35.0326 28.4661 35.025C27.8371 34.7895 26.8646 34.4256 25.7111 34.4256C24.5302 34.4256 23.4434 34.8047 22.7408 35.0566C22.6434 35.0916 22.5543 35.1238 22.4717 35.1537C22.2121 35.2477 22.0164 35.3186 21.8258 35.3769C21.6657 35.4259 21.5849 35.4408 21.5607 35.4452C21.5338 35.4412 21.4639 35.426 21.3459 35.3693C21.1785 35.2889 20.9541 35.1434 20.6843 34.9037C20.1389 34.4193 19.5372 33.6651 18.9728 32.6937C17.833 30.7322 17.0534 28.2502 17.0534 26.1608C17.0534 22.1044 19.4466 20.6347 21.018 20.6347C21.5793 20.6347 22.1331 20.7952 22.8108 21.0496C22.8911 21.0798 22.9836 21.1154 23.0829 21.1536C23.3362 21.2511 23.6335 21.3656 23.8851 21.4498C24.2445 21.5701 24.7775 21.7266 25.3653 21.7266C25.9704 21.7266 26.5252 21.5339 26.836 21.4202C27.0156 21.3545 27.2807 21.2482 27.5152 21.1543C27.6579 21.0971 27.7892 21.0444 27.883 21.0082C28.5632 20.7459 29.182 20.565 29.8201 20.565Z" fill="white" stroke="#EFF2F7" stroke-width="4.10676"/>
</svg>
