<svg width="50" height="50" viewBox="0 0 50 50" fill="none" xmlns="http://www.w3.org/2000/svg">
<circle cx="25" cy="25" r="24.5" fill="#B431AE" stroke="#EFF2F7"/>
<path d="M36.3837 16.9936L36.3837 16.9936C36.0916 16.2206 35.643 15.5305 35.0561 14.957L35.0492 14.9503L35.0493 14.9502C34.4745 14.3665 33.7788 13.9133 33.0167 13.6264L33.0125 13.6249L33.0126 13.6248C32.2716 13.3384 31.4171 13.1333 30.1378 13.0769L30.1362 13.0768C28.8098 13.0138 28.3942 12.9991 25.0025 12.9991C21.6109 12.9991 21.1945 13.0138 19.8721 13.0719L36.3837 16.9936ZM36.3837 16.9936L36.3854 16.9981M36.3837 16.9936L36.3854 16.9981M36.3854 16.9981C36.6714 17.7334 36.8766 18.5923 36.9331 19.872L36.3854 16.9981ZM16.9938 13.6213L16.9938 13.6213C16.2206 13.9134 15.5305 14.3619 14.957 14.9488L14.9503 14.9557L14.9502 14.9557C14.3666 15.5304 13.9134 16.2262 13.6264 16.9883L13.6249 16.9924L13.6249 16.9924C13.3384 17.7335 13.1333 18.5879 13.0769 19.8671L13.0768 19.8688C13.0138 21.1952 12.9991 21.6107 12.9991 25.0025C12.9991 28.394 13.0138 28.8105 13.0719 30.1329L16.9938 13.6213ZM16.9938 13.6213L16.9982 13.6196M16.9938 13.6213L16.9982 13.6196M16.9982 13.6196C17.7335 13.3338 18.5924 13.1283 19.872 13.0719L16.9982 13.6196ZM13.6215 33.0113L13.6214 33.0113C13.9131 33.7831 14.3661 34.4742 14.9502 35.0493L14.9557 35.0547L14.9557 35.0547C15.5304 35.6385 16.2262 36.0917 16.9882 36.3785L16.9924 36.3801C17.7335 36.6666 18.5879 36.8717 19.8673 36.9281C21.1895 36.9864 21.606 37.0009 24.9977 37.0009C28.3894 37.0009 28.8057 36.9864 30.1281 36.9281C31.4079 36.8717 32.2667 36.6664 33.0019 36.3805L33.0028 36.3801C34.5518 35.7813 35.7764 34.5566 36.3753 33.0079L13.6215 33.0113ZM13.6215 33.0113L13.6197 33.0069M13.6215 33.0113L13.6197 33.0069M13.6197 33.0069C13.3338 32.2715 13.1283 31.4126 13.0719 30.133L13.6197 33.0069ZM35.216 32.5573C34.7452 33.7772 33.7775 34.7451 32.5575 35.2159C32.0686 35.406 31.351 35.6228 30.0794 35.6788C30.0793 35.6788 30.0793 35.6788 30.0792 35.6788L30.0572 35.1802C28.7386 35.239 28.3431 35.2535 25.0074 35.2535L35.216 32.5573ZM35.216 32.5573C35.406 32.0686 35.6228 31.3558 35.679 30.0793C35.7381 28.7499 35.7528 28.3507 35.7528 25.0122C35.7528 21.6737 35.7381 21.2698 35.679 19.9403C35.6229 18.6718 35.4071 17.9546 35.2173 17.4657C34.992 16.8576 34.6359 16.3097 34.1718 15.8548C33.7194 15.3876 33.1652 15.0318 32.5589 14.8073C32.0703 14.6176 31.3579 14.4017 30.0844 14.3456L35.216 32.5573ZM36.9233 30.133C36.8669 31.412 36.6617 32.2665 36.3753 33.0078L36.9233 30.133ZM14.8024 32.559C15.0277 33.1669 15.3837 33.7148 15.8479 34.1696L14.3408 30.0844C14.3968 31.3527 14.6126 32.0701 14.8024 32.559ZM14.2671 25.0122C14.2671 28.3504 14.2816 28.7548 14.3408 30.0841L19.9403 14.3456C18.672 14.4017 17.9546 14.6175 17.4657 14.8073C16.858 15.0323 16.3104 15.388 15.856 15.8517C15.3829 16.3048 15.027 16.8595 14.8024 17.4657C14.6127 17.9543 14.3968 18.6667 14.3408 19.9402C14.2816 21.2648 14.2671 21.6739 14.2671 25.0122ZM25.0122 14.2718C21.674 14.2718 21.2698 14.2865 19.9404 14.3456L30.0841 14.3456C28.7596 14.2865 28.3554 14.2718 25.0122 14.2718Z" fill="white" stroke="#EFF2F7" stroke-width="0.998242"/>
<path d="M19.0798 25.0023C19.0798 21.7322 21.733 19.0792 25.0029 19.0792C28.2729 19.0792 30.9259 21.7322 30.9259 25.0023C30.9259 28.2723 28.2729 30.9253 25.0029 30.9253C21.733 30.9253 19.0798 28.2723 19.0798 25.0023ZM20.3379 25.0023C20.3379 27.5783 22.4271 29.6673 25.0029 29.6673C27.5789 29.6673 29.6679 27.5782 29.6679 25.0023C29.6679 22.4263 27.5789 20.3372 25.0029 20.3372C22.4271 20.3372 20.3379 22.4262 20.3379 25.0023Z" fill="white" stroke="#EFF2F7" stroke-width="0.998242"/>
<path d="M32.6795 18.3264C32.6795 18.8787 32.2317 19.3266 31.6791 19.3266C31.1268 19.3266 30.679 18.8787 30.679 18.3264C30.679 17.774 31.1268 17.3263 31.6791 17.3263C32.2317 17.3263 32.6795 17.774 32.6795 18.3264Z" fill="white" stroke="#EFF2F7" stroke-width="0.998242"/>
</svg>
