<svg width="26" height="26" viewBox="0 0 26 26" fill="none" xmlns="http://www.w3.org/2000/svg">
<path d="M21.1786 21.1791L21.1786 21.1791C16.6627 25.696 9.33781 25.6955 4.82211 21.1791L4.82202 21.179C0.303798 16.6612 0.303952 9.337 4.82191 4.82095L4.82204 4.82082C9.33889 0.30412 16.6626 0.304289 21.1776 4.82114L21.1779 4.82146C25.6958 9.33686 25.696 16.6611 21.1786 21.1791Z" fill="white" stroke="#EFF2F7" stroke-width="1.8668"/>
<mask id="path-2-inside-1_1704_9874" fill="white">
<path d="M22.7325 6.69238C22.9728 7.46917 23.0951 8.27765 23.0952 9.09075C23.0952 11.7838 21.771 14.1519 19.757 15.6358C16.2551 18.215 11.151 18.2185 4.10352 20.4392C6.23061 22.9815 9.42695 24.5996 13.0015 24.5996C19.4079 24.5996 24.601 19.4065 24.601 13.0003C24.601 10.6748 23.9126 8.50973 22.7325 6.69238Z"/>
</mask>
<path d="M22.7325 6.69238C22.9728 7.46917 23.0951 8.27765 23.0952 9.09075C23.0952 11.7838 21.771 14.1519 19.757 15.6358C16.2551 18.215 11.151 18.2185 4.10352 20.4392C6.23061 22.9815 9.42695 24.5996 13.0015 24.5996C19.4079 24.5996 24.601 19.4065 24.601 13.0003C24.601 10.6748 23.9126 8.50973 22.7325 6.69238Z" fill="#2151A1"/>
<path d="M23.0952 9.09075H24.962V9.09048L23.0952 9.09075ZM19.757 15.6358L20.864 17.1389L20.8642 17.1387L19.757 15.6358ZM4.10352 20.4392L3.54248 18.6587L0.881364 19.4972L2.67176 21.6371L4.10352 20.4392ZM20.9491 7.24405C21.1342 7.84225 21.2283 8.46485 21.2284 9.09101L24.962 9.09048C24.9618 8.09044 24.8115 7.0961 24.516 6.14072L20.9491 7.24405ZM21.2284 9.09075C21.2284 11.152 20.2181 12.9773 18.6497 14.1328L20.8642 17.1387C23.3239 15.3266 24.962 12.4156 24.962 9.09075H21.2284ZM18.6499 14.1327C17.2339 15.1756 15.4173 15.7561 12.8387 16.3532C10.3385 16.9322 7.1585 17.5192 3.54248 18.6587L4.66455 22.2197C8.09604 21.1384 10.9919 20.6133 13.681 19.9906C16.2918 19.386 18.7782 18.6752 20.864 17.1389L18.6499 14.1327ZM2.67176 21.6371C5.1381 24.5849 8.85059 26.4664 13.0015 26.4664V22.7328C10.0033 22.7328 7.32312 21.3781 5.53527 19.2412L2.67176 21.6371ZM13.0015 26.4664C20.4389 26.4664 26.4678 20.4375 26.4678 13.0003H22.7342C22.7342 18.3755 18.377 22.7328 13.0015 22.7328V26.4664ZM26.4678 13.0003C26.4678 10.3008 25.6675 7.78448 24.2982 5.67571L21.1669 7.70906C22.1577 9.23497 22.7342 11.0489 22.7342 13.0003H26.4678Z" fill="#EFF2F7" mask="url(#path-2-inside-1_1704_9874)"/>
<mask id="path-4-inside-2_1704_9874" fill="white">
<path d="M19.9567 3.7191C18.0183 2.26219 15.6103 1.40039 13.0005 1.40039C6.59438 1.40039 1.40143 6.59461 1.40143 13C1.40143 15.5784 2.24264 17.9598 3.66535 19.8855C11.4667 17.6138 17.6265 11.4943 19.9567 3.7191Z"/>
</mask>
<path d="M19.9567 3.7191C18.0183 2.26219 15.6103 1.40039 13.0005 1.40039C6.59438 1.40039 1.40143 6.59461 1.40143 13C1.40143 15.5784 2.24264 17.9598 3.66535 19.8855C11.4667 17.6138 17.6265 11.4943 19.9567 3.7191Z" fill="#EB1933"/>
<path d="M3.66535 19.8855L2.16389 20.9948L2.93742 22.0418L4.18727 21.6778L3.66535 19.8855ZM21.0783 2.22684C18.8274 0.535012 16.0283 -0.466406 13.0005 -0.466406V3.26719C15.1923 3.26719 17.2092 3.98936 18.835 5.21137L21.0783 2.22684ZM13.0005 -0.466406C5.56319 -0.466406 -0.465369 5.56379 -0.465369 13H3.26823C3.26823 7.62543 7.62556 3.26719 13.0005 3.26719V-0.466406ZM-0.465369 13C-0.465369 15.9911 0.511997 18.7589 2.16389 20.9948L5.16681 18.7762C3.97328 17.1607 3.26823 15.1656 3.26823 13H-0.465369ZM4.18727 21.6778C12.597 19.229 19.2332 12.6361 21.7449 4.25501L18.1684 3.1832C16.0199 10.3525 10.3363 15.9986 3.14343 18.0931L4.18727 21.6778Z" fill="#EFF2F7" mask="url(#path-4-inside-2_1704_9874)"/>
</svg>
