<svg width="239" height="69" viewBox="0 0 239 69" fill="none" xmlns="http://www.w3.org/2000/svg">
<path d="M0.312012 5.80651C0.312012 3.02701 2.56421 0.773926 5.3426 0.773926H233.732C236.509 0.773926 238.763 3.02701 238.763 5.80651V45.5639C238.763 58.0709 228.626 68.2105 216.125 68.2105H5.3426C2.56421 68.2105 0.312012 65.9569 0.312012 63.1779V5.80651Z" fill="url(#paint0_linear_2696_16127)"/>
<path d="M53.1331 33.9889C53.1331 45.6625 43.6735 55.1257 32.0046 55.1257C20.3356 55.1257 10.8761 45.6625 10.8761 33.9889C10.8761 22.3153 20.3356 12.8521 32.0046 12.8521C43.6735 12.8521 53.1331 22.3153 53.1331 33.9889Z" fill="#FBFBFB"/>
<path d="M71.2433 26.1888C71.2433 25.4938 71.8062 24.9307 72.5009 24.9307H135.384C136.078 24.9307 136.641 25.4938 136.641 26.1888C136.641 26.8833 136.078 27.447 135.384 27.447H72.5009C71.8062 27.447 71.2433 26.8833 71.2433 26.1888Z" fill="#FBFBFB"/>
<path d="M71.2433 40.2801C71.2433 39.5851 71.8062 39.022 72.5009 39.022H180.659C181.353 39.022 181.917 39.5851 181.917 40.2801C181.917 40.9746 181.353 41.5383 180.659 41.5383H72.5009C71.8062 41.5383 71.2433 40.9746 71.2433 40.2801Z" fill="#FBFBFB"/>
<defs>
<linearGradient id="paint0_linear_2696_16127" x1="238.763" y1="0.773926" x2="209.493" y2="120.897" gradientUnits="userSpaceOnUse">
<stop stop-color="#2FAAD9"/>
<stop offset="1" stop-color="#2364AC"/>
</linearGradient>
</defs>
</svg>
